<svg xmlns="http://www.w3.org/2000/svg" viewBox="0 0 80 100"><path d="M62 48v-2a1 1 0 0 0 1-1V34a1 1 0 0 0-1-1H20a1 1 0 0 0-1 1v11a1 1 0 0 0 1 1h26v2H20c-1.654 0-3-1.346-3-3V34c0-1.654 1.346-3 3-3h42c1.654 0 3 1.346 3 3v11c0 1.654-1.346 3-3 3z"/><path d="M53 43h2v9h-2z"/><path d="M49.947 44.804l9 4.5-.895 1.788-9-4.5z"/><path d="M58.053 44.804l.895 1.788-9 4.5-.894-1.79zM19 40h44v2H19zM56 35h3v2h-3zM51 35h3v2h-3z"/><text y="95" font-size="5" font-weight="bold" font-family="'Helvetica Neue', Helvetica, Arial-Unicode, Arial, Sans-serif">Created by Golden Roof</text><text y="100" font-size="5" font-weight="bold" font-family="'Helvetica Neue', Helvetica, Arial-Unicode, Arial, Sans-serif">from the Noun Project</text></svg>