<svg xmlns="http://www.w3.org/2000/svg" viewBox="-11.449 -8 1024 1280"><path fill="none" stroke="#000" stroke-width="16" stroke-miterlimit="10" d="M45.738 350h916s21.064.988 24.064 33.986c0 0 16.5 129.257-12 252.25 0 0-6.064 25.764-31.997 25.764H57.738s-22.888 3.972-28.888-29.026c0 0-23.998-68.69-9-260.68 0 0 3.776-22.294 25.888-22.294zM31.55 533h944m-80.32 128.636c17-23 16-50.636 16-50.636h-817c3 40 15 50.66 15 50.66M587.55 559a4 4 0 0 0-4-4h-160a4 4 0 0 0-4 4v20a4 4 0 0 0 4 4h160a4 4 0 0 0 4-4v-20z"/><text x="-11.449" y="1031" font-size="5" font-weight="bold" font-family="'Helvetica Neue', Helvetica, Arial-Unicode, Arial, Sans-serif">Created by shashank singh</text><text x="-11.449" y="1036" font-size="5" font-weight="bold" font-family="'Helvetica Neue', Helvetica, Arial-Unicode, Arial, Sans-serif">from the Noun Project</text></svg>