<svg xmlns="http://www.w3.org/2000/svg" viewBox="0 0 100 125"><path d="M91.04 59.02c-.988-.96-1.84-1.788-1.84-2.56v-5.82c0-2.055 0-8.024-6.054-12.588 2.447-2.01 3.686-5.003 3.686-8.924 0-3.056-1.134-6.064-3.11-8.254-2.174-2.406-5.254-3.73-8.67-3.73-3.554 0-6.307 1.04-8.186 3.093-2.91 3.18-2.556 7.587-2.54 7.774l.234-.01a.923.923 0 0 0 1.847-.015c0-.022-.005-.043-.007-.066l.238-.012c0-1.936 1.25-6.96 6.96-6.96 5.68 0 6.96 5.155 6.96 6.96 0 1.938-1.25 6.966-6.96 6.966l-.216.002-.152-.002H45.126c-.745 0-2.75-.722-5.945-2.755-1.89-1.206-3.8-2.63-5.244-3.91l-.164-.143a145.69 145.69 0 0 0-1.793-1.565c-1.115-.938-2.06-1.63-2.972-2.18l-.283-.168a3.93 3.93 0 0 0-3.874-3.3h-2.126c-1.3 0-2.502.65-3.23 1.704l-.7.053v.067c-3.88.65-4.91 2.267-5.06 3.544a.4.4 0 0 1-.03.106l-.01.026c-.168.45-1.276.944-3.366 1.03-.7.026-1.276.003-1.498-.01l-1.592-.306v.014l-1.686-.312v1.392c0 .135.005.277.014.424h-.084l.27 1.38v.003l.184.933h.032c1.024 3.844 3.828 7.92 8.81 7.92.7 0 1.335-.013 1.95-.026.37-.008.728-.016 1.073-.02.486-.006.927 0 1.314.02l.056.003h.012l.085.003c.037 0 .073 0 .107.004h.002c2.208.164 3.918.78 5.842 7.262 2.625 8.844 5.448 12.477 7.51 15.13l.204.263v16.61c-.336.08-.722.19-1.114.35-2.23.896-2.564 2.44-2.564 3.28v1.158h7.583l2.583-2.715 3.685-13.17c.788.104 1.962.218 3.388.218 3.75 0 9.198-.78 13.868-4.504 5.164-4.118 8.834-5.248 10.486-5.558 2.06 3.262 6.15 5.245 12.17 5.9 1.84.198 4.815 3.195 4.992 6.775.14 2.712.09 4.983.043 6.157-1.76.495-3.924 1.71-3.924 3.998v1.157h7.924l2.466-2.868V65.453c0-3.055-1.928-4.928-3.477-6.432zM21.124 24.574a1.54 1.54 0 0 1 .035-.182l.015-.056a1.628 1.628 0 0 1 1.548-1.167h2.127c.83 0 1.516.63 1.604 1.437l-.007.018-.072.195-.014.037-.083.232-.01.03-.09.254c0 .004-.003.01-.005.014l-.09.264-.013.04c-.03.087-.057.172-.082.255l-.015.045c-.025.083-.05.164-.07.242-.005.014-.01.027-.013.042a7.056 7.056 0 0 0-.065.25 2.786 2.786 0 0 0-.042.205c-.13.83-.636 1.8-1.628 1.8h-.742c-.99 0-1.497-.97-1.627-1.797a3.57 3.57 0 0 0-.045-.225c-.006-.03-.015-.062-.023-.093-.014-.055-.027-.11-.044-.17l-.033-.113c-.017-.06-.034-.115-.05-.175l-.04-.117a7.783 7.783 0 0 0-.058-.184l-.038-.112-.064-.19a11.63 11.63 0 0 0-.035-.1l-.066-.19c-.01-.024-.02-.046-.027-.07a13.123 13.123 0 0 0-.07-.197l-.013-.032c-.02-.058-.043-.117-.062-.167a.062.062 0 0 0 .007-.023zM92.2 77.39l-1.214 1.41h-3.712c.72-.45 1.7-.698 2.068-.758l.913-.143.062-.923c.01-.128.21-3.18.002-7.29-.23-4.646-3.985-8.632-7.06-8.96-5.486-.6-9.07-2.334-10.65-5.157-.167-.298-.477-.852-1.19-.852l-.108.004c-1.596.15-5.998 1.05-12.396 6.152-4.146 3.306-9.045 4-12.424 4-2.353 0-3.96-.342-3.976-.345l-1.067-.234-4.105 14.668-1.5 1.577H32.75a6.09 6.09 0 0 1 1.437-.343l1.062-.09V60.67l-.24-.312-.453-.585c-1.948-2.507-4.616-5.94-7.117-14.367-1.714-5.77-3.51-8.158-6.82-8.775v-.03l-1.008-.11c-.03-.005-.058-.01-.088-.013l-.102-.01-.05.002-.052.003-.143.007c-.42-.02-.89-.027-1.4-.02-.354.003-.718.01-1.098.02-.604.012-1.227.025-1.9.025-3.983 0-5.714-3.5-6.397-5.615.006 0 .012-.004.02-.004.065-.01.13-.022.193-.04l.013-.004c.063-.02.124-.045.185-.074l.032-.016a1.3 1.3 0 0 0 .164-.1l.03-.02a1.203 1.203 0 0 0 .28-.284c.004-.008.01-.015.016-.023.036-.052.07-.108.098-.166l.016-.035c.027-.06.05-.12.07-.182l.006-.028c.018-.063.03-.128.04-.195v-.01c.257 0 .55 0 .874-.013 3.024-.126 4.854-.975 5.44-2.523.086-.22.143-.43.174-.663.07-.61 1.123-1.158 2.774-1.482l.066.17c.25.652.54 1.49.615 1.82l.014.072c.288 1.825 1.38 3.163 2.846 3.6.338.102.696.155 1.068.155h.742c1.987 0 3.56-1.51 3.914-3.747l.017-.08.005-.02.027-.102a.294.294 0 0 0 .008-.028c.01-.04.022-.08.037-.125l.003-.01c.015-.048.03-.1.05-.156 0-.005.003-.01.004-.017.687.445 1.417.998 2.26 1.708.567.483 1.146.994 1.76 1.535l.16.143c1.55 1.374 3.517 2.84 5.537 4.126 2.236 1.422 5.297 3.118 7.19 3.118h28.103c.102 0 .203.005.31.01l1.216.05v-.12c5.888-.61 8.115-5.847 8.115-9.223 0-2.374-1.103-5.668-3.808-7.625 3.566 1.606 5.454 5.31 5.454 8.845 0 3.8-1.304 6.393-3.988 7.92l-1.69.963 1.653 1.026c5.73 3.556 6.393 8.325 6.393 11.603v5.817c0 1.753 1.293 3.008 2.542 4.223 1.363 1.324 2.773 2.694 2.773 4.77v11.94z"/></svg>