<svg xmlns="http://www.w3.org/2000/svg" xmlns:xlink="http://www.w3.org/1999/xlink" version="1.1" x="0px" y="0px" viewBox="0 0 100 125" style="enable-background:new 0 0 100 100;" xml:space="preserve"><g><path d="M29.4,42.6c-0.7,0.7-0.7,1.9,0,2.6L50,65.8l20.6-20.6c0.4-0.4,0.5-0.8,0.5-1.3S71,43,70.6,42.6c-0.7-0.7-1.9-0.7-2.6,0   l-18,18l-18-18C31.3,41.9,30.1,41.9,29.4,42.6z"/><path d="M0,50c0,27.6,22.4,50,50,50c27.6,0,50-22.4,50-50c0-27.6-22.4-50-50-50C22.4,0,0,22.4,0,50z M96.3,50   c0,25.5-20.8,46.3-46.3,46.3S3.7,75.5,3.7,50C3.7,24.5,24.5,3.7,50,3.7S96.3,24.5,96.3,50z"/></g>></svg>