<svg xmlns="http://www.w3.org/2000/svg" viewBox="0 0 100 125"><path d="M71.767 5.732A2.504 2.504 0 0 0 70 5l-40 .002c-.663 0-1.3.264-1.768.732l-15 15A2.5 2.5 0 0 0 15 25.002h5V92.5a2.5 2.5 0 0 0 2.5 2.5h55a2.5 2.5 0 0 0 2.5-2.5V25.002h5a2.5 2.5 0 0 0 1.768-4.268l-15-15.002zM58.75 90h-17.5v-2.5h17.5V90zm-2.5-7.5V85h-12.5v-2.5h12.5zm-10-2.5V66.25h7.5V80h-7.5zM75 90H61.25v-3.75c0-.69-.56-1.25-1.25-1.25h-1.25v-3.75c0-.69-.56-1.25-1.25-1.25h-1.25V65c0-.69-.56-1.25-1.25-1.25H45c-.69 0-1.25.56-1.25 1.25v15H42.5c-.69 0-1.25.56-1.25 1.25V85H40c-.69 0-1.25.56-1.25 1.25V90H25V25.002h50V90zM21.035 20.002l10-10L68.965 10l10 10.002h-57.93z"/><path d="M37.5 56.25h25c.69 0 1.25-.56 1.25-1.25V45c0-.69-.56-1.25-1.25-1.25h-3.75V32.5c0-.69-.56-1.25-1.25-1.25h-15c-.69 0-1.25.56-1.25 1.25v11.25H37.5c-.69 0-1.25.56-1.25 1.25v10c0 .69.56 1.25 1.25 1.25zm21.25-10h2.5v7.5h-2.5v-7.5zm-7.5 7.5h-2.5v-7.5h2.5v7.5zm5 0h-2.5v-7.5h2.5v7.5zm-12.5-20h12.5v10h-12.5v-10zm0 12.5h2.5v7.5h-2.5v-7.5zm-5 0h2.5v7.5h-2.5v-7.5z"/><text y="115" font-size="5" font-weight="bold" font-family="'Helvetica Neue', Helvetica, Arial-Unicode, Arial, Sans-serif">Created by Arthur Shlain</text><text y="120" font-size="5" font-weight="bold" font-family="'Helvetica Neue', Helvetica, Arial-Unicode, Arial, Sans-serif">from the Noun Project</text></svg>