<svg xmlns="http://www.w3.org/2000/svg" viewBox="0 0 100 125"><path d="M14.476 23.995h2.398v12.787h-2.398zM14.476 39.98h2.398v3.196h-2.398z"/><path d="M85.604 17.6H83.85c-.906-3.898-4.406-6.484-8.888-6.484l-55.876-.006c-5.52 0-9.086 3.06-9.086 7.795V82.85h14.412v6.04h59.673V25.592h1.52c2.422 0 4.395-1.793 4.395-3.996S88.028 17.6 85.604 17.6zM19.086 13.51l49.01.005c-1.38 1.34-2.152 3.183-2.152 5.392v46.897H12.398V18.905c0-5.008 5.12-5.397 6.688-5.397zM65.944 71.13H12.398V68.2h53.547v2.93zm-53.546 2.397h53.547v6.927H12.398v-6.927zm69.29 12.965H26.81v-3.64h41.532V18.904c0-5.003 5.068-5.39 6.62-5.39 3.1 0 5.554 1.608 6.4 4.086h-3.466a5.17 5.17 0 0 0-2.865-.878c-2.863 0-5.194 2.33-5.194 5.195s2.33 5.195 5.195 5.195c1.394 0 2.702-.547 3.67-1.518h2.99v60.898zm3.916-63.296h-8.79v.87a2.777 2.777 0 0 1-1.784.648c-1.542 0-2.797-1.255-2.797-2.797s1.255-2.797 2.797-2.797c.655 0 1.282.235 1.783.652V20h8.79c1.084 0 2 .73 2 1.597s-.915 1.6-2 1.6z"/></svg>