<svg xmlns="http://www.w3.org/2000/svg" viewBox="0 0 100 125"><path d="M32.28 56.833a.75.75 0 0 1-.75-.75V39.078a.75.75 0 0 1 1.5 0v17.005a.75.75 0 0 1-.75.75zM32.28 35.03a.75.75 0 0 1-.75-.75v-4.664a.75.75 0 0 1 1.5 0v4.663a.75.75 0 0 1-.75.75zM76.315 72.05h-9.44a.75.75 0 0 1-.75-.75V25.85c0-4.457 2.403-7.95 5.47-7.95 3.067 0 5.47 3.493 5.47 7.95V71.3c0 .414-.336.75-.75.75zm-8.69-1.5h7.94v-44.7c0-3.496-1.818-6.45-3.97-6.45s-3.97 2.954-3.97 6.45v44.7z"/><path d="M66.876 82.1h-39.94a.75.75 0 0 1-.75-.75v-55.5c0-4.457 2.402-7.95 5.468-7.95h39.94a.75.75 0 0 1 0 1.5c-1.974 0-3.704 2.502-3.938 5.694a.783.783 0 0 1-.03.163V81.35a.75.75 0 0 1-.75.75zm-39.19-1.5h38.44V25.04c0-.1.02-.192.053-.277.205-2.224 1.032-4.128 2.21-5.362H31.653c-2.15 0-3.968 2.954-3.968 6.45V80.6z"/><path d="M26.936 25.652h-7.654a.75.75 0 0 1 0-1.5h7.654a.75.75 0 0 1 0 1.5zM80.72 25.652H66.916a.75.75 0 0 1 0-1.5H80.72a.75.75 0 0 1 0 1.5z"/><text y="115" font-size="5" font-weight="bold" font-family="'Helvetica Neue', Helvetica, Arial-Unicode, Arial, Sans-serif">Created by Sergey Demushkin</text><text y="120" font-size="5" font-weight="bold" font-family="'Helvetica Neue', Helvetica, Arial-Unicode, Arial, Sans-serif">from the Noun Project</text></svg>