<svg xmlns="http://www.w3.org/2000/svg" viewBox="0 0 80 100"><path d="M45.5 39c-1.38 0-2.5-1.122-2.5-2.5s1.12-2.5 2.5-2.5 2.5 1.122 2.5 2.5-1.12 2.5-2.5 2.5zm0-3a.5.5 0 1 0 .002 1.002A.5.5 0 0 0 45.5 36z"/><circle cx="29" cy="35" r="2"/><path d="M36.5 35c-1.93 0-3.5-1.57-3.5-3.5s1.57-3.5 3.5-3.5 3.5 1.57 3.5 3.5-1.57 3.5-3.5 3.5zm0-5c-.827 0-1.5.673-1.5 1.5s.673 1.5 1.5 1.5 1.5-.673 1.5-1.5-.673-1.5-1.5-1.5zM55.33 59H27.67C23.44 59 20 55.56 20 51.33V45c0-1.654 1.346-3 3-3h37c1.654 0 3 1.346 3 3v6.33c0 4.23-3.44 7.67-7.67 7.67zM23 44a1 1 0 0 0-1 1v6.33A5.677 5.677 0 0 0 27.67 57h27.66A5.677 5.677 0 0 0 61 51.33V45a1 1 0 0 0-1-1H23z"/><path d="M61 43h-2V26.5c0-1.378-1.12-2.5-2.5-2.5S54 25.122 54 26.5h-2c0-2.48 2.02-4.5 4.5-4.5s4.5 2.02 4.5 4.5V43z"/><path d="M50 25h6v2h-6zM32.293 62.707L29 59.414l-3.293 3.293-1.414-1.414L29 56.586l4.707 4.707zM55.293 62.707L52 59.414l-3.293 3.293-1.414-1.414L52 56.586l4.707 4.707z"/><text y="95" font-size="5" font-weight="bold" font-family="'Helvetica Neue', Helvetica, Arial-Unicode, Arial, Sans-serif">Created by Golden Roof</text><text y="100" font-size="5" font-weight="bold" font-family="'Helvetica Neue', Helvetica, Arial-Unicode, Arial, Sans-serif">from the Noun Project</text></svg>