<svg xmlns="http://www.w3.org/2000/svg" xmlns:xlink="http://www.w3.org/1999/xlink" version="1.1" x="0px" y="0px" viewBox="0 0 100 125" enable-background="new 0 0 100 100" xml:space="preserve"><g><rect x="14.476" y="23.995" width="2.398" height="12.787"/><rect x="14.476" y="39.979" width="2.398" height="3.197"/><path d="M85.604,17.601h-1.753c-0.907-3.899-4.407-6.485-8.889-6.485L19.086,11.11c-5.519,0-9.086,3.06-9.086,7.795   v63.946h14.412v6.038h59.673V25.593h1.519c2.423,0,4.396-1.793,4.396-3.996S88.028,17.601,85.604,17.601z M19.086,13.508   l49.011,0.005c-1.381,1.339-2.153,3.183-2.153,5.392v46.897H12.398V18.905C12.398,13.897,17.517,13.508,19.086,13.508z    M65.944,71.13H12.398V68.2h53.547V71.13z M12.398,73.527h53.547v6.927H12.398V73.527z M81.688,86.492H26.81v-3.641h41.532V18.905   c0-5.003,5.068-5.391,6.621-5.391c3.098,0,5.553,1.609,6.4,4.087h-3.467c-0.847-0.563-1.836-0.879-2.865-0.879   c-2.864,0-5.195,2.33-5.195,5.195s2.33,5.195,5.195,5.195c1.393,0,2.701-0.547,3.67-1.518h2.988V86.492z M85.604,23.196h-8.791   v0.87c-0.497,0.414-1.121,0.648-1.783,0.648c-1.542,0-2.797-1.255-2.797-2.797s1.255-2.797,2.797-2.797   c0.655,0,1.282,0.235,1.783,0.652v0.227h8.791c1.083,0,1.998,0.732,1.998,1.598C87.602,22.464,86.688,23.196,85.604,23.196z"/></g></svg>
