<svg xmlns="http://www.w3.org/2000/svg" viewBox="0 0 80 100"><path d="M62 58H17V47c0-1.654 1.346-3 3-3h39c1.654 0 3 1.346 3 3v11zm-43-2h41v-9c0-.55-.45-1-1-1H20c-.55 0-1 .45-1 1v9z"/><path d="M53.892 33.542l5.134 10-1.78.914-5.133-10zM26.147 33.477l1.704 1.046-6.133 10-1.705-1.047zM37 39h-5c-1.103 0-2-.897-2-2v-4c0-1.103.897-2 2-2h5c1.103 0 2 .897 2 2v4c0 1.103-.897 2-2 2zm-5-6v4h5v-4h-5zM48 39h-5c-1.103 0-2-.897-2-2v-4c0-1.103.897-2 2-2h5c1.103 0 2 .897 2 2v4c0 1.103-.897 2-2 2zm-5-6v4h5v-4h-5z"/><path d="M38 33h3v2h-3z"/><path d="M54 35h-6v-2h4v-5.61c0-.766-.624-1.39-1.39-1.39H29.39c-.766 0-1.39.624-1.39 1.39V33h3v2h-5v-7.61c0-1.87 1.52-3.39 3.39-3.39h21.22c1.87 0 3.39 1.52 3.39 3.39V35z"/><text y="95" font-size="5" font-weight="bold" font-family="'Helvetica Neue', Helvetica, Arial-Unicode, Arial, Sans-serif">Created by Golden Roof</text><text y="100" font-size="5" font-weight="bold" font-family="'Helvetica Neue', Helvetica, Arial-Unicode, Arial, Sans-serif">from the Noun Project</text></svg>