<svg xmlns="http://www.w3.org/2000/svg" xmlns:xlink="http://www.w3.org/1999/xlink" version="1.1" x="0px" y="0px" viewBox="0 0 100 125" style="enable-background:new 0 0 100 100;" xml:space="preserve"><g><path d="M50.1,19.5c0.1,0,0.2,0,0.3,0c10.1,0,18.2,8.3,18.2,18.2c0,14-18.5,40.1-18.5,40.1S31.5,52.6,31.5,37.7   c0-9.9,8.1-18.2,18.2-18.2C49.8,19.5,49.9,19.5,50.1,19.5C50,19.5,50,19.5,50.1,19.5C50,19.5,50,19.5,50.1,19.5 M50,44.5   c4.6,0,8.3-3.7,8.3-8.3c0-4.6-3.7-8.3-8.3-8.3c-4.6,0-8.3,3.7-8.3,8.3C41.6,40.7,45.4,44.5,50,44.5 M50.1,15.8c0,0-0.1,0-0.1,0   c-0.1,0-0.2,0-0.3,0l-0.1,0c-12.1,0-21.9,9.8-21.9,21.9c0,16,18.5,41.3,19.3,42.3l3,4.1l3-4.2c0.8-1.1,19.2-27.3,19.2-42.3   c0-12.1-9.8-21.9-21.9-21.9C50.2,15.8,50.1,15.8,50.1,15.8L50.1,15.8z M50,40.7c-2.6,0-4.6-2.1-4.6-4.6c0-2.6,2.1-4.6,4.6-4.6   c2.6,0,4.6,2.1,4.6,4.6C54.6,38.7,52.5,40.7,50,40.7L50,40.7z"/></g><path d="M50,3.7c25.5,0,46.3,20.8,46.3,46.3S75.5,96.3,50,96.3S3.7,75.5,3.7,50S24.5,3.7,50,3.7 M50,0C22.4,0,0,22.4,0,50  c0,27.6,22.4,50,50,50c27.6,0,50-22.4,50-50C100,22.4,77.6,0,50,0L50,0z"/></svg>
