<svg xmlns="http://www.w3.org/2000/svg" viewBox="0 0 100 125"><path d="M50.1 19.5h.3c10.1 0 18.2 8.3 18.2 18.2 0 14-18.5 40.1-18.5 40.1S31.5 52.6 31.5 37.7c0-9.9 8.1-18.2 18.2-18.2h.4c-.1 0-.1 0 0 0-.1 0-.1 0 0 0m-.1 25c4.6 0 8.3-3.7 8.3-8.3 0-4.6-3.7-8.3-8.3-8.3-4.6 0-8.3 3.7-8.3 8.3-.1 4.5 3.7 8.3 8.3 8.3m.1-28.7h-.5c-12.1 0-21.9 9.8-21.9 21.9C27.7 53.7 46.2 79 47 80l3 4.1 3-4.2c.8-1.1 19.2-27.3 19.2-42.3 0-12.1-9.8-21.9-21.9-21.9-.1.1-.2.1-.2.1zM50 40.7c-2.6 0-4.6-2.1-4.6-4.6 0-2.6 2.1-4.6 4.6-4.6 2.6 0 4.6 2.1 4.6 4.6 0 2.6-2.1 4.6-4.6 4.6z"/><path d="M50 3.7c25.5 0 46.3 20.8 46.3 46.3S75.5 96.3 50 96.3 3.7 75.5 3.7 50 24.5 3.7 50 3.7M50 0C22.4 0 0 22.4 0 50s22.4 50 50 50 50-22.4 50-50S77.6 0 50 0z"/></svg>