<svg xmlns="http://www.w3.org/2000/svg" viewBox="0 0 100 125"><path d="M17.2 79.3c0 5.7-1.8 15.3 6.4 15.5 9.8.3 19.6 0 29.3 0 8.1 0 16.5.6 24.6 0 3.1-.2 5.1-2.2 5.6-5.2.1-.2.1-.4.1-.6v-.4-57c0-2.3.2-4.6 0-6.9-.4-3.9-3.3-5-6.5-5.3-1.2-7.9-12.4-13.9-26.4-13.9-14 0-25.1 6-26.5 13.8-1.8.1-3.5.4-4.8 1.7-2.1 2.1-1.7 5.3-1.7 8v14.2c-.1 12.1-.1 24.1-.1 36.1zM80 30.2V89c-.3 3.3-5.6 2.4-7.9 2.4H52V30.1v-7.4h19.2c2 0 4.4-.4 6.4 0 3.3.6 2.4 5.1 2.4 7.5zM50.3 8.9c11.5 0 21.4 4.7 23.1 10.5H27.3c1.6-5.9 11.4-10.5 23-10.5zM20.6 25.5c.4-3.2 3-2.8 5.4-2.8h22.5v68.6H26.6c-2.4 0-5.6.6-6.1-2.6-.3-2.4 0-5.1 0-7.6V48.9 33.5c.1-2.5-.2-5.4.1-8z"/><circle cx="41.8" cy="14.8" r="2"/><circle cx="50.3" cy="14.8" r="2"/><circle cx="58.8" cy="14.8" r="2"/></svg>
