<svg xmlns="http://www.w3.org/2000/svg" xmlns:xlink="http://www.w3.org/1999/xlink" version="1.1" x="0px" y="0px" viewBox="0 0 100 125" enable-background="new 0 0 100 100" xml:space="preserve"><g><path d="M-70,1010"/><path d="M32.401,430.427l31.115-31.107l-2.83-2.83l-31.111,31.111L32.401,430.427z M16.844,426.187l1.414,1.414l-7.072,21.213   l21.215-7.07l1.414,1.414l45.256-45.254l-16.969-16.973L16.844,426.187z M62.102,386.587l11.313,11.314l-39.604,39.598   L22.5,426.187L62.102,386.587z M18.118,441.886l3.469-10.418l6.945,6.945L18.118,441.886z M87.557,383.757l-11.314-11.314   c-2.826-2.826-5.654,0.002-5.654,0.002l-5.656,5.656l2.826,2.828l5.656-5.658l11.314,11.314l-5.656,5.656l2.828,2.828l5.656-5.656   C90.385,386.585,87.557,383.757,87.557,383.757z"/><path d="M281.883,758h16v-4h-16V758z M319.258,746H260.75L250,785.086l1.02,0.82c0.41,0.328,10.328,8.094,38.68,8.094h0.598   c28.355,0,38.277-7.77,38.684-8.098l1.02-0.816L319.258,746z M290.297,790h-0.598c-21.719,0-31.98-4.738-35.09-6.535L263.809,750   h52.383l9.195,33.465C322.27,785.262,312.004,790,290.297,790z"/><path d="M89.254,911.573c-0.605-1.992-1.883-6.135-7.527-9.148c-3.367-1.797-9.262-5.377-13.566-7.99   c-1.723-1.043-3.211-1.947-4.23-2.551c-3.934-2.33-13.098-5.701-19.383-5.701l-11.371,0.008c-0.352-0.027-8.313-0.377-14.887,5.855   c-5.5,5.217-8.289,13.342-8.289,24.146v3.938c0,5.494,4.461,9.775,9.949,9.775c4.773,0,8.762-4.074,9.723-8.074h32.473   c0.957,4,4.949,7.883,9.723,7.883s8.766-3.883,9.723-7.883H90v-1.619C90,919.575,89.98,913.925,89.254,911.573z M19.949,926.095   c-3.285,0-5.957-2.676-5.957-5.965c0-3.291,2.672-5.969,5.957-5.969s5.957,2.678,5.957,5.969   C25.906,923.419,23.234,926.095,19.949,926.095z M71.867,926.095c-3.281,0-5.953-2.676-5.953-5.965   c0-3.291,2.672-5.969,5.953-5.969c3.285,0,5.957,2.678,5.957,5.969C77.824,923.419,75.152,926.095,71.867,926.095z M81.625,917.831   c-0.898-4-4.926-8.053-9.758-8.053s-8.859,4.053-9.758,8.053H29.703c-0.895-4-4.922-7.863-9.754-7.863   c-2.16,0-4.148,0.807-5.781,1.986c0.598-7.545,2.871-13.412,6.82-17.182c5.281-5.053,11.906-4.941,12.078-4.941h11.48   c5.289,0,13.813,3.223,17.348,5.318c1.016,0.6,2.488,1.584,4.195,2.619c4.344,2.637,10.293,6.293,13.758,8.145   c4.191,2.234,5.066,4.92,5.594,6.623c0.305,0.99,0.469,5.295,0.531,5.295H81.625z M76.652,878.144   c8.168,0,13.348-7.113,13.348-14.025c0-0.045,0-0.09,0-0.135c0-6.846-5.213-13.889-13.346-13.889   c-7.887,0-13.334,6.576-13.529,6.855c-0.234,0.336-1.125,0.734-1.125,1.145v12.049c0,0.41,0.891,0.809,1.125,1.145   C63.32,871.565,68.766,878.144,76.652,878.144z M66,858.786c4-1.262,5.27-4.691,10-4.691c5.645,0,10,5.029,10,9.939   c0,0.033,0,0.068,0,0.102c0,4.918-4.318,10.008-9.998,10.008c-4.73,0-6.002-3.43-10.002-4.693V858.786z M44.195,869.831H58v-4   H45.898l-3.125-4H38l0,0h20v-4H34v8h7.07L44.195,869.831z"/><path d="M-35.56,865.206c-4.211-4.266-10.969-7.215-20.086-7.215h-14.363v28h-5.414l-27.602-27.859l-2.984,1.568v26.291h4v-21.463   l20.93,21.463h-4.809c-1.133,0-11.184-0.324-15.16,2.117c-0.254,0.156-0.523,0.234-0.813,0.387   c-4.059,2.188-8.023,5.496-8.023,21.496h0.07c-0.125,0-0.195,1.418-0.195,2.082c0,5.523,4.48,9.936,10.008,9.936   c4.824,0,8.852-4.018,9.797-8.018h32.445c0.949,4,4.977,7.953,9.797,7.953c4.824,0,8.852-3.953,9.797-7.953h8.156v-26.229   l-0.004-2.248C-29.927,879.565-29.829,871.022-35.56,865.206z M-100.001,918.22c-3.313,0-6.004-2.691-6.004-6s2.691-6,6.004-6   s6.004,2.691,6.004,6S-96.688,918.22-100.001,918.22z M-47.962,918.22c-3.309,0-6.004-2.691-6.004-6s2.695-6,6.004-6   c3.313,0,6.008,2.691,6.008,6S-44.649,918.22-47.962,918.22z M-34.032,885.71l-0.02,24.281h-4.098c-0.91-4-4.953-8.047-9.813-8.047   s-8.898,4.047-9.813,8.047h-32.414c-0.91-4-4.953-7.91-9.813-7.91c-2.082,0-4.012,0.703-5.609,1.789   c0.848-9.078,3.563-10.541,5.648-11.662c0.355-0.191,0.691-0.512,1.008-0.707c2.215-1.355,9.063-1.51,12.965-1.51h19.98v-28h10.363   c8.008,0,13.805,2.479,17.23,5.955C-33.856,872.567-33.958,880.468-34.032,885.71z"/><path d="M398,430h24v-4h-24V430z M398,438h24v-4h-24V438z M390,446h40v-40h-40V446z M394,410h32v32h-32V410z M430,394v-20h-40v20   h-12v22.268c0,3.139,0,8.764,8,9.787v-4.053c-4-1.031-4-4.877-4-5.734V398h56v18.203c0,0.867,0,4.715-4,5.746v4.053   c8-1.023,8-6.648,8-9.787V394H430z M426,394h-32v-16h32V394z M398,422h24v-4h-24V422z"/><g><path d="M770.091,430l28-28h-12.182v-24h-32v24h-11.818L770.091,430z M757.909,406v-24h24v24h6.525l-18.344,18.344L751.747,406    H757.909z"/><polygon points="775.747,430 793.909,430 793.909,438 745.909,438 745.909,430 764.435,430 760.435,426 741.909,426 741.909,442     797.909,442 797.909,426 779.747,426   "/></g><path d="M528,1031.845h4v-4h-4V1031.845z M527.949,1024.155h4v-24h-4V1024.155z M563.465,1033.847l-30-52   c-0.715-1.238-2.035-2.002-3.465-2.002s-2.75,0.764-3.465,2.002l-30,52c-0.715,1.236-0.715,2.918,0,4.152   c0.715,1.238,2.035,2.156,3.465,2.156h60c1.43,0,2.75-0.918,3.465-2.156C564.18,1036.765,564.18,1035.083,563.465,1033.847z    M500,1036.155l30-52l30,52H500z"/><path d="M134.191,518h-0.008l0,0H130v32h4v-0.203L147.191,542H150v-4h-3.934L134,545.105v-22.602L146.102,530H150v-4h-2.773   L134.191,518z M202.184,514H166v-4h16v-4h-17.816c-1.105,0-2.184,0.711-2.184,1.816V514h-8v31.816c0,5.195,4.305,8.184,8.184,8.184   H210v-32.184C210,516.621,206.063,514,202.184,514z M206,550h-43.816c0,0-4.184-0.184-4.184-4.184S158,518,158,518h44.184   c0,0,3.816-0.184,3.816,3.816S206,550,206,550z M162,542h20v-4h-20V542z"/><path d="M1004,401.941h-8v4h8V401.941z M1004,389.941h-8v4h8V389.941z M1012,378h-28v64h52v-40.059L1012,378z M1016,387.598   L1026.344,398H1016V387.598z M1032,438h-44v-56h24v20h20V438z M996,430h28v-4h-28V430z M996,418h28v-4h-28V418z"/><path d="M550.184,525.941c4.422,0,8-3.582,8-8s-3.578-8-8-8s-8,3.582-8,8S545.762,525.941,550.184,525.941z M550.184,513.941   c2.207,0,4,1.793,4,4c0,2.203-1.793,4-4,4s-4-1.797-4-4C546.184,515.734,547.977,513.941,550.184,513.941z M494,502v56h72v-56H494z    M562,554h-64v-48h64V554z M531.52,550h5.523l-20.098-21.131l-2.762-2.912l-2.854,2.891l-9.33,9.691v5.801l12.092-12.572   L531.52,550z M530.184,523.768L551.332,546h5.523l-23.906-25.131l-2.766-2.912l-2.758,2.891l-6.352,6.664l2.762,2.91   L530.184,523.768z"/><path d="M22,562h56v-4H22V562z M46.182,546h8c0.719,0,2.688-1.18,3.734-2.223c0.297-0.301,1.031-0.988,2.035-1.777h-19.52   c0.66,0.516,1.324,1.09,1.984,1.75C43.494,544.82,45.467,546,46.182,546z M14,498v48h16.158c0.133,0.004,3.305,0.113,6.609,3.414   c0.469,0.469,4.719,4.586,9.414,4.586h8c4.695,0,8.945-4.117,9.422-4.594c0.941-0.949,3.953-3.406,6.578-3.406H86v-48H14z M82,542   H70.182c-3.906,0-7.398,2.75-8.789,4c-0.305,0.273-0.543,0.5-0.625,0.582C59.814,547.535,56.76,550,54.182,550h-8   c-2.578,0-5.633-2.465-6.586-3.414c-0.219-0.223-0.441-0.387-0.664-0.586c-4.313-3.906-8.563-4-8.75-4H18v-40h64V542z"/><path d="M-42,526h-16v4h16V526z M-57.818,510c-1.566,0-4.02-1.787-5.184-2.932l-3.988-3.943C-72.014,498.098-77.24,498-77.818,498   H-102v4h24.182c0,0,4-0.092,8,3.908s4,4.045,4,4.045s4,4.047,8,4.047S-34,514-34,514v-4H-57.818z M-67.002,515.068l-3.988-3.943   C-76.018,506.098-81.24,506-81.818,506H-106v56h72v-44h-27.818C-63.385,518-65.838,516.213-67.002,515.068z M-38,558h-64v-48   h20.182c0,0,4-0.092,8,3.908s4,4.045,4,4.045s4,4.047,8,4.047S-38,522-38,522V558z"/><g><g><path d="M751.078,278H742v24h10.563l17.133,16H774v-56h-5.797L751.078,278z M770,312.813L754.141,298H746v-16h6.652L770,265.797     V312.813z M794,266v48h4v-48H794z M778,298h4v-16h-4V298z M786,306h4v-32h-4V306z"/></g></g><path d="M674.043,268.75l-2.828-2.828l-21.211,21.211l-21.215-21.215l-2.828,2.828l21.215,21.215l-21.219,21.215l2.828,2.828   l21.219-21.215l21.211,21.215l2.828-2.828l-21.211-21.215L674.043,268.75z M662,265.801v3.969l4-4V262h-5.754l-15.387,14.377   l2.811,2.83L662,265.801z M662,312.816l-13.463-12.594l-2.818,2.826L661.738,318H666v-3.473l-4-4V312.816z M666,297.559v-14.82   l-4,4v6.82L666,297.559z M634,282.527v15.242l4-4v-7.242L634,282.527z"/><path d="M538.129,270c-4.41,0-7.064,3.586-7.064,8s0.936,8,8.936,8v16c0,2.207-3.668,4-5.871,4H532v4h2.129   c4.414,0,9.871-3.582,9.871-8v-17.113c0-1.387,3.064-3.938,3.064-6.887C547.064,273.586,542.539,270,538.129,270z M538.129,282   c-2.207,0-4-1.797-4-4s1.793-4,4-4s4,1.797,4,4S540.336,282,538.129,282z M542.129,258h-28C507.5,258,504,263.375,504,270v28h8v16   c0,4.414,1.711,8,6.129,8H536v-4h-17.871c-2.207,0-2.129-1.797-2.129-4v-4c4,0,10.129-5.375,10.129-12h-4c0,4.406-2.129,8-6.129,8   v-12h-8v-24c0-4.406,1.719-8,6.129-8h28c4.406,0,9.871,3.59,9.871,8v52h4v-52C556,263.371,548.754,258,542.129,258z M514.129,282h4   v-8h-4V282z"/><path d="M-82,406v28h4v-28H-82z M-50,442h-40v-40h-4v40.066c0,2.207,2.283,3.934,4.432,3.934h38.563   c2.148,0,5.006-1.727,5.006-3.934V402h-4V442z M-63.615,374h-12.969c-2.375,0-4.418,0-5.391,4h23.75   C-59.193,374-61.232,374-63.615,374z M-46.08,382h-48.41c-2.148,0-3.51,1.875-3.51,4.082v7.984c0,2.207,1.361,3.934,3.51,3.934   h48.41c2.148,0,4.08-1.727,4.08-3.934v-7.984C-42,383.875-43.932,382-46.08,382z M-46.189,394h-48.191l-0.008-8h48.207L-46.189,394   z M-62,406v28h4v-28H-62z M-74,406v28h4v-28H-74z"/><path d="M556.699,391.785l-2.828-2.828l-2.227,2.23l2.828,2.828L556.699,391.785z M551.043,386.129l-2.828-2.828l-2.227,2.23   l2.828,2.828L551.043,386.129z M567.895,390.887l-18.781-18.781l-16.641,16.641l-5.402-5.402l-33.793,33.793   c-1.563,1.559-1.563,4.098,0,5.656l23.93,23.93c1.563,1.563,4.098,1.563,5.656,0l33.797-33.793l-5.406-5.406L567.895,390.887z    M549.113,377.762l13.121,13.125l-13.809,13.809l-13.125-13.121L549.113,377.762z M520.035,443.895l-23.93-23.93L527.07,389   l23.934,23.93L520.035,443.895l0.004,0.004"/><g><path d="M878,1050h7.184l11.973-16h25.016c4.402,0,7.828-3.689,7.828-8.115v-48.168c0-4.426-3.426-7.717-7.828-7.717h-64.039    c-4.404,0-8.133,3.291-8.133,7.717v48.168c0,4.426,3.729,8.115,8.133,8.115H878V1050z M926,1025.885    c0,2.219-1.621,4.115-3.828,4.115h-26.668L882,1045.674V1030h-23.867c-2.207,0-4.133-1.896-4.133-4.115v-48.168    c0-2.219,1.926-3.717,4.133-3.717h64.039c2.207,0,3.828,1.498,3.828,3.717V1025.885z"/></g><path d="M768.152,1019.672h4v-4h-4V1019.672z M802.172,970h-64.039c-4.406,0-8.133,3.291-8.133,7.717v48.168   c0,4.426,3.727,8.115,8.133,8.115H758v16h7.184l11.973-16h25.016c4.402,0,7.828-3.689,7.828-8.115v-48.168   C810,973.291,806.574,970,802.172,970z M806,1025.885c0,2.219-1.625,4.115-3.828,4.115h-26.668L762,1045.674V1030h-23.867   c-2.207,0-4.133-1.896-4.133-4.115v-48.168c0-2.219,1.926-3.717,4.133-3.717h64.039c2.203,0,3.828,1.498,3.828,3.717V1025.885z    M771.076,983.672c-7.91,0-9.076,6.541-9.076,10v1.988l3.053,0.012l-0.439-1.988c0.012-1.004,0.125-6.012,5.77-6.012   s5.873,5.008,5.885,5.979c-0.004,0.133,0.754,3.305-2.547,6.607c-4.535,4.533-3.721,9.217-3.721,9.414v1.977l3.029,0.021   l-0.416-1.977c0.004-0.133-0.117-3.305,3.184-6.607c4.535-4.533,4.934-9.217,4.934-9.414   C780.73,990.213,778.986,983.672,771.076,983.672z"/><path d="M34.16,982.504v44.152c0-0.293-1.537-0.461-2.514-0.461c-2.875,0-6.104,1.273-8.979,3.723   c-5.016,4.273-6.662,10.512-3.74,13.93c1.242,1.465,3.156,2.176,5.305,2.176c2.875,0,6.225-0.357,9.1-2.807   c3.344-2.855,5.176-8.84,5.184-8.84H38.16v-28.521l36-6.457v-4.063l-36,6.453v-15.934l40-7.105v39.508   c0-0.293-1.537-0.461-2.514-0.461c-2.875,0-6.104,1.273-8.979,3.723c-5.016,4.273-6.662,10.512-3.74,13.93   c1.242,1.465,3.156,2.176,5.305,2.176c2.875,0,6.225-2.268,9.1-4.717c3.266-2.789,5.105-6.531,5.184-10.531H82.16v-48.4   L34.16,982.504z M34.555,1032.543c-0.008,0.57-0.125,1.109-0.211,1.422c-0.492,1.836-1.813,3.766-3.602,5.293   c-2.031,1.73-4.453,2.766-6.484,2.766c-0.594,0-1.664-0.098-2.242-0.773c-0.461-0.539-0.5-1.34-0.453-1.918   c0.125-1.625,1.195-4.148,3.805-6.371c2.023-1.73,4.453-2.766,6.477-2.766c0.594,0,1.672,0.102,2.242,0.77   c0.367,0.43,0.469,1.016,0.469,1.574V1032.543z M78.16,1024.18c0,0.559,0.072,1.082-0.014,1.387   c-0.492,1.836-1.713,3.766-3.502,5.293c-2.031,1.73-4.404,2.766-6.436,2.766c-0.594,0-1.641-0.098-2.219-0.773   c-0.461-0.539-0.486-1.34-0.439-1.918c0.125-1.625,1.201-4.148,3.811-6.371c2.023-1.73,4.455-2.766,6.479-2.766   c0.594,0,1.477,0.102,2.047,0.77c0.367,0.43,0.273,1.016,0.273,1.574V1024.18z"/><g><path d="M169.891,1021.529c-3.316,0-6,2.688-6,6s2.684,6,6,6c3.313,0,6-2.688,6-6S173.203,1021.529,169.891,1021.529z     M169.891,1029.529c-1.105,0-2-0.896-2-2s0.895-2,2-2c1.102,0,2,0.896,2,2S170.992,1029.529,169.891,1029.529z M189.82,970    h-39.863c-3.879,0-7.957,2.334-7.957,7.529v64c0,3.879,2.762,8.471,7.957,8.471h39.863c3.879,0,8.18-3.275,8.18-8.471v-64    C198,973.65,195.016,970,189.82,970z M194,1041.529c0,4-4.18,4.471-4.18,4.471s-35.863,0-39.863,0s-3.957-4.471-3.957-4.471    s0-60,0-64s3.957-3.529,3.957-3.529s35.863,0,39.863,0s4.18,3.529,4.18,3.529S194,1037.529,194,1041.529z M169.891,1013.529    c-7.734,0-14,6.273-14,14c0,7.734,6.266,14,14,14c7.73,0,14-6.266,14-14C183.891,1019.803,177.621,1013.529,169.891,1013.529z     M169.891,1037.529c-5.516,0-10-4.486-10-10s4.484-10,10-10c5.512,0,10,4.486,10,10S175.402,1037.529,169.891,1037.529z M150,1010    h40v-32h-40V1010z M154,982h32v24h-32V982z"/></g><path d="M301.188,1022.479c5.313-3.598,8.813-9.684,8.813-16.57c0-11.027-8.969-20-20-20c-11.023,0-20,8.973-20,20   c0,6.887,3.5,12.973,8.813,16.57l-1.234-6.605c-2.203-2.738-3.578-6.176-3.578-9.965c0-8.844,7.164-16,16-16s16,7.156,16,16   c0,3.789-1.375,7.227-3.578,9.965L301.188,1022.479z M282,1018.235l6,32h4l6-32H282z M290,969.765c-19.852,0-36,16.148-36,36   c0,17.195,12.125,31.594,28.273,35.141l-0.813-4.328c-13.523-3.742-23.461-16.102-23.461-30.813c0-17.676,14.328-32,32-32   s32,14.324,32,32c0,14.711-9.938,27.07-23.453,30.813l-0.813,4.328c16.141-3.547,28.266-17.945,28.266-35.141   C326,985.913,309.852,969.765,290,969.765z M284,1005.843c0,3.314,2.688,6,6,6s6-2.686,6-6s-2.688-6-6-6S284,1002.528,284,1005.843   z"/><path d="M1001.631,563.852c-11.031,0-20.223-8.973-20.223-20c0-6.859,4.539-12.922,8.539-16.523v-4.676   c-8,4.035-12.539,12.012-12.539,21.199c0,13.254,10.855,24,24.113,24c10.047,0,18.703-6.188,22.273-14.953l-2.52-5.828   C1019.721,556.563,1011.553,563.852,1001.631,563.852z M1041.373,553.617l-7.445,2.729l-9.93-22.387h-26.051v-12h20v-4h-20v-9.154   c4-0.832,6.844-4.199,6.844-8.227c0-4.648-3.668-8.43-8.316-8.43s-8.598,3.781-8.598,8.43c0,3.883,2.07,7.129,6.07,8.102v29.279   h27.434l10.328,23.293l10.883-3.648L1041.373,553.617z M992.154,500.578c0-2.441,1.984-4.43,4.43-4.43   c2.438,0,4.43,1.988,4.43,4.43s-1.992,4.43-4.43,4.43C994.139,505.008,992.154,503.02,992.154,500.578z"/><path d="M398,312.008V296h-8v-28c0-3.766,4-5.148,4-5.672v-4.098c-4,0.68-8,3.207-8,9.77v32h8v12c0,0.32,0.096,3.637,1.775,5.348   c0.742,0.754,2.15,2.652,4.354,2.652H418v-4h-17.871C398.496,316,398,312.918,398,312.008z M386,320.008V304h-8v-28   c0-3.766,4-5.148,4-5.672v-4.098c-4,0.68-8,3.207-8,9.77v32h8v12c0,0.32,0.096,3.637,1.775,5.348   c0.742,0.754,2.15,2.652,4.354,2.652H406v-4h-17.871C386.496,324,386,320.918,386,320.008z M414,276v-8h-4v8H414z M436.129,252   h-27.992c-3.461,0-10.137,0.09-10.137,8v32h8v12c0,0.32,0.096,3.637,1.775,5.348c0.742,0.754,2.15,2.652,4.354,2.652H430v-4   h-17.871c-1.633,0-2.129-3.082-2.129-3.992v-4.805l10.15-5.043l-1.822-3.578L410,294.73V288h-8v-28c0-5.645,5.145-4,6.145-4h27.273   c5.648,0,6.582,3.008,6.582,4.012V312h4v-52C446,256.543,444.043,252,436.129,252z"/><path d="M1015.625,10.461C1013.789,10.184,1011.922,10,1010,10c-22.094,0-40,17.906-40,40s17.906,40,40,40   c12.773,0,24.031-6.059,31.336-15.383l-2.75-1.379l-0.875-0.438C1031.117,80.832,1021.18,86,1010,86c-19.852,0-36-16.148-36-36   s16.148-36,36-36c1.445,0,2.867,0.102,4.258,0.281L1015.625,10.461z M1027.141,13.898c-1.203-0.57-2.43-1.082-3.695-1.535   l-1.352,3.77L1010,50l35.75,17.875c0.594-1.191,1.133-2.414,1.609-3.672c1.68-4.418,2.641-9.191,2.641-14.203   C1050,34.051,1040.648,20.324,1027.141,13.898z M1043.75,62.402l-28.789-14.395l10.828-30.313C1037.734,23.559,1046,35.816,1046,50   C1046,54.363,1045.18,58.531,1043.75,62.402z"/><g><path d="M532.501,765.327c0-5.695-4.617-10.313-10.313-10.313s-10.313,4.617-10.313,10.313s4.617,10.313,10.313,10.313    S532.501,771.022,532.501,765.327z M522.188,771.64c-3.477,0-6.313-2.828-6.313-6.313c0-3.477,2.836-6.313,6.313-6.313    c3.484,0,6.313,2.836,6.313,6.313C528.501,768.812,525.673,771.64,522.188,771.64z"/><path d="M567.36,787.116l-0.977-4.453l-4.563-20.75l-0.32-1.453c-0.031-0.195-3.516-20.273-26.281-24.93    c-23.094-4.711-39.234,11.547-42,25.102c-1.648,8.047-0.781,17.313,2.563,27.531l0.195,0.609c0.516,1.93,2.391,3.398,2.766,3.672    l61.414,12.742c2.313,0.469,6.086-0.391,6.969-4.703C567.97,796.351,567.423,787.772,567.36,787.116z M563.204,799.687    c-0.32,1.57-1.406,1.719-2.266,1.578l-60.117-12.281c-0.453-0.406-0.898-0.938-0.984-1.242c-0.039-0.156-0.125-0.43-0.258-0.82    c-3.125-9.555-3.945-18.133-2.445-25.484c2.438-11.914,16.742-26.75,37.281-22.555c12.578,2.57,18.438,11.117,21.094,15.117    h-23.344c1.18,4,2.156,4,2.883,4h22.023c0.336,4,0.477,2.484,0.508,2.641l4.734,21.59l0.117,0.855l0.781,3.633    c-19.414,3.145-29-4.301-33.148-9.441c-1.133,0.742-2.344,1.344-3.617,1.734c3.883,5.051,12.273,12.527,28.117,12.527    c2.742,0,5.781-0.301,8.984-0.801C563.634,793.69,563.634,797.585,563.204,799.687z"/></g><path d="M1049.947,663.072c-0.059,0-0.242-4.094-0.648-6.063c-0.855-4.125-2.789-7.648-7.301-9.906   c-3.047-1.016-5.844-2.516-8.641-4.219c1.672-2.91,3.23-5.887,4.742-9.215c0.988-2.172,2.523-3.766,6.383-4.68l-0.117-4.16   c-4.117,0.852-7.707,2.791-9.961,7.297c-1.031,3.094-2.582,5.785-4.313,8.613c-7.223-4.582-15.129-9.668-28.07-9.668h-7.996   c-14.609,0-22.531,10.375-23.789,24.148c-0.363,4.273-0.203,10.047-0.203,10.047c0,5.523,4.473,9.902,10,9.902   c4.836,0,8.863-4.098,9.789-8.098h32.395c0.926,4,4.957,8,9.789,8s8.867-4,9.789-8h8.207v-4H1049.947z M980.033,671.334   c-3.305,0-6.004-2.695-6.004-6c0-3.313,2.699-6,6.004-6c3.309,0,6,2.688,6,6C986.033,668.639,983.342,671.334,980.033,671.334z    M1032.006,671.334c-3.305,0-5.996-2.695-5.996-6c0-3.313,2.691-6,5.996-6s5.996,2.688,5.996,6   C1038.002,668.639,1035.311,671.334,1032.006,671.334z M1041.795,663.072c-0.922-4-4.957-8-9.789-8s-8.863,4-9.789,8h-32.395   c-0.926-4-4.953-7.867-9.789-7.867c-2.188,0-4.195,0.789-5.848,1.977l0.523-4.949c1.445-7.453,5.895-17.16,19.316-17.16h7.996   c11.879,0,19.109,4.719,26.098,9.156c0.199,0.125,0.418,0.289,0.617,0.414c3.656,2.273,7.438,4.246,11.711,6.191   c2.164,0.992,3.762,2.406,4.676,6.273c0.391,1.594,0.664,1.965,0.789,5.965H1041.795z"/><path d="M651.422,866.672h6v-4h-6V866.672z M646,872.504v-7.176h-4v8h-8v-16h8v4h4v-8h-2.82l0,0h-8l0,0H630v19.176   c-4,0-4,2.695-4,6v44c0,3.313,1.867,6.824,5.18,6.824h16c3.305,0,6.82-3.512,6.82-6.824v-44C654,875.199,650,872.504,646,872.504z    M650,923.328c0,1.105-0.895,2-2,2h-16c-1.105,0-2-0.895-2-2v-44c0-1.105,0.895-2,2-2h16c1.105,0,2,0.895,2,2V923.328z    M662,874.672l12,4v-4l-12-4V874.672z M662,854.672v4l12-4v-4L662,854.672z M662,865.328h12v-4h-12V865.328z"/><path d="M647.624,414.871l-3.984-3.844C638.608,406,633.39,406,632.812,406h-17.994v44h64v-32h-26.006   C651.241,418,648.788,416.016,647.624,414.871z M674.817,446h-56v-36h13.994c0,0,4-0.289,8,3.711s4,4.145,4,4.145s4,4.145,8,4.145   s22.006,0,22.006,0V446z M685.183,390h-10.365v-20h-20v20h-9.893l20.125,20.361L685.183,390z M658.817,394v-20h12v20h4.725   c-4.152,4-8.359,8.467-10.492,10.641c-2.129-2.174-6.328-6.641-10.48-10.641H658.817z"/><g><path d="M448.133,777.262l1.867-0.719c-0.211-0.547-5.277-13.547-15.969-24.242l-6.012-6.008    c-10.695-10.695-23.695-15.758-24.242-15.969l-0.727,1.891l-2.348,2.336l44.949,45.18L448.133,777.262z M409.227,737.41    c4.535,2.484,10.586,6.367,15.949,11.727l6.008,6.008c5.5,5.5,9.457,11.75,11.934,16.328L409.227,737.41z"/><path d="M412.703,757.629c-17.203-17.203-38.098-25.352-38.977-25.688l-0.852,2.211l-0.035-0.031l-2.84,2.852l72.828,72.703    l2.023-2.031l3.309-1.273c-0.336-0.875-8.48-21.766-25.684-38.977L412.703,757.629z M376.07,737.348    c4.129,1.906,11.18,5.508,18.852,10.805l-3.992,4.031L376.07,737.348z M442.656,803.824l-14.652-14.633l3.961-4    C437.172,792.746,440.727,799.676,442.656,803.824z M425.156,786.355l-31.383-31.328l4.461-4.5    c3.898,2.891,7.867,6.188,11.625,9.945l9.773,9.766c3.762,3.766,7.063,7.734,9.957,11.641L425.156,786.355z"/></g><g><path d="M890.115,756.832c0,0.688-0.094-2-0.203,2h8.066c1.105,0,2-0.895,2-2s-0.895-2-2-2h-8.066    C890.021,754.832,890.115,756.145,890.115,756.832z M881.986,755.418c0,0,0-4.324-4-4.324c-3.996,0-3.996,4-3.996,4v4h7.996    V755.418z M887.842,748.063l5.695-5.695c0.781-0.781,0.781-2.047,0-2.828s-2.047-0.781-2.828,0l-5.691,5.695    c0.543,0.391,1.07,0.809,1.543,1.281C887.037,746.988,887.451,747.52,887.842,748.063z M878.002,743.164v-8.07    c0-1.105-0.896-2-2.002-2s-1.998,0.895-1.998,2v8.07c4-0.109,1.311-0.203,1.998-0.203S878.002,743.055,878.002,743.164z     M929.947,794.832c-0.184-8-1.281-12.828-7.945-16.156c-11.992-4-19.988-15.844-39.98-15.844h-7.996    c-14.613,0-22.531,10.35-23.789,24.123c-0.363,4.266-0.203,10.025-0.203,10.025c0,5.523,4.477,9.926,9.996,9.926    c4.836,0,8.867-4.074,9.793-8.074h32.395c0.926,4,4.957,8,9.793,8c4.832,0,8.867-4,9.793-8h8.199v-4H929.947z M860.029,803.031    c-3.305,0-5.996-2.688-5.996-6c0-3.305,2.691-6,5.996-6c3.309,0,6,2.695,6,6C866.029,800.344,863.338,803.031,860.029,803.031z     M912.01,803.031c-3.309,0-6-2.688-6-6c0-3.305,2.691-6,6-6c3.305,0,5.996,2.695,5.996,6    C918.006,800.344,915.314,803.031,912.01,803.031z M921.803,794.832c-0.926-4-4.961-8-9.793-8c-4.836,0-8.867,4-9.793,8h-32.395    c-0.926-4-4.957-7.9-9.793-7.9c-2.188,0-4.195,0.775-5.844,1.971l0.527-4.934c1.438-7.453,5.887-17.137,19.313-17.137h7.996    c11.879,0,19.109,4.693,26.098,9.123c3.844,2.438,7.824,4.412,12.332,6.467c3.059,1.391,5.023,4.41,5.457,12.41H921.803z     M868.131,748.063c0.391-0.547,0.805-1.074,1.281-1.547c0.473-0.477,1-0.891,1.547-1.281l-5.691-5.695    c-0.781-0.781-2.047-0.781-2.828,0s-0.781,2.047,0,2.828L868.131,748.063z M857.998,758.832h8.063c-0.109-4-0.199-1.313-0.199-2    s0.09-2,0.199-2h-8.063c-1.105,0-2,0.895-2,2S856.893,758.832,857.998,758.832z"/></g><path d="M854,86h16V58h-16V86z M858,62h8v20h-8V62z M910,14v72h16V14H910z M922,82h-8V18h8V82z M882,86h16V34h-16V86z M886,38h8v44   h-8V38z"/><g><path d="M645.285,773.887c-0.855-4.125-2.785-7.646-7.293-9.904c-3.047-1.016-5.84-2.518-8.637-4.221l-3.27-2.025    c-4.672-2.969-9.66-6.051-16.086-7.887v4.172c5.465,1.742,9.84,4.5,14.113,7.215c0.199,0.125,0.418,0.227,0.617,0.352    c3.66,2.273,7.441,4.215,11.711,6.156c2.164,0.992,3.766,2.393,4.68,6.26c0.379,1.594,0.652,1.947,0.777,5.947h-4.105    c-0.926-4-4.957-8-9.789-8s-8.867,4-9.789,8H610v4h8.215c0.922,4,4.957,8,9.789,8s8.863-4,9.789-8H646v-4h-0.066    C645.875,779.951,645.691,775.859,645.285,773.887z M628.004,788.213c-3.309,0-5.996-2.695-5.996-6c0-3.313,2.688-6,5.996-6    c3.305,0,5.992,2.688,5.992,6C633.996,785.518,631.309,788.213,628.004,788.213z"/><polygon points="645.25,759.154 640.883,752.154 637.496,754.271 641.859,761.271   "/><polygon points="659.117,752.154 654.75,759.154 658.141,761.271 662.504,754.271   "/><path d="M685.977,751.951H690v-4h-4.023c-14.605,0-22.523,10.373-23.781,24.146c-0.359,4.273-0.199,10.049-0.199,10.049    c0,5.523,4.473,9.902,9.988,9.902c4.836,0,8.867-4.098,9.789-8.098H690v-4h-8.227c-0.922-4-4.953-7.869-9.789-7.869    c-2.188,0-4.195,0.791-5.84,1.979l0.527-4.949C668.105,761.658,672.555,751.951,685.977,751.951z M671.984,776.213    c3.309,0,5.996,2.688,5.996,6c0,3.305-2.688,6-5.996,6c-3.305,0-5.992-2.695-5.992-6    C665.992,778.9,668.68,776.213,671.984,776.213z"/><rect x="646" y="751.951" width="4" height="8"/></g><path d="M282,286v-8h-4v8H282z M304.129,258h-27.996c-3.457,0-10.133,4.035-10.133,11.945V302h8v11.945   c0,0.32,0.096,1.664,1.775,3.375c0.742,0.754,2.15,0.68,4.354,0.68H298v-4h-17.871c-1.637,0-2.129,0.863-2.129-0.047v-4.805   l10.15-5.043l-1.822-3.578L278,304.676V298h-8v-28.055c0-5.645,5.141-7.945,6.145-7.945h27.273c5.645,0,6.582,6.953,6.582,7.957   V322h4v-52.055C314,266.488,312.039,258,304.129,258z"/><path d="M196.297,896.885h-11.508l-5.75,9.996l5.75,10.004h11.508l5.75-10.004L196.297,896.885z M193.984,912.885h-6.891   l-3.438-6.004l3.438-5.996h6.891l3.445,5.996L193.984,912.885z M161.953,851.178v17.707h-8v-17.707c-12,0-16,8-16,16s4,12,12,16   v37.707h0.113c0,4,3.559,7.938,7.938,7.938c4.387,0,7.938-3.938,7.938-7.938h0.012v-37.707c8-4,12-8,12-16   S169.953,851.178,161.953,851.178z M164.176,879.6l-2.223,1.102v38.477h0.008c0,2.188-1.779,3.969-3.963,3.969   s-4.006-1.781-4.006-3.969h-0.039v-38.477l-2.172-1.102c-7.5-3.75-9.809-6.656-9.809-12.422c0-4.641-0.02-10.039,7.98-11.578   v17.285h16v-16.809c4,1.922,8.006,6.609,8.006,11.102C173.959,872.943,171.676,875.85,164.176,879.6z"/><path d="M648,1018h4v-28h-4V1018z M682.172,970h-64.039c-4.404,0-8.133,3.291-8.133,7.717v48.168c0,4.426,3.729,8.115,8.133,8.115   H638v16h7.186l11.971-16h25.016c4.404,0,7.828-3.689,7.828-8.115v-48.168C690,973.291,686.576,970,682.172,970z M686,1025.689   c0,2.219-1.623,4.311-3.828,4.311h-26.668L642,1045.674V1030h-23.867c-2.205,0-4.133-2.092-4.133-4.311v-47.973   c0-2.219,1.928-3.717,4.133-3.717h64.039c2.205,0,3.828,1.498,3.828,3.717V1025.689z M648,987.773h4v-4h-4V987.773z"/><path d="M-84,134h-4v68h-8v4h20v-4h-8V134z M-49.918,146.383c-3,0-7.457-1-11.457-5s-8.313-5-12.313-5s-6.313,1-6.313,1v4   c0-0.121,4.969-1,6.082-1c4.207,0,7.168,1.289,9.715,3.828c5.102,5.102,11.023,6.172,14.516,6.172c0.344,0-2.313-0.008,1.688-0.031   v19.977c-4,0.035-1.563,0.055-1.918,0.055c-2.883,0-6.09-1.289-8.629-3.828c-4.039-4.039-8.824-6.172-15.141-6.172   c-1.074,0-6.313,0.848-6.313,0.941v4.059c0,0,2.082-1,6.082-1s8.543,1,12.543,5s8.688,5,11.688,5s5.688-1,5.688-1v-28   C-44,145.383-46.918,146.383-49.918,146.383z"/><path d="M970,772.362h11.352c0.129,0,0.328-4,0.578-4H970V772.362z M989.141,754.339c0.797-0.758,1.617-1.977,2.445-1.977H970v4   h17.258C987.844,756.362,988.469,754.972,989.141,754.339z M1049.383,773.288c-0.5-1.645-1.551-5.063-6.219-7.555   c-2.688-1.43-7.395-4.281-10.836-6.367c-1.383-0.84-2.586-1.736-3.402-2.221c-3.188-1.883-10.621-4.783-15.73-4.783h-9.086   c-0.273,0-6.393-0.133-11.783,4.969c-4.484,4.25-6.326,11.012-6.326,19.762v3.148c0,4.617,3.318,7.396,7.936,7.396   c3.898,0,6.717-3.275,7.643-7.275h25.418c0.93,4,4.184,6.301,8.082,6.301c3.895,0,7.148-2.301,8.078-6.301H1050v-0.051   C1050,779.472,1049.969,775.179,1049.383,773.288z M993.5,784.612c-2.41,0-4.371-1.961-4.371-4.371   c0-2.406,1.961-4.367,4.371-4.367c2.406,0,4.367,1.961,4.367,4.367C997.867,782.651,995.906,784.612,993.5,784.612z    M1035.078,784.612c-2.41,0-4.371-1.961-4.371-4.371c0-2.406,1.961-4.367,4.371-4.367c2.406,0,4.367,1.961,4.367,4.367   C1039.445,782.651,1037.484,784.612,1035.078,784.612z M1043.203,776.362c-0.879,0-4.18-6.438-8.125-6.438   c-3.949,0-7.25,6.438-8.125,6.438h-25.328c-0.879,0-4.18-5.463-8.125-5.463c-1.5,0-2.887,0.916-4.105,1.607   c0.57-5.492,2.27-9.672,5.199-12.469c4.109-3.93,9.273-3.676,9.41-3.676h9.191c4.176,0,10.898,2.572,13.695,4.229   c0.813,0.48,1.996,1.283,3.367,2.111c3.477,2.109,8.242,5.035,11.023,6.52c3.211,1.711,3.852,2.855,4.281,4.246   c0.203,0.664,0.336,2.895,0.395,2.895H1043.203z M970,764.362h12.961c0.473,0,1.039-4,1.695-4H970V764.362z"/><g><rect x="378" y="978" width="12" height="12"/><path d="M398,970h-28v28h28V970z M394,978.705v9.836V994h-5.193h-9.836H374v-5.459v-9.836V974h4.971h9.836H394V978.705z"/><rect x="378" y="1030" width="12" height="12"/><path d="M370,1050h28v-28h-28V1050z M374,1040.541v-9.836V1026h4.971h9.836H394v4.705v9.836V1046h-5.193h-9.836H374V1040.541z"/><path d="M422,970v28h-4v-4h-8.111H406v4h-4v4h4v8h-4.111H398v-4.377V1002h-4v4h-4.111l0.111-0.377V1014h7.889H402v8h3.889H410    v-4.377V1014h3.887H418v4h3.889H426v-4h-4v-4.377v-4V1002h4v-4h24v-28H422z M446,978.705v9.836V994h-5.193h-9.836H426v-5.459    v-9.836V974h4.971h9.836H446V978.705z"/><rect x="430" y="978" width="12" height="12"/><polygon points="406,985.623 406,990 409.889,990 413.889,990 414,989.623 414,986 418,986 418,973.623 417.889,974 413.889,974     406,974 406,978 402,978 402,982 406,982   "/><polygon points="386,1018 386,1014 382,1014 382,1005.623 382,1002 378,1002 378,1006 370,1006 370,1018 381.889,1018   "/><polygon points="442,1002 437.889,1002 433.889,1002 434,1001.623 434,1010 442,1010   "/><rect x="425.889" y="1005.623" width="4" height="4"/><rect x="413.889" y="1045.623" width="4" height="4"/><rect x="425.889" y="1045.623" width="4" height="4"/><rect x="401.889" y="1033.623" width="4" height="4"/><polygon points="434,1034 430,1034 430,1038 426,1038 426,1034 430,1034 430,1030 425.889,1030 421.889,1030 417.889,1030     414,1030 414,1034 418,1034 418,1038 414,1038 414,1034 410,1034 410,1038 406,1038 406,1042 410,1042 410,1046 414,1046     414,1042 417.889,1042 421.889,1042 425.889,1042 430,1042 430,1046 434,1046 434,1042 438,1042 438,1038 434,1038   "/><rect x="437.889" y="1033.623" width="4" height="4"/><rect x="429.889" y="1025.623" width="4" height="4"/><rect x="409.889" y="1025.623" width="4" height="4"/><polygon points="438,1014 434,1014 434,1017.623 433.887,1018 430,1018 430,1022 433.887,1022 433.889,1022 438,1022     438,1025.623 438,1030 446,1030 446,1018 438,1018   "/></g><path d="M774,738h-30v64h52v-39.793L774,738z M776,747.863L788.344,758H776V747.863z M751.008,798l13.629-13.523l-0.801-1.297   c-0.141-0.234-3.391-5.754,1.109-10.254c1.566-1.563,3.422-2.348,5.516-2.348c0.801,0,1.559,0.121,2.223,0.285l-7.738,7.738   l8.488,8.488l7.746-7.742c0.5,2.086,0.539,5.117-2.09,7.742c-2.152,2.156-8.242,3.07-9.902,1.414l-1.414-1.512L756.664,798H751.008   z M792,798h-29.68l5.688-5.578c3.773,1.93,10.789,0.563,13.91-2.555c5.348-5.352,3.465-12.238,1.715-15.145l-1.316-2.184   l-8.883,8.887l-2.832-2.824l8.887-8.879l-2.199-1.32c-0.121-0.07-3.063-1.813-6.828-1.813c-3.148,0-6.035,1.219-8.344,3.531   c-4.602,4.602-4.844,10.375-3.43,13.742L748,793.551V742h24v20h20V798z"/><path d="M797.628,903.533c0.457-0.953,0.512-2.055,0.152-3.055l-13.438-37.676c-0.586-1.637-2.125-2.66-3.766-2.66   c-0.445,0-0.898,0.078-1.344,0.234l-3.77,1.344c-1,0.355-1.816,1.094-2.27,2.055c-0.457,0.957-0.512,2.055-0.156,3.055   l13.441,37.68c0.582,1.633,2.125,2.656,3.77,2.656c0.445,0,0.898-0.078,1.34-0.234l3.77-1.344   C796.358,905.236,797.171,904.494,797.628,903.533z M790.249,903.166l-13.445-37.68l3.773-1.34l13.438,37.676L790.249,903.166z    M803.147,907.955l-1.414-1.414l-1.414,1.414c-0.281,0.281-6.844,6.93-6.844,13.93c0,6.063,4.938,8.258,8.258,8.258   c3.316,0,8.254-2.195,8.254-8.258C809.987,914.885,803.425,908.236,803.147,907.955z M801.726,926.143   c-0.477,0-4.25-0.141-4.25-4.258c0-3.617,2.574-7.398,4.258-9.484c1.68,2.086,4.254,5.867,4.254,9.484   C805.987,925.768,802.733,926.127,801.726,926.143z M747.601,913.939c-0.57,0.203-1.086,0.289-1.551,0.289   c-2.598,0-3.563-2.719-3.563-2.719s-5.379-15.066-8.066-22.602c-1.344-3.766,2.039-5.109,2.039-5.109l25.602-9.266v8.555   c0,0.063-0.078,0.102-0.305,0.18c-4.152,1.484-6.137,6.066-4.66,10.219c1.141,3.188,4.26,5.32,7.631,5.32   c0.918,0,1.873-0.16,2.74-0.469c2.008-0.715,3.648-2.172,4.563-4.105s0.652-4.105-0.066-6.117c-0.898-2.527-1.902-4.34-5.902-4.996   v-10.016l4.215-1.367l-1.535-3.766l-2.68,0.887v-16.711c0-1.105-0.133-2.289-1.234-2.289h-8c-1.109,0-2.766,1.184-2.766,2.289   v20.988l-18.945,6.895c-0.43,0.152-1.738,0.762-3.066,2.145c-2.07,2.156-2.553,5.102-1.49,8.078l8.111,22.602   c0.711,2,3.078,5.375,7.355,5.375c0.949,0,1.93-0.18,2.906-0.523l33.811-12.063l-1.338-3.766   C780.394,902.236,754.983,911.299,747.601,913.939z M764.827,886.807c1.641,0,3.184,1.016,3.766,2.652   c0.742,2.082-0.344,4.371-2.422,5.113c-0.445,0.156-0.898,0.234-1.348,0.234c-1.645,0-3.18-1.023-3.766-2.656   c-0.738-2.086,0.344-4.371,2.426-5.113C763.929,886.877,764.382,886.807,764.827,886.807z M758.062,853.857h4v16.426l-4,1.43   V853.857z"/><g><path d="M1009.996,197.731c-0.234,0-0.75-0.086-0.973-0.166c-1.402-0.473-35.02-12.055-35.02-35.83    c0-10.734,8.734-19.467,19.469-19.467c6.242,0,12.152,3.039,15.816,8.135l0.707,0.982l0.707-0.982    c3.66-5.096,9.574-8.135,15.824-8.135c10.734,0,19.469,8.732,19.469,19.467c0,23.729-33.633,35.359-35.063,35.842    c-0.109,0.037-0.492,0.107-0.602,0.129C1010.223,197.722,1010.109,197.731,1009.996,197.731z M993.473,146.44    c-8.434,0-15.297,6.861-15.297,15.295c0,19.896,28.242,30.49,31.867,31.766c2.25-0.809,31.781-11.467,31.781-31.766    c0-8.434-6.863-15.295-15.297-15.295c-4.906,0-9.555,2.393-12.438,6.396l-2.398,3.34c-0.785,1.094-2.605,1.094-3.391,0    l-2.398-3.34C1003.02,148.833,998.379,146.44,993.473,146.44z"/></g><g><path d="M-98,736v68h40l16-15.816V736H-98z M-46,771.379v4V788h-12v12h-36v-24.621v-4V740h48V771.379z"/><path d="M-70.641,778.082c0.207,0.063,0.422,0.102,0.637,0.102s0.43-0.039,0.637-0.102c0.766-0.258,18.699-6.438,18.699-19.234    c0-5.883-4.785-10.664-10.668-10.664c-3.566,0-6.73,1.758-8.668,4.453c-1.938-2.695-5.098-4.453-8.664-4.453    c-5.883,0-10.668,4.781-10.668,10.664C-89.336,771.645-71.406,777.824-70.641,778.082z M-78.668,752.184    c3.676,0,6.664,2.992,6.664,6.664c0,1.109,0.895,2,2,2s2-0.891,2-2c0-3.672,2.992-6.664,6.668-6.664s6.668,2.992,6.668,6.664    c0,8.773-12.355,14.063-15.336,15.203c-2.977-1.141-15.332-6.43-15.332-15.203C-85.336,755.176-82.344,752.184-78.668,752.184z"/></g><path d="M314.285,42.96h-24.762l10.667-10.653l2.126-2.123l-2.127-2.123l-5.66-5.65l-2.121-2.118l-2.12,2.12l-25.453,25.463   l-2.12,2.121l2.121,2.121l25.457,25.463l2.125,2.126l2.121-2.13l5.656-5.678l2.112-2.12l-2.114-2.118L289.505,56.96h24.78h3v-3v-8   v-3H314.285z M314.285,53.96H282.27l15.801,15.822l-5.656,5.678l-25.457-25.463l25.453-25.463l5.66,5.65L282.273,45.96h32.012   V53.96z"/><path d="M622.715,42.96v3v8v3h3h24.78l-10.688,10.702l-2.114,2.118l2.112,2.12l5.656,5.678l2.121,2.13l2.125-2.126l25.457-25.463   l2.121-2.121l-2.12-2.121l-25.453-25.463l-2.12-2.12l-2.121,2.118l-5.66,5.65l-2.127,2.123l2.126,2.123l10.667,10.653h-24.762   H622.715z M625.715,45.96h32.012L641.93,30.185l5.66-5.65l25.453,25.463L647.586,75.46l-5.656-5.678L657.73,53.96h-32.016V45.96z"/><path d="M557.574,45.523l-5.699-5.656l-2.117-2.103l-2.113,2.107l-10.723,10.693V25.648v-3h-3h-8h-3v3v24.888l-10.627-10.658   l-2.125-2.13l-2.123,2.13l-5.643,5.658l-2.117,2.122l2.119,2.118l25.471,25.455l2.121,2.12l2.121-2.12l25.463-25.457l2.131-2.13   L557.574,45.523z M529.998,73.109l-25.471-25.455l5.643-5.658l15.752,15.797V25.648h8v32.146l15.84-15.799l5.699,5.656   L529.998,73.109z"/><path d="M429.24,30.589h-8h-3v3v13.353l-18.166-17.417l-2.205-2.114l-2.073,2.242l-6.139,6.637l-1.897,2.051l1.911,2.038   l17.073,18.21H393.24h-3v3v8v3h3h36h3v-3v-36v-3H429.24z M429.24,69.589h-36v-8h20.43l-21.811-23.262l6.139-6.637l23.242,22.283   V33.589h8V69.589z"/><path d="M910.182,378h-4h-32h-4H858v56l8.182,8h12h4h16h4H922v-64H910.182z M906,382v28h-32v-28H906z M882,438v-12h16v12H882z    M918,438h-16v-12v-4h-3.818h-16H878v4v12h-10.162L862,432.344V382h8v28v4h4.182h32H910v-4v-28h8V438z"/><g><g><path d="M174.216,422.806h7.73c-3.209,3.922-7.992,6.281-13.201,6.281c-9.43,0-17.1-7.672-17.1-17.102     c-0.002-1.252,0.154-2.48,0.418-3.68l-2.252,1.416l-1.588-2.525c-0.361,1.559-0.578,3.156-0.578,4.789     c0,11.637,9.465,21.102,21.1,21.102c6.135,0,11.799-2.641,15.746-7.086l0.016,7.086h4.086v-14.375h-14.377V422.806z"/></g><g><path d="M171.255,386.913c-6.135,0-11.799,2.641-15.746,7.086l-0.016-7.086h-4.086v14.375h14.377v-4.094h-7.73     c3.209-3.922,7.992-6.281,13.201-6.281c9.43,0,17.1,7.672,17.1,17.102c0.002,1.252-0.154,2.48-0.418,3.68l2.252-1.416     l1.588,2.525c0.361-1.559,0.578-3.156,0.578-4.789C192.354,396.378,182.89,386.913,171.255,386.913z"/></g></g><g><path d="M22,734v72h40l16-15.816V734H22z M74,773.379v4V790H62v12H26v-24.621v-4V738h48V773.379z"/><rect x="34" y="750" width="4" height="32"/><path d="M58,770v-12h-2.633H54h-8h-0.898H42v10.184V774h12h4h3.93h1.469H66v-24h-4v20H58z M54,768.184h-8v-8h8V768.184z"/><rect x="38" y="782" width="20" height="4"/><rect x="38" y="746" width="24" height="4"/></g><g><path d="M142,734v72h40l16-15.816V734H142z M194,773.379v4V790h-12v12h-36v-24.621v-4V738h48V773.379z"/><rect x="150" y="754" width="4" height="20"/><rect x="155.086" y="754.184" width="4" height="4"/><rect x="159.086" y="758.184" width="4" height="8"/><rect x="155.086" y="766.184" width="4" height="4"/><polygon points="186,766.184 189.082,766.184 189.082,762.184 186,762.184 186,758.184 189.082,758.184 189.082,754.184     186,754.184 186,754 182,754 182,774 186,774   "/><rect x="174" y="754" width="4" height="20"/><polygon points="173.082,774.184 173.082,770.184 169.082,770.184 169.082,766.184 173.086,766.184 173.086,762.184     165.086,762.184 165.086,766.184 165.082,766.184 165.082,774.184 169.082,774.184   "/></g><g><path d="M1050,258c0-4.418-3.582-8-8-8h-64c-4.418,0-8,3.582-8,8v64c0,4.418,3.582,8,8,8h64c4.418,0,8-3.582,8-8V258z M1046,322    c0,2.209-1.791,4-4,4h-64c-2.209,0-4-1.791-4-4v-64c0-2.209,1.791-4,4-4h64c2.209,0,4,1.791,4,4V322z"/><path d="M1005.77,298.277l-15.125-15.125l-5.656,5.656l15.482,15.482c1.461,1.461,3.381,2.189,5.301,2.189s3.84-0.73,5.301-2.191    l23.941-23.943l-5.656-5.656L1005.77,298.277z"/></g><g><path d="M909.356,274.104l-23.588,23.588l-15.125-15.125l-5.656,5.656l15.482,15.482c1.461,1.461,3.381,2.189,5.301,2.189    s3.84-0.73,5.301-2.191l23.941-23.943L909.356,274.104z"/></g><g><circle cx="272.959" cy="515.569" r="3.06"/><circle cx="264.8" cy="534.439" r="3.06"/><circle cx="289.896" cy="529.34" r="3.06"/><circle cx="284.943" cy="503.968" r="3.06"/><circle cx="278.167" cy="550.502" r="3.06"/><circle cx="313.608" cy="531.379" r="3.06"/><circle cx="303.155" cy="545.402" r="3.06"/><path d="M328.677,520.382c-0.756-3.082-4.189-2.305-4.189-2.305c-1.07,0-2.301-0.354-3.141-0.889    c-0.125,0-0.273-0.053-0.475-0.229c-2.396-2.098-4.637-0.318-4.637-0.318c-0.83,0.553-1.777,0.947-2.859,0.947    c-2.463,0-4.455-1.928-5.111-4.18c-1.156-3.023-3.488-2.729-3.488-2.729c-2.988,0-6.207-2.422-6.207-5.41    c0-0.354-0.676-0.689-0.676-1.02c0-0.018,0-0.031,0-0.049c4-3.23-0.512-4.555-0.512-4.555l0.463,0.025    c-0.943-0.898-0.699-2.113-0.783-3.512c-0.006,0.002,0.832,0.02,0.832,0.02v-0.246c0-0.029-0.016-0.053-0.016-0.082    c0-0.037,0.016-0.072,0.016-0.109v-2.311c0,0-0.512-2.59-2.875-3.146c-1.461-0.174-3.279-0.287-4.787-0.287    c-22.09,0-40.168,17.91-40.168,40s17.824,40.002,39.914,40.002s39.959-17.912,39.959-40.002    C329.937,526.677,329.452,523.464,328.677,520.382z M289.894,566.001c-19.85,0-36-16.15-36-36.002c0-19.85,16.15-36,36-36    c0.922,0,1.855,0.039,2.799,0.119c-0.111,0.566-0.168,1.146-0.168,1.734c0,2.768,1.217,5.271,3.176,6.986    c-0.221,0.785-0.334,1.604-0.334,2.432c0,5.029,3.965,9.15,8.934,9.398c1.096,3.984,4.75,6.92,9.076,6.92    c1.848,0,3.572-0.537,5.025-1.475c1.6,1.252,3.611,2,5.795,2c0.266,0,0.529-0.012,0.791-0.035c0.602,2.621,0.906,5.271,0.906,7.92    C325.894,549.851,309.743,566.001,289.894,566.001z"/></g><g><polygon points="166.104,166.309 162.104,166.309 162.104,202.309 154.104,202.309 154.104,206.309 174.104,206.309     174.104,202.309 166.104,202.309   "/><rect x="163.041" y="133.691" width="4" height="6.193"/><path d="M183.521,142.309h-37.418v20h37.418l10.375-10L183.521,142.309z M182.061,158.309h-31.957v-12h31.957l5.625,6    L182.061,158.309z"/></g><path d="M1027.307,892.196c0-13.531-15.172-30.52-15.82-31.236l-1.484-1.646l-1.484,1.646   c-0.648,0.717-15.824,17.705-15.824,31.236c0,8.691,6.461,15.838,14.824,17.055c-1.289,4.285-5.223,7.436-9.922,7.436   c-1.102,0-2,0.895-2,2s0.898,2,2,2c6.895,0,12.66-4.873,14.066-11.352C1020.412,908.485,1027.307,901.169,1027.307,892.196z    M1012.002,905.3v-14.654h-4V905.3c-6.383-0.973-11.309-6.453-11.309-13.104c0-9.688,9.559-22.25,13.309-26.809   c3.75,4.559,13.305,17.121,13.305,26.809C1023.307,898.847,1018.385,904.327,1012.002,905.3z"/><g><path d="M-74.082,996.162h-20v24h-16v28h15.676h3.91h11.609h3.902h16.902v-16h-16V996.162z M-94.082,1044.162h-12v-20h12V1044.162    z M-78.082,1044.162h-12v-44h12V1044.162z M-74.082,1036.162h12v8h-12V1036.162z"/><path d="M-29.918,999.771c0-11.416-12.742-25.686-13.285-26.287l-1.488-1.646l-1.484,1.646    c-0.539,0.602-13.289,14.871-13.289,26.287c0,7.287,5.316,13.318,12.266,14.518c-1.145,3.242-4.211,5.586-7.844,5.586    c-1.102,0-2,0.895-2,2s0.898,2,2,2c5.824,0,10.691-4.064,11.984-9.498C-35.684,1013.553-29.918,1007.357-29.918,999.771z     M-42.082,1010.34v-10.178h-4v10.178c-4-0.941-9.078-5.314-9.078-10.568c0-7.771,7.359-17.84,10.621-21.85    c3.266,4.006,11.004,14.066,11.004,21.85C-33.535,1005.027-38.082,1009.398-42.082,1010.34z"/></g><g><path d="M51.486,266.555l-1.484-1.648l-1.484,1.648c-0.648,0.715-15.824,17.703-15.824,31.234c0,9.539,7.762,17.305,17.309,17.305    c9.539,0,17.305-7.766,17.305-17.305C67.307,284.258,52.135,267.27,51.486,266.555z M50.002,311.094    c-7.336,0-13.309-5.586-13.309-12.922c0-9.688,9.559-22.25,13.309-26.809c3.75,4.559,13.305,16.738,13.305,26.426    C63.307,305.125,57.338,311.094,50.002,311.094z"/><path d="M40.693,298.172c0,5.004,4.09,8.922,9.309,8.922c5.133,0,9.305-4.172,9.305-9.305c0-4.906-3.266-11.883-9.289-19.93    C46.119,283.172,40.693,291.715,40.693,298.172z"/></g><path d="M-68.512,266.555l-1.484-1.648l-1.488,1.648c-0.645,0.715-15.824,17.703-15.824,31.234c0,9.539,7.766,17.305,17.309,17.305   h0.004c9.539,0,17.305-7.766,17.305-17.305C-52.691,284.258-67.867,267.27-68.512,266.555z M-69.996,311.094   c-7.34,0-13.313-5.586-13.313-12.922c0-9.688,9.559-22.25,13.313-26.809c3.75,4.559,13.305,16.738,13.305,26.426   C-56.691,305.125-62.66,311.094-69.996,311.094z"/><g><path d="M327.889,169.314h-1.43c-1.012-20-16.621-34.543-32.621-35.561v-1.846c0-1.105-0.895-2-2-2s-2,0.895-2,2v1.846    c-20,1.006-35.281,15.561-36.293,35.561h-1.434c-1.105,0-2,0.895-2,2s0.895,2,2,2h1.434c1.012,16,16.293,32.332,36.293,33.34    v1.438c0,1.105,0.895,2,2,2s2-0.895,2-2v-1.438c16-1.016,31.609-17.34,32.621-33.34h1.43c1.105,0,2-0.895,2-2    S328.994,169.314,327.889,169.314z M293.838,202.654v-1.674c0-1.105-0.895-2-2-2s-2,0.895-2,2v1.674    c-20-0.998-31.293-13.34-32.293-29.34h1.68c1.105,0,2-0.895,2-2s-0.895-2-2-2h-1.684c0.48-8,4.68-15.902,10.352-21.574    c5.68-5.674,13.945-9.514,21.945-9.99v1.676c0,1.105,0.895,2,2,2s2-0.895,2-2v-1.672c16,1.004,27.617,15.561,28.621,31.561h-1.684    c-1.105,0-2,0.895-2,2s0.895,2,2,2h1.684C321.459,189.314,309.838,201.648,293.838,202.654z"/><path d="M306.178,152.518l-11.309,10.203c-1.402-0.914-3.07-1.457-4.863-1.457c-4.93,0-8.938,4.012-8.938,8.941    c0,1.553,0.434,2.992,1.133,4.266l-11.543,10.406c-0.82,0.74-0.887,2.006-0.145,2.826c0.395,0.438,0.938,0.66,1.484,0.66    c0.477,0,0.957-0.17,1.34-0.514l11.508-10.375c1.461,1.039,3.234,1.664,5.16,1.664c4.93,0,8.938-4.008,8.938-8.934    c0-1.686-0.496-3.246-1.309-4.594l11.223-10.125c0.82-0.738,0.887-2.004,0.145-2.824    C308.264,151.842,306.998,151.773,306.178,152.518z M290.006,175.139c-2.723,0-4.938-2.213-4.938-4.934    c0-2.725,2.215-4.941,4.938-4.941s4.938,2.217,4.938,4.941C294.943,172.926,292.729,175.139,290.006,175.139z"/></g><g><path d="M406,520.156v-12V506h-5.74h-12H386v2.156v12V526h2.26h12H406V520.156z M402,522h-12v-12h12V522z"/><path d="M434,526v-5.844v-12V506h-2.262h-12H414v2.156v12V526h5.738h12H434z M418,510h12v12h-12V510z"/><path d="M388.26,534H386v5.848v12V554h2.26h12H406v-2.152v-12V534h-5.74H388.26z M402,550h-12v-12h12V550z"/><path d="M438.951,546.01l-3.252-0.018c-0.258-0.479-0.605-1.125-0.986-1.832c0,0-1.43-2.678-2.24-4.195v0.002    c-0.104-0.195-0.205-0.387-0.309-0.582c-0.127-0.236-0.223-0.418-0.234-0.441v-0.004c-0.887-1.676-1.725-3.279-2.291-4.408    c-1.646-3.283-5.012-3.752-7.477-2.508c-2.428,1.219-4.129,4.262-2.502,7.504l2.762,5.516l2.576,5.141l0.861,1.723    c-2.877-0.205-5.518,2.094-5.518,5.035c0,1.982,1.166,3.789,2.971,4.605l4.105,1.945c0.75,2.6,3.279,6.127,9.232,6.127    c1.105,0,2-0.895,2-2s-0.895-2-2-2c-5.072,0-5.469-3.547-5.484-3.697c-0.066-0.701-0.498-1.316-1.135-1.617l-5.039-2.387    c-0.414-0.188-0.65-0.557-0.65-0.977c0-0.736,0.846-1.266,1.486-0.959l2.729,0.877l0.152,0.27    c0.539,0.957,1.758,1.299,2.713,0.766c0.961-0.533,1.311-1.742,0.785-2.707l-3.043-5.572l-5.93-11.881    c-0.66-1.314,0.385-1.967,0.721-2.137c0.424-0.209,1.465-0.557,2.109,0.727c1.879,3.748,6.682,12.615,6.682,12.615    c0.348,0.641,1.018,1.043,1.748,1.047l4.447,0.023c2.314,0,4.051,0.576,5.172,1.713c1.955,1.986,1.904,5.453,1.881,7.119    l-0.006,6.852c0,1.105,0.9,2,2.006,2s2.006-0.895,2.006-2V558.9c0-2.037,0.096-6.809-3.035-9.984    C445.064,546.988,442.365,546.01,438.951,546.01z"/><path d="M370,490v80h52v-4h-48v-72h72v49.506c0.035,0.016,0.064-1.506,0.098-1.506H450v-52H370z"/></g><g><g><path d="M183.847,266c0-3.314-2.688-6-6-6h-24c-3.313,0-6,2.686-6,6v12c0,3.314,2.688,6,6,6h24c3.313,0,6-2.686,6-6V266z      M179.847,278c0,1.105-0.895,2-2,2h-24c-1.105,0-2-0.895-2-2v-12c0-1.105,0.895-2,2-2h24c1.105,0,2,0.895,2,2V278z"/><path d="M200.901,263.293l-5.055-1.926v4.23l3.805,1.477c5.039,1.738,4.195,4.758,4.195,5.43v38.555c0,1.258-0.742,2.281-2,2.281     s-2-1.023-2-2.281v-25.906c0-3.582-3.578-5.152-7.164-5.152h-0.836v-15.781v-4.23v-3.25c0-2.211-2.844-4.738-5.051-4.738h-42.52     c-2.211,0-4.43,2.527-4.43,4.738V324h-6c-1.102,0-2,0.891-2,2c0,1.102,0.898,2,2,2h6l0,0h52l0,0h5.379c1.105,0,2-0.898,2-2     c0-1.109-0.895-2-2-2h-5.379v-40h0.836c1.379,0,3.164-0.223,3.164,1.152v25.906c0,3.461,2.484,6.281,5.949,6.281     c3.461,0,6.113-2.82,6.113-6.281l0.148-38.18C208.487,270.59,207.698,265.637,200.901,263.293z M143.847,324v-68h44v68H143.847z"/></g></g><path d="M-86.305,658h-4v8h-8v4h8v8h4v-8h8v-4h-8V658z M-48.117,650h-43.766c-9.988,0-18.117,7.93-18.117,17.906   c0,9.98,8.129,18.094,18.117,18.094h43.766C-38.129,686-30,677.887-30,667.906C-30,657.93-38.129,650-48.117,650z M-48.117,682   h-43.766c-7.785,0-14.117-6.316-14.117-14.094c0-7.773,6.332-13.906,14.117-13.906h43.766C-40.332,654-34,660.133-34,667.906   C-34,675.684-40.332,682-48.117,682z M-93.375,639.949c4.875,0,8.609-3.736,9.082-8.482c0-2.982,2.055-5.408,5.047-5.408   c2.984,0,4.941,2.426,4.941,5.408V642h4v-10.533c0-5.182-3.875-9.402-9.063-9.402c-4.879,0-8.68,3.736-9.148,8.482   c0,2.982-1.957,5.408-4.949,5.408c-2.98,0-4.84-2.426-4.84-5.408V614h-4v16.547C-102.305,635.729-98.563,639.949-93.375,639.949z    M-49.617,667.289c-2.211,0-4,1.787-4,3.994s1.789,3.992,4,3.992s4-1.785,4-3.992S-47.406,667.289-49.617,667.289z    M-61.613,667.289c-2.211,0-3.996,1.787-3.996,3.994s1.785,3.992,3.996,3.992s4-1.785,4-3.992S-59.402,667.289-61.613,667.289z"/><g><g><path d="M919.131,155.837l-4.457-4.459v-6.303c0-4.496-3.656-8.152-8.148-8.152h-6.305l-4.461-4.457     c-3.086-3.086-8.461-3.082-11.523,0l-4.461,4.457h-6.305c-4.492,0-8.145,3.656-8.145,8.152v6.303l-4.457,4.459     c-1.539,1.537-2.387,3.584-2.387,5.762c0,2.176,0.848,4.223,2.387,5.764l4.457,4.455v6.307c0,4.494,3.652,8.15,8.145,8.15h6.305     l4.461,4.459c1.535,1.539,3.582,2.387,5.762,2.387c2.176,0,4.223-0.848,5.762-2.387l4.461-4.459h6.305     c4.492,0,8.148-3.656,8.148-8.15v-6.307l4.457-4.455c1.539-1.541,2.387-3.588,2.387-5.764     C921.518,159.421,920.67,157.375,919.131,155.837z M916.303,164.535l-5.629,5.627v7.963c0,2.289-1.859,4.15-4.148,4.15h-7.961     l-5.633,5.631c-1.57,1.568-4.309,1.564-5.867,0l-5.633-5.631h-7.961c-2.285,0-4.145-1.861-4.145-4.15v-7.963l-5.629-5.627     c-0.785-0.785-1.215-1.828-1.215-2.936s0.43-2.15,1.215-2.934l5.629-5.631v-7.959c0-2.289,1.859-4.152,4.145-4.152h7.961     l5.633-5.631c1.566-1.564,4.297-1.57,5.867,0.002l5.633,5.629h7.961c2.289,0,4.148,1.863,4.148,4.152v7.959l5.629,5.631     c0.785,0.783,1.215,1.826,1.215,2.934S917.088,163.75,916.303,164.535z"/></g><g><polygon points="895.584,202.57 890.002,197.214 884.42,202.57 884.42,195.787 880.42,191.771 880.42,209.847 890.002,202.304      899.584,209.847 899.584,191.771 895.584,195.667    "/></g><g><path d="M887.83,165.634l-7.762-7.762l-2.902,2.902l7.945,7.941c0.75,0.75,1.734,1.125,2.719,1.125s1.969-0.375,2.719-1.125     l12.285-12.285l-2.902-2.898L887.83,165.634z"/></g></g><path d="M210,29.968l-18.891-2.742l-8.445-17.117l-8.449,17.117l-18.891,2.742l13.668,13.324l-3.227,18.813l16.898-8.883   l16.891,8.883l-3.227-18.813L210,29.968z M184.523,49.683l-1.859-0.98l-1.863,0.977l-9.723,5.113l1.859-10.824l0.355-2.07   l-1.508-1.469l-7.863-7.668l10.867-1.574l2.082-0.305l0.93-1.887l4.863-9.848l4.859,9.848l0.93,1.887l2.082,0.305l10.867,1.574   l-7.863,7.668l-1.508,1.469l0.355,2.07l1.855,10.824L184.523,49.683z M186,85.892h-52v-52h19.828l-1.297-1.395l-2.539-2.605H130v60   h60V61.468l-4-1.965V85.892z"/><path d="M507.109,139.249c-2.066,0-4.129,0.785-5.703,2.363c-3.148,3.152-3.148,8.262,0,11.418   c1.574,1.574,3.637,2.359,5.703,2.359s4.129-0.781,5.703-2.359c3.148-3.156,3.148-8.266,0-11.418   C511.238,140.034,509.176,139.249,507.109,139.249z M509.961,150.175c-0.762,0.762-1.773,1.18-2.852,1.18s-2.09-0.418-2.852-1.18   s-1.18-1.777-1.18-2.855s0.418-2.09,1.18-2.852c0.762-0.766,1.773-1.184,2.852-1.184s2.09,0.418,2.852,1.184   C511.531,146.038,511.531,148.601,509.961,150.175z M524.305,129.892h-22.813L490,141.612v22.75l45.781,45.746L570,175.743   L524.305,129.892z M535.766,204.401L494,162.687v-19.402l9.164-9.393h19.469l41.656,41.832L535.766,204.401z"/><g><path d="M1010,970c-22.057,0-40,17.941-40,40c0,22.055,17.943,40,40,40s40-17.945,40-40C1050,987.941,1032.057,970,1010,970z     M1010,1046c-19.85,0-36-16.152-36-36c0-19.852,16.15-36,36-36s36,16.148,36,36C1046,1029.848,1029.85,1046,1010,1046z"/><circle cx="994" cy="1010" r="4"/><circle cx="1010" cy="1010" r="4"/><circle cx="1026" cy="1010" r="4"/></g><g><path d="M270.395,877.609v24.773l20,12.391l20-12.391v-24.773l-20-12.391L270.395,877.609z M306.395,900.078l-16,10.078    l-16-10.078v-20.16l16-10.078l16,10.078V900.078z"/><path d="M277.703,890c0,6.781,5.516,12.297,12.297,12.297s12.297-5.516,12.297-12.297s-5.516-12.297-12.297-12.297    S277.703,883.219,277.703,890z M298.297,890c0,4.57-3.723,8.297-8.297,8.297s-8.297-3.727-8.297-8.297    c0-4.578,3.723-8.297,8.297-8.297S298.297,885.422,298.297,890z"/><path d="M290,850c-22.078,0-40,17.906-40,40s17.922,40,40,40s40-17.906,40-40S312.078,850,290,850z M290,926    c-19.852,0-36-16.156-36-36c0-19.852,16.148-36,36-36s36,16.148,36,36C326,909.844,309.852,926,290,926z"/></g><g><path d="M410.004,131.508c-14.75,0-26.75,11.998-26.75,26.746c0,6.42,2.414,11.113,2.57,11.404l22.461,37.855    c0.359,0.607,1.012,0.979,1.719,0.979s1.359-0.373,1.719-0.98l22.523-38.029c1.66-3.559,2.5-7.336,2.5-11.229    C436.746,143.506,424.75,131.508,410.004,131.508z M430.715,167.617l-20.711,34.953l-20.688-34.859    c-0.02-0.039-2.063-4.01-2.063-9.457c0-12.543,10.207-22.746,22.75-22.746c12.539,0,22.742,10.203,22.742,22.746    C432.746,161.559,432.031,164.768,430.715,167.617z"/><path d="M410.004,147.404c-5.984,0-10.852,4.867-10.852,10.85c0,5.979,4.867,10.844,10.852,10.844    c5.98,0,10.844-4.865,10.844-10.844C420.848,152.271,415.984,147.404,410.004,147.404z M410.004,165.098    c-3.777,0-6.852-3.07-6.852-6.844c0-3.777,3.074-6.85,6.852-6.85c3.773,0,6.844,3.072,6.844,6.85    C416.848,162.027,413.777,165.098,410.004,165.098z"/></g><g><path d="M911.432,850H857.5v80h65v-69L911.432,850z M918,925.5h-56v-71h47.432h0.136l8.433,8.363V925.5z"/><rect x="873.5" y="870.12" width="19.5" height="4.5"/><rect x="873.5" y="888.5" width="34.5" height="4.5"/><rect x="873.5" y="905.5" width="34.5" height="4.5"/></g><g><path d="M72.402,624.477v4h6.473c-0.484,4.313-2.484,14.309-10.375,20.68v-32.508h-37v32.48    c-7.855-6.371-9.875-16.344-10.367-20.652h6.465v-4h-10.68l0.051,2.047c0.008,0.32,1.188,31.293,31.031,32.242v20.586H36.004v4    h27.992v-4H52v-20.586c29.844-0.949,31.023-31.922,31.031-32.242l0.051-2.047H72.402z M64.5,651.789    c-3.633,1.875-8.164,3.063-13.844,3.063h-1.313c-5.68,0-10.211-1.195-13.844-3.078v-31.125h29V651.789z"/></g><g><path d="M134.294,638.127h8.039v3.422l-1.484,4.441c0.156-0.008,0.297-0.047,0.445-0.047c1.258,0,2.445,0.25,3.586,0.609    l1.352-4.047l0.102-8.379h-16.039v19.137c0.844-2.016,2.25-3.727,4-5.004V638.127z"/><path d="M150.365,650.213c0.375-0.738,0.719-1.441,1.031-2.09c1.961-4.102,5.867-4.727,13.977-4.93v8.492h7.383    c1.008-1.641,2.383-3.008,4.031-4h-7.414v-8.516h-2c-11.984,0-16.945,1.703-19.586,7.227c-0.18,0.367-0.391,0.781-0.586,1.176    C148.412,648.268,149.466,649.158,150.365,650.213z"/><path d="M182.904,649.943c-4.367,0-7.93,3.559-7.93,7.934c0,0.918,0.188,1.785,0.477,2.602h-26.664    c0.273-0.801,0.453-1.641,0.453-2.531c0-4.375-3.563-7.934-7.93-7.934c-4.375,0-7.93,3.559-7.93,7.934    c0,4.371,3.555,7.926,7.93,7.926c1.656,0,3.195-0.516,4.477-1.395h32.742c1.258,0.832,2.758,1.324,4.375,1.324    c4.375,0,7.93-3.555,7.93-7.926C190.833,653.502,187.279,649.943,182.904,649.943z M141.31,661.873    c-2.172,0-3.93-1.762-3.93-3.926c0-2.168,1.758-3.934,3.93-3.934c2.164,0,3.93,1.766,3.93,3.934    C145.24,660.111,143.474,661.873,141.31,661.873z M182.904,661.803c-2.164,0-3.93-1.762-3.93-3.926    c0-2.168,1.766-3.934,3.93-3.934c2.172,0,3.93,1.766,3.93,3.934C186.833,660.041,185.076,661.803,182.904,661.803z"/><path d="M209.263,661.768c-3.898-5.34-6.656-8.949-15.859-9.438c0.664,1.246,1.102,2.609,1.281,4.066    c4.609,0.445,6.781,1.922,9.133,4.809h-9.516c-0.43,1.473-1.125,2.82-2.055,4h15.586c0.75,0,1.344-0.551,1.688-1.223    S209.701,662.377,209.263,661.768z"/></g><path d="M688.555,653.662c-0.133-0.176-0.313-0.504-0.563-0.941c-1.82-3.172-6.063-10.563-14.453-13.695l-11.031-8.125   c-0.195-0.133-4.797-3.203-10.648-3.203l-31.328,0.734c-5.938,0-7.641,4.727-7.781,5.207c-1.047,5.465-2.68,12.316-2.695,12.387   L610,660.338c0,2.75,1.914,4.301,3.047,4.781l2.594,0.008c0.82,4.086,4.438,7.176,8.773,7.176c0.578,0,1.148-0.066,1.695-0.172   c0.188-0.035,0.359-0.098,0.531-0.145c0.367-0.094,0.719-0.195,1.063-0.328c0.195-0.078,0.383-0.18,0.578-0.273   c0.297-0.141,0.594-0.297,0.875-0.473c0.188-0.121,0.367-0.246,0.547-0.379c0.258-0.191,0.508-0.395,0.742-0.613   c0.164-0.152,0.328-0.305,0.477-0.465c0.227-0.238,0.422-0.492,0.617-0.75c0.133-0.176,0.273-0.344,0.391-0.531   c0.188-0.289,0.344-0.602,0.492-0.914c0.086-0.18,0.195-0.344,0.266-0.531c0.195-0.469,0.344-0.961,0.461-1.469   c0-0.027,0.016-0.055,0.023-0.082h31.93c0.031,0.137,0.023,0.293,0.063,0.426c0.086,0.32,0.172,0.633,0.289,0.938   c0.078,0.195,0.172,0.387,0.258,0.578c0.117,0.242,0.227,0.484,0.359,0.711c0.141,0.242,0.305,0.469,0.469,0.695   c0.109,0.156,0.219,0.313,0.336,0.457c0.227,0.273,0.469,0.531,0.727,0.777c0.07,0.074,0.148,0.148,0.227,0.223   c0.32,0.281,0.648,0.543,1.008,0.777c0.031,0.023,0.063,0.047,0.094,0.07c0.398,0.254,0.813,0.484,1.25,0.672v0.004   c0.453,0.199,0.914,0.363,1.398,0.484c0.711,0.184,1.453,0.313,2.219,0.313c4.273,0,7.852-3.02,8.727-7.031l3.93,0.008l0.031-0.004   c1.219-0.039,3.516-1.129,3.516-4.988C690,656.018,688.922,654.186,688.555,653.662z M628.992,665.154   c-0.719,1.836-2.492,3.148-4.578,3.148c-2.102,0-3.875-1.324-4.594-3.168c-0.219-0.555-0.359-1.148-0.359-1.781   c0-0.746,0.188-1.438,0.492-2.074c0.789-1.684,2.477-2.871,4.461-2.871c1.977,0,3.664,1.188,4.453,2.871   c0.297,0.637,0.492,1.328,0.492,2.074C629.359,663.994,629.219,664.596,628.992,665.154z M678.359,665.26   c-0.75,1.785-2.508,3.043-4.563,3.043c-2.063,0-3.828-1.27-4.57-3.059c-0.242-0.586-0.383-1.219-0.383-1.891   c0-0.746,0.195-1.438,0.492-2.074c0.789-1.684,2.477-2.871,4.461-2.871s3.664,1.188,4.453,2.871   c0.305,0.637,0.492,1.328,0.492,2.074C678.742,664.029,678.602,664.674,678.359,665.26z M685.883,661.279h-3.406   c-0.938-3.93-4.461-6.871-8.68-6.871c-0.766,0-1.508,0.129-2.219,0.313c-0.469,0.121-0.93,0.281-1.367,0.477   c-0.023,0.008-0.047,0.02-0.07,0.031c-0.398,0.18-0.781,0.391-1.148,0.625c-0.078,0.047-0.148,0.098-0.227,0.148   c-0.297,0.203-0.578,0.422-0.852,0.656c-0.133,0.125-0.266,0.254-0.398,0.383c-0.188,0.184-0.367,0.375-0.531,0.57   c-0.188,0.219-0.359,0.449-0.523,0.688c-0.094,0.133-0.188,0.273-0.273,0.414c-0.195,0.313-0.367,0.641-0.523,0.98   c-0.039,0.09-0.078,0.176-0.117,0.262c-0.164,0.391-0.297,0.797-0.398,1.211c0,0.004,0,0.008,0,0.012h-32.094   c-0.328-1.297-0.945-2.473-1.766-3.48c-0.117-0.137-0.219-0.281-0.344-0.414c-0.203-0.219-0.43-0.422-0.656-0.625   c-0.188-0.156-0.367-0.313-0.563-0.461c-0.211-0.16-0.438-0.309-0.664-0.449c-0.25-0.152-0.5-0.285-0.766-0.414   c-0.211-0.105-0.422-0.207-0.641-0.297c-0.328-0.125-0.664-0.223-1.008-0.309c-0.188-0.051-0.367-0.113-0.555-0.148   c-0.547-0.105-1.102-0.172-1.68-0.172c-4.219,0-7.75,2.941-8.688,6.871h-1.328c-0.188-0.172-0.398-0.469-0.398-0.941v-13.613   c0.297-1.25,1.719-7.324,2.594-12.027c0.086-0.234,0.953-2.266,3.984-2.266l31.328-0.734c4.523,0,8.281,2.469,8.289,2.469   l11.203,8.25l0.508,0.273c7.195,2.574,10.992,9.195,12.617,12.023c0.375,0.656,0.617,1.07,0.852,1.383   c0.141,0.32,0.625,1.578,0.625,4.191C686,660.775,685.938,661.096,685.883,661.279z"/><path d="M929.257,651.396c-0.609-1.988-1.883-6.133-7.523-9.145c-3.367-1.797-9.266-5.375-13.57-7.988   c-1.719-1.047-3.203-1.949-4.227-2.555c-0.859-0.508-2-1.066-3.273-1.629l-1.547,3.688c1.078,0.477,2.063,0.953,2.789,1.387   c1.008,0.598,2.484,1.492,4.195,2.527c1.031,0.629,2.156,1.309,3.313,2.012c-17.617,5.645-30.711-1.438-30.852-1.516l-0.461-0.254   h-18.227c-2.234,0-4.234,0.863-5.781,2.488c-4.484,4.727-4.117,14.598-4.063,15.605v3.938c0,5.496,4.461,9.965,9.945,9.965   c1.063,0,2.086-0.191,3.047-0.508c1.469-0.477,2.773-1.289,3.859-2.348c0.047-0.043,0.086-0.082,0.133-0.129   c0.281-0.289,0.547-0.598,0.797-0.914c0.102-0.133,0.203-0.27,0.297-0.406c0.188-0.266,0.359-0.535,0.516-0.816   c0.133-0.23,0.242-0.465,0.359-0.703c0.102-0.223,0.203-0.449,0.289-0.684c0.117-0.32,0.211-0.648,0.297-0.977   c0.039-0.129,0.031-0.27,0.055-0.398h32.578c0.047,0.207,0.086,0.418,0.141,0.621c0.094,0.316,0.172,0.633,0.289,0.934   c0.125,0.32,0.289,0.617,0.445,0.922c0.102,0.188,0.18,0.391,0.289,0.578c1.492,2.473,4.023,4.234,6.992,4.695   c0.492,0.078,1,0.133,1.516,0.133c4.773,0,8.758-3.387,9.719-7.883h8.406v-2C929.999,659.4,929.976,653.752,929.257,651.396z    M859.976,665.92c-3.281,0-5.953-2.676-5.953-5.965c0-3.293,2.672-5.969,5.953-5.969s5.953,2.676,5.953,5.969   C865.929,663.244,863.257,665.92,859.976,665.92z M911.874,665.92c-3.281,0-5.953-2.676-5.953-5.965   c0-3.293,2.672-5.969,5.953-5.969s5.953,2.676,5.953,5.969C917.827,663.244,915.155,665.92,911.874,665.92z M921.819,659.955   c0-5.496-4.461-9.969-9.945-9.969c-0.516,0-1.023,0.059-1.516,0.137c-3.563,0.551-6.5,2.98-7.758,6.258   c-0.18,0.457-0.305,0.938-0.414,1.422c-0.016,0.078-0.008,0.156-0.023,0.234h-32.492c-0.023-0.117-0.023-0.242-0.047-0.359   c-0.094-0.383-0.195-0.758-0.328-1.117c-0.07-0.219-0.172-0.426-0.266-0.637c-0.117-0.266-0.242-0.527-0.383-0.777   c-0.156-0.273-0.32-0.539-0.5-0.793c-0.102-0.152-0.211-0.305-0.32-0.453c-0.25-0.316-0.508-0.613-0.789-0.898   c-0.055-0.059-0.109-0.113-0.172-0.168c-1.078-1.055-2.383-1.863-3.844-2.34c-0.961-0.313-1.977-0.508-3.047-0.508   c-2.188,0-4.203,0.734-5.844,1.941c0.266-3.078,1.016-6.82,2.852-8.758c0.813-0.852,1.727-1.246,2.891-1.246h17.219   c2.867,1.457,17.617,7.973,36.742,0.418c2.266,1.344,4.414,2.586,6.016,3.441c4.188,2.234,5.063,5.086,5.586,6.793   c0.305,0.988,0.469,3.395,0.539,5.461h-4.352C921.749,658.658,921.819,659.299,921.819,659.955z"/><path d="M447.947,650.463c-1.695-4.926-8.469-7.742-12.945-9.609c-0.813-0.336-1.539-0.637-2.117-0.906   c-1.922-0.898-5.516-3.113-8.688-5.07c-2.453-1.512-4.773-2.941-6.273-3.746c-2-1.074-5.734-1.578-11.758-1.578   c-1.758,0-3.406,0.043-4.688,0.078c-0.789,0.02-1.43,0.035-1.867,0.035c-2.922,0-6.578,0.539-6.984,0.613   c-2.422,0.688-10.898,6.129-13.227,7.641l-6.203,1.547c-1.016,0.234-2.727,1.363-2.727,4.129v15.422   c0,3.012,2.82,4.531,3.141,4.695l0.43,0.219h4.914c0.922,3.73,4.281,6.516,8.289,6.516c0.867,0,1.688-0.152,2.469-0.391v-0.016   c0.883-0.266,1.695-0.668,2.438-1.184v-0.004c0.313-0.219,0.602-0.465,0.883-0.719c0.086-0.082,0.18-0.164,0.266-0.25   c0.188-0.188,0.359-0.395,0.531-0.598c0.156-0.188,0.305-0.375,0.438-0.574c0.094-0.133,0.18-0.273,0.266-0.414   c0.18-0.293,0.344-0.594,0.484-0.906c0.039-0.078,0.07-0.152,0.102-0.227c0.156-0.383,0.297-0.773,0.398-1.18   c0.008-0.039,0.008-0.082,0.016-0.121h30.555c0,0.012,0,0.023,0,0.035h0.008c0.055,0.23,0.148,0.445,0.227,0.664   c0.117,0.359,0.25,0.715,0.422,1.051c0.102,0.223,0.219,0.441,0.344,0.652c0.297,0.484,0.617,0.953,0.992,1.367   c0.07,0.078,0.156,0.141,0.227,0.215c0.383,0.383,0.789,0.73,1.234,1.035c1.375,0.969,3.047,1.563,4.859,1.563   c4.031,0,7.391-2.805,8.305-6.563l6.734-0.004l0.078-1.922C449.525,661.705,449.744,655.67,447.947,650.463z M391.268,663.924   c-0.758,1.48-2.25,2.523-4.023,2.523c-1.766,0-3.266-1.039-4.023-2.516c-0.32-0.625-0.547-1.305-0.547-2.055   c0-0.707,0.195-1.355,0.484-1.953c0.734-1.531,2.273-2.609,4.086-2.609s3.344,1.078,4.086,2.605   c0.289,0.598,0.484,1.25,0.484,1.957C391.814,662.623,391.588,663.303,391.268,663.924z M438.447,663.889   c-0.75,1.5-2.258,2.559-4.047,2.559s-3.297-1.055-4.047-2.551c-0.313-0.617-0.523-1.285-0.523-2.02c0-0.719,0.203-1.379,0.5-1.984   c0.75-1.512,2.273-2.578,4.07-2.578s3.313,1.063,4.063,2.57c0.297,0.609,0.5,1.27,0.5,1.992   C438.963,662.607,438.752,663.275,438.447,663.889z M442.705,659.885c-0.898-3.762-4.273-6.57-8.305-6.57   c-1.82,0-3.492,0.594-4.875,1.566c-0.43,0.301-0.836,0.645-1.203,1.016c-0.078,0.082-0.172,0.148-0.242,0.234   c-0.383,0.418-0.711,0.887-1.008,1.379c-0.117,0.203-0.227,0.41-0.328,0.625c-0.172,0.348-0.313,0.715-0.438,1.09   c-0.07,0.215-0.156,0.422-0.211,0.641h-30.563c-0.008-0.023-0.008-0.047-0.008-0.07c-0.102-0.383-0.219-0.754-0.367-1.113   c-0.039-0.102-0.086-0.199-0.133-0.301c-0.133-0.297-0.281-0.582-0.453-0.863c-0.094-0.156-0.195-0.313-0.297-0.465   c-0.133-0.188-0.273-0.367-0.414-0.547c-0.18-0.215-0.359-0.43-0.563-0.629c-0.078-0.082-0.164-0.16-0.25-0.238   c-0.281-0.262-0.578-0.512-0.891-0.73c-0.008-0.004-0.008-0.008-0.016-0.008c-0.734-0.512-1.555-0.914-2.43-1.18v-0.016   c-0.781-0.238-1.602-0.391-2.469-0.391c-4.047,0-7.438,2.832-8.32,6.613l-3.82,0.004c-0.289-0.227-0.633-0.586-0.633-0.914v-15.422   c0-0.148,0.008-0.258,0.023-0.332l6.203-1.543l0.609-0.266c5.078-3.313,11.109-6.957,12.156-7.273   c0.039-0.004,3.523-0.516,6.148-0.516c0.461,0,1.141-0.016,1.969-0.039c1.258-0.031,2.867-0.074,4.586-0.074   c6.805,0,9.102,0.691,9.867,1.102c1.445,0.781,3.695,2.168,6.063,3.629c3.422,2.109,6.969,4.293,9.102,5.289   c0.617,0.289,1.391,0.613,2.266,0.973c3.586,1.496,9.594,3.996,10.703,7.223c0.984,2.848,1.266,6.102,1.336,8.113L442.705,659.885z   "/><path d="M569.257,653.008c-0.609-1.992-1.883-6.133-7.523-9.148c-3.367-1.797-9.266-5.375-13.57-7.992   c-1.719-1.043-3.203-1.945-4.219-2.547c-4.313-2.555-11.68-3.469-17.141-3.469c-0.281,0-28.461,0.164-31.938,5.93l-4.75,19.672   c-0.281,0.953-0.633,4.234,6.688,6.438l2.977,0.781c0.555,4.207,4.109,7.477,8.461,7.477c4,0,7.344-2.777,8.281-6.5h30.922   c0.93,3.723,4.273,6.5,8.281,6.5c4,0,7.344-2.777,8.281-6.5h5.992v-2C569.999,661.008,569.976,655.359,569.257,653.008z    M508.241,666.148c-2.461,0-4.445-1.965-4.547-4.406c0-0.063-0.031-0.113-0.031-0.18c0-0.676,0.164-1.305,0.43-1.887   c0.719-1.582,2.297-2.699,4.148-2.699c1.828,0,3.391,1.102,4.117,2.672c0.281,0.586,0.453,1.227,0.453,1.914   c0,0.766-0.234,1.453-0.563,2.086C511.483,665.113,509.999,666.148,508.241,666.148z M555.726,666.148   c-2.523,0-4.578-2.055-4.578-4.586c0-2.527,2.055-4.586,4.578-4.586s4.578,2.059,4.578,4.586   C560.304,664.094,558.249,666.148,555.726,666.148z M564.062,659.648c-0.875-3.813-4.273-6.672-8.336-6.672   s-7.461,2.859-8.336,6.672h-30.82c-0.875-3.813-4.266-6.672-8.328-6.672c-3.703,0-6.836,2.375-8.031,5.676l-2.32-0.613   c-2.727-0.82-3.594-1.625-3.836-1.914l4.367-18.414c2.203-2.063,17.406-3.859,28.383-3.859c6.195,0,12.125,1.145,15.109,2.91   c1.008,0.598,2.477,1.492,4.18,2.527c4.344,2.637,10.297,6.25,13.758,8.102c4.195,2.238,5.07,5.09,5.586,6.793   c0.305,0.988,0.469,3.395,0.539,5.465H564.062z"/><path d="M250.018,662c0,5.523,4.477,10,10,10c4.836,0,8.867-3.434,9.797-8h32.406c0.922,4.566,4.961,8,9.797,8s8.867-3.434,9.797-8   h4.203h4v-4h-0.055c-0.188-6.605-1.281-12.828-7.945-16.16c-12-4-20-15.84-40-15.84h-8c-14.617,0-22.539,10.246-23.797,24.02   C249.854,656.289,250.018,662,250.018,662z M325.924,660h-4.109c-0.93-4.566-4.961-8-9.797-8s-8.875,3.434-9.797,8h-32.406   c-0.93-4.566-4.961-8-9.797-8c-2.195,0-4.203,0.727-5.852,1.918l0.531-4.855c1.438-7.453,5.891-17.063,19.32-17.063h8   c11.883,0,19.117,4.59,26.109,9.023c3.844,2.438,7.828,4.461,12.336,6.512C323.526,648.93,325.487,651.324,325.924,660z    M306.018,662c0-3.309,2.688-6,6-6c3.305,0,6,2.691,6,6s-2.695,6-6,6C308.706,668,306.018,665.309,306.018,662z M254.018,662   c0-3.309,2.688-6,6-6c3.305,0,6,2.691,6,6s-2.695,6-6,6C256.706,668,254.018,665.309,254.018,662z"/><path d="M801.313,640.885c-0.297-0.102-7.266-2.434-14.25-2.855l-14.047-11.461h-29.242l-0.477,0.289   c-2.023,1.219-12.109,7.582-12.109,13.137c0,4.516-1.102,12.664-1.133,12.992c-0.016,1.527,0.039,9.305,2.875,12.176   c0.805,0.816,1.797,1.246,2.867,1.246h1.539c1.867,4.129,6,7.023,10.82,7.023s8.953-2.895,10.82-7.023h20.727   c1.867,4.129,6,7.023,10.82,7.023s8.953-2.895,10.82-7.023h1.992l0.602-0.754c0.203-0.246,4.859-6.164,5.969-13.816   C810.22,648.9,808.79,642.826,801.313,640.885z M748.157,669.432c-4.352,0-7.891-3.543-7.891-7.895   c0-4.348,3.539-7.887,7.891-7.887s7.891,3.539,7.891,7.887C756.048,665.889,752.509,669.432,748.157,669.432z M790.524,669.432   c-4.352,0-7.891-3.543-7.891-7.895c0-4.348,3.539-7.887,7.891-7.887s7.891,3.539,7.891,7.887   C798.415,665.889,794.876,669.432,790.524,669.432z M805.938,651.338c-0.57,3.91-2.297,7.371-3.594,9.527   c-0.352-6.238-5.492-11.215-11.82-11.215c-6.555,0-11.891,5.332-11.891,11.887c0,0.305,0.063,0.59,0.086,0.887   c0-0.004,0-0.008,0-0.012l-18.758,0.008c0.023-0.297,0.086-0.578,0.086-0.883c0-6.555-5.336-11.887-11.891-11.887   s-11.891,5.332-11.891,11.887c0,0.305,0.063,0.59,0.086,0.887h-0.492c-0.859-0.457-1.852-4.75-1.82-9.145   c0.047-0.344,1.148-8.5,1.148-13.285c0-2.066,4.93-6.457,9.711-9.426h26.695l13.961,11.395l0.664,0.031   c6.625,0.273,13.742,2.656,13.953,2.723C806.188,646.279,805.97,650.912,805.938,651.338z"/><path d="M444.45,865.738c-4.211-4.266-10.969-6.43-20.086-6.43h-14.395v26.742h-5.383l-28.035-28.016l-3.418,1.414v24.508h4.004   v-19.68l21.793,21.773h-4.809c-1.133-0.07-11.184-0.477-15.16,1.961c-0.254,0.156-0.523,0.305-0.813,0.453   c-4.059,2.188-8.023,5.656-8.023,21.563h0.07c-0.125,0.625-0.195,1.273-0.195,1.938c0,5.523,4.48,10,10.008,10   c4.824,0,8.852-3.414,9.797-7.953h32.445c0.949,4.539,4.977,7.953,9.797,7.953c4.824,0,8.852-3.414,9.797-7.953h8.117v-26.5   l0.016-1.859C450.063,879.707,450.18,871.559,444.45,865.738z M380.008,917.965c-3.313,0-6.004-2.688-6.004-6   c0-3.305,2.691-6,6.004-6s6.004,2.695,6.004,6C386.012,915.277,383.321,917.965,380.008,917.965z M432.047,917.965   c-3.309,0-6.004-2.688-6.004-6c0-3.305,2.695-6,6.004-6c3.313,0,6.008,2.695,6.008,6   C438.055,915.277,435.36,917.965,432.047,917.965z M445.977,885.598l-0.02,24.414h-4.098c-0.91-4.586-4.953-8.047-9.813-8.047   s-8.898,3.461-9.813,8.047h-32.414c-0.91-4.586-4.953-8.047-9.813-8.047c-2.082,0-4.012,0.633-5.609,1.719   c0.848-9.078,3.563-10.57,5.648-11.695c0.355-0.188,0.691-0.375,1.008-0.57c2.215-1.352,9.063-1.563,12.965-1.367h19.953v-26.742   h10.391c8.008,0,13.805,1.766,17.23,5.242C446.153,873.168,446.051,880.355,445.977,885.598z"/><path d="M557.977,894.719H570v-4.004h-12.023V894.719z M541.832,883.703l1.004-0.57l0.215-25.684c0-3.316-2.691-6.012-6.012-6.012   h-14.227c-3.313,0-6.012,2.695-6.012,6.012v24.824l10.375,8.477h-28.207l-8.438,27.305c-0.25,1-1.395,6.102,0.734,8.828   c0.816,1.055,1.996,1.594,3.383,1.641v0.039h14.402l12.816-33.805h5.914v13.898c0,2.602-2.586,4.156-6.918,4.156h-2.004v4.008   h2.004c8.059,0,10.926-4.398,10.926-8.164v-13.898h22.191v-4.008h-21.203L541.832,883.703z M506.285,924.555H494.82   c-0.293,0-0.344-0.07-0.395-0.133c-0.602-0.773-0.488-3.461-0.039-5.289l7.539-24.375h15.656L506.285,924.555z M520.809,857.449   c0-1.105,0.898-2.004,2.004-2.004h14.227c1.109,0,2.004,0.898,2.004,1.988l-0.102,11.988h-18.133V857.449z M529.965,887.859   l-9.156-7.488v-6.941h18.102l-0.063,7.484L529.965,887.859z M557.977,882.699v4.008L570,882.699v-4.008L557.977,882.699z    M557.977,902.734L570,906.742v-4.008l-12.023-4.008V902.734z"/><path d="M686.549,516.533c0.965,0,1.754-0.773,1.754-1.746v-3.609h-11.004v-13.141c0,0-2.094,0-10.094,0h-7.277   c-7.637,0-13.828,6.188-13.828,13.824v7.406c-3.73-0.609-9.242-0.852-13.387,2.445c-3.641,2.898-5.488,7.883-5.488,14.816   c0,14.98-3.004,16.289-11.027,19.793c-1.383,0.602-2.883,1.258-4.5,2.039l1.742,3.602c1.566-0.758,3.02-1.391,4.359-1.977   c9.066-3.957,13.426-6.605,13.426-23.457c0-5.656,1.34-9.586,3.977-11.684c3.176-2.523,7.793-2.102,10.898-1.516v10.953   c0,7.637,6.191,13.828,13.828,13.828h7.277l10.094-0.023v-13.121h9.25c0.965,0,1.754-0.773,1.754-1.746v-3.609h-11.004v-13.078   H686.549z M673.299,544.096l-6.094,0.016h-7.277c-5.418,0-9.828-4.41-9.828-9.828v-22.422c0-5.418,4.41-9.824,9.828-9.824h13.371   V544.096z"/><path d="M805.992,506.51h-7.637v-5.668c0-3.316-2.695-6.012-6.012-6.012h-9.914v2.004c0,0.703,0.016,1.148,0.027,1.645   c0.02,0.559,0.035,1.176,0.035,2.363v5.668h-24.258v-5.668c0-1.188,0.016-1.805,0.035-2.363c0.012-0.496,0.027-0.941,0.027-1.645   v-2.004h-9.922c-3.313,0-6.012,2.695-6.012,6.012v5.668h-8.355c-2.215,0-4.008,1.797-4.008,4.008v50.645   c0,2.211,1.793,4.008,4.008,4.008h71.984c2.215,0,4.008-1.797,4.008-4.008v-50.645C810,508.307,808.207,506.51,805.992,506.51z    M792.344,498.838c1.109,0,2.008,0.898,2.008,2.004v5.668H786.5v-5.668c0-0.922-0.008-1.52-0.023-2.004H792.344z M746.371,500.842   c0-1.105,0.898-2.004,2.004-2.004h5.875c-0.012,0.484-0.023,1.082-0.023,2.004v5.668h-7.855V500.842z M805.992,561.162h-71.984   v-50.645h71.984V561.162z M768.563,536.459v12.535c0,0,1.121,0.23,1.52-0.641l6.66-15.469c0.266-0.613,0.148-1.02,0.148-1.02   l-6.645-0.027l0.008-11.945c0,0-1.043-0.254-1.488,0.578l-6.703,14.898c-0.281,0.602-0.156,1.09-0.156,1.09H768.563z"/><g><path d="M880.146,541.162l6.66-15.469c0.266-0.613,0.148-1.02,0.148-1.02l-6.645-0.027l0.008-11.945c0,0-1.039-0.254-1.484,0.578    l-6.711,14.898c-0.281,0.602-0.156,1.09-0.156,1.09h6.664v12.535C878.631,541.803,879.748,542.033,880.146,541.162z"/><path d="M854.068,505.869h51.988v12.969h4.008v-12.969c0-2.211-1.793-4.008-4.008-4.008h-5.637v-5.668    c0-3.316-2.695-6.012-6.008-6.012h-9.918v2.004c0,0.703,0.016,1.148,0.027,1.645c0.02,0.559,0.039,1.176,0.039,2.363v5.668h-8.262    v-5.668c0-1.188,0.02-1.805,0.035-2.363c0.016-0.496,0.027-0.941,0.027-1.645v-2.004h-9.922c-3.316,0-6.012,2.695-6.012,6.012    v5.668h-6.359c-2.211,0-4.004,1.797-4.004,4.008v42.645c0,2.211,1.793,4.008,4.004,4.008h34.297v-4.008h-34.297V505.869z     M894.412,494.189c1.102,0,2,0.898,2,2.004v5.668h-7.848v-5.668c0-0.922-0.012-1.52-0.023-2.004H894.412z M864.436,496.193    c0-1.105,0.898-2.004,2.004-2.004h5.879c-0.016,0.484-0.027,1.082-0.027,2.004v5.668h-7.855V496.193z"/><path d="M891.889,534.389c0,5.922,8.18,10.391,19.023,10.391s19.023-4.469,19.023-10.391s-8.18-10.391-19.023-10.391    S891.889,528.467,891.889,534.389z M910.912,527.998c8.598,0,15.023,3.375,15.023,6.391s-6.426,6.391-15.023,6.391    s-15.023-3.375-15.023-6.391S902.314,527.998,910.912,527.998z"/><path d="M928.068,542.361c-1.047-0.387-2.184,0.172-2.555,1.211c-0.977,2.754-6.813,5.598-14.883,5.598    c-8.031,0-13.867-2.836-14.867-5.578c-0.379-1.035-1.531-1.57-2.563-1.191c-1.039,0.379-1.574,1.527-1.195,2.566    c1.766,4.828,9.426,8.203,18.625,8.203c9.25,0,16.922-3.395,18.652-8.254C929.654,543.873,929.107,542.732,928.068,542.361z"/><path d="M928.068,550.686c-1.047-0.387-2.184,0.172-2.555,1.211c-0.98,2.754-6.813,5.602-14.883,5.602    c-8.031,0-13.867-2.836-14.867-5.582c-0.379-1.035-1.531-1.57-2.563-1.191c-1.039,0.379-1.574,1.527-1.195,2.566    c1.766,4.832,9.426,8.207,18.625,8.207c9.25,0,16.922-3.395,18.652-8.258C929.654,552.197,929.107,551.057,928.068,550.686z"/><path d="M928.068,559.01c-1.047-0.391-2.184,0.172-2.555,1.211c-0.977,2.754-6.813,5.598-14.883,5.598    c-8.031,0-13.867-2.836-14.867-5.578c-0.379-1.035-1.531-1.57-2.563-1.191c-1.039,0.379-1.574,1.527-1.195,2.566    c1.766,4.828,9.426,8.203,18.625,8.203c9.25,0,16.922-3.395,18.652-8.254C929.654,560.521,929.107,559.381,928.068,559.01z"/></g><path d="M640,141.012c0.012-1.004,0.355-6.012,6-6.012h7.984c0.613,0.004,6.016,0.215,6.016,6v4h4v-4c0-7.844-6.531-9.973-10-10h-8   c-7.91,0-10,6.539-10,10v4h4V141.012z M638.387,196.871L650,190.766l11.609,6.105l-2.215-12.934l9.395-9.156l-12.984-1.887   L650,161.129l-5.805,11.766l-12.984,1.887l9.391,9.156L638.387,196.871z M639.805,177.574l4.965-0.723l2.082-0.301l0.93-1.887   l2.219-4.496l2.219,4.496l0.93,1.887l2.082,0.301l4.961,0.723l-3.59,3.496l-1.504,1.469l0.355,2.074l0.844,4.945l-4.434-2.336   L650,186.246l-1.859,0.977l-4.445,2.336l0.848-4.945l0.355-2.074l-1.504-1.465L639.805,177.574z M618,149v48   c0,4.824,3.195,12,12,12h40c4.824,0,12-3.195,12-12v-48H618z M678,197c0,8-8,8-8,8s-32,0-40,0s-8-8-8-8v-44h56   C678,153,678,189,678,197z"/><g><polygon points="748.004,193.758 748.004,144.699 751.66,148.355 754.488,145.527 746.004,137.043 737.52,145.527     740.348,148.355 744.004,144.738 744.004,193.793 740.348,190.137 737.52,192.965 746.004,201.449 754.488,192.965     751.66,190.137   "/><path d="M798.824,177.941c-2.273-2.309-5.523-3.48-9.641-3.48l-4.367-0.023c-0.371-0.691-0.906-1.684-1.531-2.84    c1.898-2.523,3.066-5.617,3.066-9.008c0-8.313-6.762-15.07-15.078-15.07c-8.309,0-15.066,6.758-15.066,15.07    s6.758,15.07,15.066,15.07c0.082,0,0.16-0.02,0.238-0.023c0.875,1.75,1.477,2.961,1.492,2.984l0.75,1.383    c-0.488-0.133-0.992-0.203-1.512-0.203c-3.207,0-5.813,2.609-5.813,5.816c0,2.281,1.34,4.363,3.387,5.285l5.371,2.547    c0.809,3.102,3.805,7.508,11.113,7.508c1.105,0,2-0.898,2-2c0-1.109-0.895-2-2-2c-6.563,0-7.285-4.57-7.344-5.07    c-0.07-0.703-0.5-1.316-1.133-1.617l-6.328-3c-0.656-0.297-1.066-0.93-1.066-1.652c0-1,0.813-1.816,1.813-1.816    c0.27,0,0.523,0.059,1.012,0.266l3.281,1.039l0.281,0.504c0.539,0.957,1.746,1.301,2.711,0.762    c0.961-0.531,1.313-1.742,0.789-2.703l-3.766-6.898c0,0-5.168-10.367-7.453-14.922c-0.438-0.879-0.43-1.68,0.035-2.387    c0.52-0.789,1.531-1.289,2.461-1.25c0.828,0.051,1.48,0.531,1.934,1.434c2.32,4.633,8.09,15.289,8.336,15.742    c0.348,0.641,1.016,1.039,1.75,1.047l5.563,0.027c3.016,0,5.305,0.77,6.801,2.289c2.59,2.629,2.527,7.102,2.496,9.25l-0.008,8.551    c0,1.102,0.895,2,2,2s2-0.898,2-2l0.008-8.492C802.504,187.574,802.59,181.762,798.824,177.941z M781.113,167.527    c-1.512-2.836-3.07-5.797-4.016-7.68c-1.09-2.172-3.012-3.5-5.27-3.629c-2.402-0.137-4.73,1.059-6.035,3.043    c-1.254,1.902-1.352,4.227-0.266,6.383c0.98,1.961,2.5,5,3.914,7.832c-5.23-0.879-9.234-5.41-9.234-10.887    c0-6.105,4.965-11.07,11.066-11.07c6.109,0,11.078,4.965,11.078,11.07C782.352,164.379,781.879,166.043,781.113,167.527z"/></g><path d="M779.574,10.024h-19.148v19.951h19.148V10.024z M775.574,25.976h-11.148V14.024h11.148V25.976z M744.098,51.847h23.93   v14.053h4V51.847h24v14.053h4V47.823h-28V34.046h-4v13.777h-28.055v18.076h4.125V51.847z M788.426,70.024v19.951h19.148V70.024   H788.426z M803.574,85.976h-11.148V74.024h11.148V85.976z M760.426,89.976h19.148V70.024h-19.148V89.976z M764.426,74.024h11.148   v11.951h-11.148V74.024z M732.426,89.976h19.148V70.024h-19.148V89.976z M736.426,74.024h11.148v11.951h-11.148V74.024z"/><g><path d="M26.465,23.885v35.844H90V23.885H26.465z M86,33.596c-3.434-0.5-6.107-2.807-6.619-5.711H86V33.596z M75.369,55.729    H41.086c-0.527-5.082-4.965-9.117-10.621-9.703v-8.438c5.656-0.586,10.098-4.621,10.625-9.703h34.285    c0.527,5.084,4.965,9.119,10.625,9.703v8.438C80.338,46.609,75.895,50.648,75.369,55.729z M37.084,27.885    c-0.512,2.902-3.186,5.209-6.619,5.711v-5.711H37.084z M30.465,50.02c3.432,0.5,6.104,2.807,6.615,5.709h-6.615V50.02z     M79.377,55.729c0.508-2.906,3.186-5.211,6.623-5.711v5.711H79.377z"/><path d="M58.23,31.002c-5.953,0-10.797,4.848-10.797,10.805s4.844,10.805,10.797,10.805s10.801-4.848,10.801-10.805    S64.184,31.002,58.23,31.002z M58.23,48.611c-3.75,0-6.797-3.055-6.797-6.805s3.047-6.805,6.797-6.805s6.801,3.055,6.801,6.805    S61.98,48.611,58.23,48.611z"/><polygon points="22.254,32.033 18.242,32.033 18.242,67.877 81.777,67.877 81.777,63.877 22.242,63.877   "/><polygon points="14.004,40.275 10,40.275 10,76.115 73.535,76.115 73.535,72.064 14,72.115   "/></g><path d="M86,168h-8.102C76.914,154.158,65.844,143.086,52,142.102V134h-4v8.102C34.16,143.086,23.09,154.158,22.102,168H14v4h8.102   C23.09,185.842,34.16,196.914,48,197.898V206h4v-8.102c13.844-0.984,24.914-12.057,25.898-25.898H86V168z M52,193.898V182h-4   v11.898c-11.637-0.967-20.93-10.26-21.898-21.898H38v-4H26.102C27.07,156.361,36.363,147.068,48,146.102V158h4v-11.898   c11.641,0.967,20.934,10.26,21.898,21.898H62v4h11.898C72.934,183.639,63.641,192.932,52,193.898z"/></g></svg>