<svg xmlns="http://www.w3.org/2000/svg" viewBox="0 0 24 30"><path d="M21.58 13A2.503 2.503 0 0 0 24 10.5C24 9.122 22.878 8 21.5 8c-.17 0-.337.015-.5.044V6.5C21 4.02 18.98 2 16.5 2h-9C5.02 2 3 4.02 3 6.5v1.544A2.843 2.843 0 0 0 2.5 8 2.503 2.503 0 0 0 0 10.5 2.503 2.503 0 0 0 2.42 13c.116.083.42.437.53 1.066A2.502 2.502 0 0 0 1 16.5c0 1.207.86 2.217 2 2.45v1.55c0 .827.673 1.5 1.5 1.5h1c.827 0 1.5-.673 1.5-1.5V19h10v1.5c0 .827.673 1.5 1.5 1.5h1c.827 0 1.5-.673 1.5-1.5v-1.55c1.14-.233 2-1.244 2-2.45a2.502 2.502 0 0 0-1.95-2.434c.11-.63.414-.982.53-1.067zM23 10.5c0 .827-.673 1.5-1.5 1.5-.528 0-1.296.78-1.466 2h-2.01c.193-2.176 1.594-5 3.476-5 .827 0 1.5.673 1.5 1.5zm-19-4C4 4.57 5.57 3 7.5 3h9C18.43 3 20 4.57 20 6.5v1.914c-1.725.98-2.823 3.526-2.98 5.586H6.98C6.823 11.94 5.725 9.393 4 8.414V6.5zM2.5 12c-.827 0-1.5-.673-1.5-1.5S1.673 9 2.5 9c1.882 0 3.283 2.824 3.477 5h-2.01c-.172-1.22-.94-2-1.467-2zM6 20.5a.5.5 0 0 1-.5.5h-1a.5.5 0 0 1-.5-.5V19h2v1.5zm13.5.5h-1a.5.5 0 0 1-.5-.5V19h2v1.5a.5.5 0 0 1-.5.5zm2.5-4.5c0 .827-.673 1.5-1.5 1.5h-17c-.827 0-1.5-.673-1.5-1.5S2.673 15 3.5 15h17c.827 0 1.5.673 1.5 1.5z"/><path d="M7 8.5a.5.5 0 0 0 .5.5c.288 0 .646-.185 1-.45.354.265.712.45 1 .45a.504.504 0 0 0 .504-.5c0-.276-.22-.5-.497-.5-.068-.008-.164-.06-.268-.13.433-.488.76-1.023.76-1.37 0-.276-.223-.513-.5-.513s-.498.21-.498.486c-.03.15-.244.44-.504.73C8.24 6.918 8.03 6.637 8 6.5a.5.5 0 0 0-1 0c0 .347.327.882.76 1.37a.767.767 0 0 1-.265.13.5.5 0 0 0-.495.5zM14 8.5a.5.5 0 0 0 .5.5c.288 0 .646-.185 1-.45.354.265.712.45 1 .45a.504.504 0 0 0 .504-.5c0-.276-.22-.5-.497-.5-.068-.008-.164-.06-.268-.13.433-.488.76-1.023.76-1.37a.51.51 0 0 0-.5-.513c-.275 0-.498.21-.498.486-.03.15-.244.44-.504.73-.258-.284-.468-.565-.498-.703a.5.5 0 0 0-1 0c0 .347.327.882.76 1.37a.767.767 0 0 1-.265.13.5.5 0 0 0-.495.5z"/><text y="39" font-size="5" font-weight="bold" font-family="'Helvetica Neue', Helvetica, Arial-Unicode, Arial, Sans-serif">Created by icon 54</text><text y="44" font-size="5" font-weight="bold" font-family="'Helvetica Neue', Helvetica, Arial-Unicode, Arial, Sans-serif">from the Noun Project</text></svg>