<svg xmlns="http://www.w3.org/2000/svg" viewBox="-255 347 100 125"><style>.st0{enable-background:new}.st1{fill:#FFF}.st2{stroke:#FFF;stroke-miterlimit:10}.st2,.st3{fill:none}</style><path d="M-447 347h185v99h-185zM-255 311h100v30h-100z"/><text transform="translate(-189 327.5)" class="st1" font-family="'Helvetica'" font-size="2.4">http://thenounproject.com</text><text transform="translate(-247.834 322.5)" class="st1" font-family="'Helvetica-Bold'" font-size="6.158">The Noun Project</text><text transform="translate(-246.714 327.3)" class="st1" font-family="'Helvetica-Bold'" font-size="4">Icon Template</text><text transform="translate(-433.5 357.5)" class="st1" font-family="'Helvetica-Bold'" font-size="6.158">Reminders</text><path class="st2" d="M-247 332.5h10M-434 363.5h17"/><path class="st1" d="M-425.8 378.3h8.7v8.6h-8.7z"/><path class="st1" d="M-419.5 389.3h4.7v-4.7h-4.7v4.7zm5.2.4h-5.6v-5.6h5.6v5.6zm-6.9 1.4h8.3v-8.2h-8.3v8.2zm8.7.4h-9.2v-9.1h9.2v9.1z"/><path class="st1" d="M-421.1 391.1l-.2-.1 8.3-8.2.1.1z"/><path class="st3" d="M-434 405h35v32.5h-35z"/><text transform="translate(-434 407.157)" class="st1" font-family="'Helvetica-Bold'" font-size="3">Strokes</text><text transform="translate(-434 412.157)" class="st1" font-family="'Helvetica'" font-size="2.4">Try to keep strokes at 4px</text><text transform="translate(-434 417.157)" class="st1" font-family="'Helvetica'" font-size="2.4">Minimum stroke weight is 2px</text><text transform="translate(-434 421.657)" class="st1" font-family="'Helvetica'" font-size="2.4">For thicker strokes use even</text><text transform="translate(-434 424.657)" class="st1" font-family="'Helvetica'" font-size="2.4">numbers: 6px, 8px etc.</text><text transform="translate(-434 429.157)" class="st1" font-family="'Helvetica-Bold'" font-size="2.4">Remember to expand strokes</text><text transform="translate(-434 432.157)" class="st1" font-family="'Helvetica-Bold'" font-size="2.4">before saving as an SVG</text><path class="st3" d="M-391.5 405h35v32.5h-35z"/><text transform="translate(-391.5 407.157)" class="st1" font-family="'Helvetica-Bold'" font-size="3">Size</text><text transform="translate(-391.5 412.157)" class="st1" font-family="'Helvetica'" font-size="2.4">Cannot be wider or taller than</text><text transform="translate(-391.5 415.657)" class="st1" font-family="'Helvetica'" font-size="2.4">100px (artboard size)</text><text transform="translate(-391.5 420.657)" class="st1" font-family="'Helvetica'" font-size="2.4">Scale your icon to fill as much of</text><text transform="translate(-391.5 423.657)" class="st1" font-family="'Helvetica'" font-size="2.4">the artboard as possible</text><path class="st3" d="M-349 405h35v32.5h-35z"/><text transform="translate(-349 407.157)" class="st1" font-family="'Helvetica-Bold'" font-size="3">Ungroup</text><text transform="translate(-349 412.157)" class="st1" font-family="'Helvetica'" font-size="2.4">If your design has more than one</text><text transform="translate(-349 415.157)" class="st1" font-family="'Helvetica'" font-size="2.4">shape, make sure to ungroup</text><path class="st3" d="M-305 405h35v32.5h-35z"/><text transform="translate(-305 407.157)" class="st1" font-family="'Helvetica-Bold'" font-size="3">Save as</text><text transform="translate(-305 412.157)" class="st1" font-family="'Helvetica'" font-size="2.4">Save as .SVG and make sure</text><text transform="translate(-305 415.157)" class="st1" font-family="'Helvetica'" font-size="2.4">“Use Artboards” is checked</text><text transform="matrix(1.0074 0 0 1 -380.542 377.594)" class="st1" font-family="'Helvetica'" font-size="2.573">100px</text><text transform="matrix(1.0074 0 0 1 -296 386)" class="st1" font-family="'Helvetica-Bold'" font-size="5.146">.SVG</text><path class="st1" d="M-381.5 381.8h10.3V392h-10.3zM-381.5 378.8h.5v2.3h-.5zM-371.8 378.8h.5v2.3h-.5z"/><path class="st1" d="M-382 379.3h11.2v.6H-382zM-338.8 380.8h10.3V391h-10.3zM-331.8 375.7h3.3v3.3h-3.3z"/><path class="st2" d="M-433.5 369.5h30v30h-30zM-391.5 369.5h30v30h-30zM-348.5 369.5h30v30h-30zM-304.5 369.5h30v30h-30z"/><g><path d="M-242.6 392.9c-1.2 0-2.2-1-2.2-2.2v-6.2c0-6.1 4.6-9.9 12.1-9.9h18.2c7.5 0 11.9 3.7 11.9 9.9 0 1.2-1 2.2-2.2 2.2s-2.2-1-2.2-2.2c0-3.6-2.5-5.4-7.4-5.4h-18.2c-3.5 0-7.6.9-7.6 5.4v6.2c-.2 1.2-1.2 2.2-2.4 2.2z"/><path d="M-230.9 419.5h-14.6c-1.2 0-2.2-1-2.2-2.2v-19.5c0-5.7 4.6-10.3 10.3-10.3 5.3 0 8.9 4.1 8.9 10.3v19.5c-.2 1.1-1.2 2.2-2.4 2.2zm-12.4-4.5h10.1v-17.3c0-1.7-.4-5.8-4.4-5.8-3.2 0-5.8 2.6-5.8 5.8V415zM-164.4 419.5H-179c-1.2 0-2.2-1-2.2-2.2v-19.5c0-6.2 3.6-10.3 8.9-10.3 5.7 0 10.3 4.6 10.3 10.3v19.5c-.2 1.1-1.2 2.2-2.4 2.2zm-12.4-4.5h10.1v-17.3c0-3.2-2.6-5.8-5.8-5.8-3.9 0-4.4 4-4.4 5.8V415z"/><path d="M-208.7 416.2H-231c-1.2 0-2.2-1-2.2-2.2s1-2.2 2.2-2.2h22.2c.6-.1 1.6-.3 1.6-1.4v-25.9c0-6.1 4.6-9.9 12-9.9h18.2c7.4 0 12.1 3.8 12.1 9.9v6.2c0 1.2-1 2.2-2.2 2.2s-2.2-1-2.2-2.2v-6.2c0-4.5-4.1-5.4-7.6-5.4h-18.2c-3.4 0-7.5.9-7.5 5.4v25.9c0 4.1-3.5 5.8-5.8 5.9-.2-.1-.2-.1-.3-.1z"/><path d="M-179.1 416.2h-21.8c-2.6 0-4-1-4.8-1.9-1.6-1.7-1.5-4-1.5-4.2.1-1.2 1.2-2.2 2.4-2.1 1.2.1 2.1 1.2 2.1 2.4 0 .1 0 .6.3.9.3.3.8.4 1.5.4h21.8c1.2 0 2.2 1 2.2 2.2s-.9 2.3-2.2 2.3z"/></g><g><path d="M-205 401.1c-1.2 0-2.2-1-2.2-2.2 0-4.1 3.4-5.8 5.8-5.9H-179c1.2 0 2.2 1 2.2 2.2s-1 2.2-2.2 2.2h-22.2c-.7.1-1.5.4-1.5 1.4 0 1.3-1 2.3-2.3 2.3z"/><path d="M-205 401.1h-.1c-1.2-.1-2.2-1.1-2.1-2.3 0-.1 0-.6-.3-.9-.3-.4-1-.4-1.6-.4h-21.8c-1.2 0-2.2-1-2.2-2.2s1-2.2 2.2-2.2h21.8c2.6 0 4 1 4.8 1.9 1.6 1.7 1.6 3.9 1.5 4.2 0 1-1 1.9-2.2 1.9z"/></g><text x="-255" y="462" font-size="5" font-weight="bold" font-family="'Helvetica Neue', Helvetica, Arial-Unicode, Arial, Sans-serif">Created by Joe Harrison</text><text x="-255" y="467" font-size="5" font-weight="bold" font-family="'Helvetica Neue', Helvetica, Arial-Unicode, Arial, Sans-serif">from the Noun Project</text></svg>