<svg xmlns="http://www.w3.org/2000/svg" viewBox="0 0 80 100"><circle cx="29" cy="42" r="2"/><circle cx="47" cy="42" r="2"/><circle cx="29" cy="54" r="2"/><path d="M63 61H19c-1.654 0-3-1.346-3-3V38c0-1.654 1.346-3 3-3h44c1.654 0 3 1.346 3 3v20c0 1.654-1.346 3-3 3zM19 37a1 1 0 0 0-1 1v20a1 1 0 0 0 1 1h44a1 1 0 0 0 1-1V38a1 1 0 0 0-1-1H19z"/><path d="M40 36h2v24h-2z"/><path d="M17 47h24v2H17zM61.28 28H46.72l2.5-10h9.56l2.5 10zm-12-2h9.44l-1.5-6h-6.44l-1.5 6z"/><path d="M53 27h2v8h-2z"/><path d="M50 33h8v2h-8zM33 36H20v-5h13v5zm-11-2h9v-1h-9v1z"/><path d="M35 32H22v-5h13v5zm-11-2h9v-1h-9v1z"/></svg>
