<svg xmlns="http://www.w3.org/2000/svg" viewBox="0 0 100 125"><path fill-rule="evenodd" clip-rule="evenodd" d="M79.23 39.575c-3.257-5.64-9.135-9.287-15.58-9.767V8.904l6.372 6.372 1.944-1.945-8.316-8.314v-.008H60.9l-8.323 8.323 1.944 1.945 6.38-6.378v20.9a19.674 19.674 0 0 0-11.66 4.856 20.175 20.175 0 0 0-1.647-1.06 19.636 19.636 0 0 0-9.805-2.636c-7.005 0-13.53 3.764-17.03 9.824-5.415 9.38-2.19 21.42 7.19 26.836a19.666 19.666 0 0 0 8.506 2.59v20.9l-6.38-6.38-1.943 1.943 8.324 8.323h2.75v-.01l8.316-8.315-1.946-1.944-6.37 6.372V70.19a19.74 19.74 0 0 0 11.553-4.862 19.694 19.694 0 0 0 11.477 3.715c3.43 0 6.82-.91 9.805-2.635a19.506 19.506 0 0 0 9.15-11.927 19.51 19.51 0 0 0-1.96-14.904zm-28.66 22.04a16.82 16.82 0 0 1-2.983-3.77c-3.683-6.38-2.715-14.185 1.837-19.476a16.78 16.78 0 0 1 4.663 7.86c1.168 4.36.57 8.91-1.688 12.82a16.66 16.66 0 0 1-1.83 2.565zM37.753 67.5c-2.947 0-5.862-.784-8.43-2.268-8.067-4.657-10.84-15.01-6.184-23.077a16.957 16.957 0 0 1 14.645-8.45c2.946 0 5.862.784 8.43 2.267.365.21.717.438 1.063.672-5.24 6.152-6.34 15.186-2.075 22.574a19.54 19.54 0 0 0 3.402 4.325A16.93 16.93 0 0 1 37.75 67.5zm40.782-13.73a16.78 16.78 0 0 1-7.87 10.258 16.894 16.894 0 0 1-8.43 2.267c-3.45 0-6.76-1.065-9.528-2.95a19.517 19.517 0 0 0 4.037-17.825 19.52 19.52 0 0 0-5.357-9.083 17.06 17.06 0 0 1 2.384-1.67A16.893 16.893 0 0 1 62.2 32.5c6.026 0 11.64 3.238 14.648 8.45a16.78 16.78 0 0 1 1.687 12.82z"/></svg>