<svg xmlns="http://www.w3.org/2000/svg" xmlns:xlink="http://www.w3.org/1999/xlink" version="1.1" x="0px" y="0px" viewBox="0 0 100 125" style="enable-background:new 0 0 100 100;" xml:space="preserve"><g><path d="M50,0C22.4,0,0,22.4,0,50c0,27.6,22.4,50,50,50c27.6,0,50-22.4,50-50C100,22.4,77.6,0,50,0z M50,96.3   C24.5,96.3,3.7,75.5,3.7,50S24.5,3.7,50,3.7c25.5,0,46.3,20.8,46.3,46.3S75.5,96.3,50,96.3z"/><path d="M24.6,67.3H33v11.2l14.6-11.2h26.8V31.9H24.6V67.3z M28.3,35.6h42.4v28H46.3l-9.6,7.4v-7.4h-8.4V35.6z"/><circle cx="49.5" cy="49.6" r="3.2"/><circle cx="40.2" cy="49.6" r="3.2"/><circle cx="58.8" cy="49.6" r="3.2"/></g></svg>