<svg xmlns="http://www.w3.org/2000/svg" stroke-width=".501" stroke-linejoin="bevel" fill-rule="evenodd" overflow="visible" viewBox="0 0 12 15"><g stroke-width=".75" stroke-linecap="round" stroke-miterlimit="79.84" font-family="Times New Roman" font-size="16"><path d="M2.25 5.625A4.127 4.127 0 0 1 6.376 1.5a4.127 4.127 0 0 1 4.126 4.125A4.127 4.127 0 0 1 6.376 9.75 4.127 4.127 0 0 1 2.25 5.625zm4.46 2.962a.562.562 0 0 0 .072-.1l.618-1.07h1.43a.37.37 0 0 0 .325-.174.37.37 0 0 0-.01-.372L8.43 5.635l.64-1.105a.65.65 0 0 0 .05-.115.418.418 0 0 0-.32-.553.58.58 0 0 0-.123-.012H7.4l-.694-1.203c-.15-.26-.483-.26-.633 0L5.377 3.85H4.1a.58.58 0 0 0-.123.012.42.42 0 0 0-.32.553.65.65 0 0 0 .052.114l.635 1.102L3.63 6.87a.37.37 0 0 0-.01.37.37.37 0 0 0 .328.176h1.428l.62 1.07a.5.5 0 0 0 .07.1c.18.2.463.2.643 0zm-.32-.468l-.406-.703h.81l-.405.7zM4.224 6.89l.424-.734.424.733h-.85zm1.456 0l-.07-.124-.604-1.046-.053-.09.053-.092.604-1.045.07-.123h1.417l.073.124.602 1.045.05.09-.05.09c-.166.29-.436.758-.603 1.046l-.075.125H5.68zm2.447-.734l.425.733h-.85l.425-.733zM4.65 5.108l-.424-.735h.848l-.425.734zm3.053-.736h.848l-.422.735-.424-.735zm-1.72-.525l.406-.7.402.7h-.81zM.808 9.45C.82 7.537.934 5.577.862 3.79c0-.135.07-.252.168-.298v.675c0 .113.04.205.084.205.046 0 .084-.092.084-.205v-.684a.3.3 0 0 1 .18.217v.244-.03C1.22 5.71 1.4 7.556 1.445 9.41c0 .178-.175.34-.32.34-.146 0-.318-.124-.318-.3zm10.612.055c.263-2.68.156-4.667.06-7.065a.19.19 0 0 1 .19-.19h.14a.19.19 0 0 1 .19.19v7.12a.19.19 0 0 1-.19.19h-.14c-.105 0-.25-.14-.25-.245z"/><path d="M11.14 5.53c-.25-.538-.2-2.695.44-3.252l.072 3.972c.024-.265-.38-.438-.512-.72zM.495 4.042c0-.384.003-1.13.118-1.475a.552.552 0 0 1 .07-.144v1.744c0 .113.04.205.084.205.046 0 .084-.092.084-.205V2.304a.56.56 0 0 1 .183-.014v1.877c0 .113.037.205.082.205.046 0 .084-.092.084-.205V2.324c0-.01 0-.023-.003-.034a.694.694 0 0 1 .182.01v1.867c0 .113.037.205.082.205h.002c.045 0 .083-.092.083-.205v-1.76a.61.61 0 0 1 .095.196c.102.33.1 1.082.1 1.44 0 .757-.278.998-.622.998S.495 4.8.495 4.044z"/></g></svg>