<svg xmlns="http://www.w3.org/2000/svg" viewBox="0 0 55 75"><path d="M49.5 43H34.45c.22-.37.38-.77.47-1.2a4 4 0 0 0-1.21-3.73c-1.44-1.33-2.36-2.78-2.74-4.31l-.19-.76H28v-.59l2.71-2.71a.996.996 0 0 0-1.41-1.41l-1.3 1.3v-2.73c1.72-.45 3-2 3-3.86h9V5H15v18h8c0 1.86 1.28 3.41 3 3.86V33h-2.78l-.19.76c-.38 1.53-1.3 2.98-2.74 4.31a4 4 0 0 0-1.21 3.73c.09.43.25.83.47 1.2H5.5C2.47 43 0 45.47 0 48.5S2.47 54 5.5 54h3.32l-1 6h3.8l3-6h26.76l3 6h3.8l-1-6h2.32c3.03 0 5.5-2.47 5.5-5.5S52.53 43 49.5 43zM28 24.73V21h1v2c0 .74-.4 1.39-1 1.73zM17 21V7h21v14h-7v-2h-3v-3h-5v5h-6zm8 2v-5h1v6.73c-.6-.34-1-.99-1-1.73zm-3.96 18.41c-.14-.7.09-1.4.6-1.88 1.5-1.39 2.54-2.91 3.1-4.53h4.51c.56 1.62 1.6 3.15 3.1 4.53.52.48.74 1.18.6 1.88-.17.91-1.07 1.59-2.08 1.59h-7.74c-1.01 0-1.91-.68-2.09-1.59zM10.38 58h-.2l.67-4h1.54l-2.01 4zm35.44 0h-.2l-2-4h1.54l.66 4zm3.68-6H5.5C3.57 52 2 50.43 2 48.5S3.57 45 5.5 45h44c1.93 0 3.5 1.57 3.5 3.5S51.43 52 49.5 52z"/><circle cx="19.5" cy="48.5" r="1.5"/><circle cx="35.5" cy="48.5" r="1.5"/><path d="M24 27c0-.55-.45-1-1-1H12V2h31v24H31c-.55 0-1 .45-1 1s.45 1 1 1h14V0H10v28h13c.55 0 1-.45 1-1z"/><path d="M20.29 10.29l-2 2a.996.996 0 0 0 0 1.41c.2.2.45.3.71.3s.51-.1.71-.29l2-2c.39-.39.39-1.02 0-1.41s-1.03-.4-1.42-.01zM23.71 9.71c.18-.19.29-.45.29-.71s-.11-.52-.29-.71c-.37-.37-1.05-.37-1.42 0-.18.19-.29.44-.29.71 0 .26.11.52.29.71.19.18.45.29.71.29s.52-.11.71-.29zM27 12c.26 0 .51-.1.71-.29l2-2A.996.996 0 0 0 28.3 8.3l-2 2A.996.996 0 0 0 27 12zM24.29 13.71c.19.18.45.29.71.29s.52-.11.71-.29c.19-.19.29-.45.29-.71s-.11-.52-.29-.71c-.38-.37-1.05-.37-1.42 0-.18.19-.29.44-.29.71 0 .26.11.52.29.71z"/></svg>