<svg xmlns="http://www.w3.org/2000/svg" xmlns:xlink="http://www.w3.org/1999/xlink" version="1.1" x="0px" y="0px" viewBox="0 0 55 75" enable-background="new 0 0 55 60" xml:space="preserve"><g><path d="M49.5,43H34.45c0.22-0.37,0.38-0.77,0.47-1.2c0.27-1.38-0.18-2.78-1.21-3.73c-1.44-1.33-2.36-2.78-2.74-4.31L30.78,33H28   v-0.59l2.71-2.71c0.39-0.39,0.39-1.02,0-1.41s-1.02-0.39-1.41,0L28,29.59V27v-0.14c1.72-0.45,3-2,3-3.86h9V5H15v18h8   c0,1.86,1.28,3.41,3,3.86V27v6h-2.78l-0.19,0.76c-0.38,1.53-1.3,2.98-2.74,4.31c-1.03,0.95-1.48,2.35-1.21,3.73   c0.09,0.43,0.25,0.83,0.47,1.2H5.5C2.47,43,0,45.47,0,48.5S2.47,54,5.5,54h3.32l-1,6h3.8l3-6h26.76l3,6h3.8l-1-6h2.32   c3.03,0,5.5-2.47,5.5-5.5S52.53,43,49.5,43z M28,24.73V21h1v2C29,23.74,28.6,24.39,28,24.73z M17,21V7h21v14h-7v-2h-3v-3h-5v5H17z    M25,23v-5h1v1v2v3.73C25.4,24.39,25,23.74,25,23z M21.04,41.41c-0.14-0.7,0.09-1.4,0.6-1.88c1.5-1.39,2.54-2.91,3.1-4.53h4.51   c0.56,1.62,1.6,3.15,3.1,4.53c0.52,0.48,0.74,1.18,0.6,1.88C32.78,42.32,31.88,43,30.87,43h-7.74C22.12,43,21.22,42.32,21.04,41.41   z M10.38,58h-0.2l0.67-4h1.54L10.38,58z M45.82,58h-0.2l-2-4h1.54L45.82,58z M49.5,52h-2.65h-6.46H15.62H9.15H5.5   C3.57,52,2,50.43,2,48.5S3.57,45,5.5,45h17.63h7.74H49.5c1.93,0,3.5,1.57,3.5,3.5S51.43,52,49.5,52z"/><circle cx="19.5" cy="48.5" r="1.5"/><circle cx="35.5" cy="48.5" r="1.5"/><path d="M24,27c0-0.55-0.45-1-1-1H12V2h31v24H31c-0.55,0-1,0.45-1,1s0.45,1,1,1h14V0H10v28h13C23.55,28,24,27.55,24,27z"/><path d="M20.29,10.29l-2,2c-0.39,0.39-0.39,1.02,0,1.41C18.49,13.9,18.74,14,19,14s0.51-0.1,0.71-0.29l2-2   c0.39-0.39,0.39-1.02,0-1.41S20.68,9.9,20.29,10.29z"/><path d="M23.71,9.71C23.89,9.52,24,9.26,24,9s-0.11-0.52-0.29-0.71c-0.37-0.37-1.05-0.37-1.42,0C22.11,8.48,22,8.73,22,9   c0,0.26,0.11,0.52,0.29,0.71C22.48,9.89,22.74,10,23,10S23.52,9.89,23.71,9.71z"/><path d="M27,12c0.26,0,0.51-0.1,0.71-0.29l2-2c0.39-0.39,0.39-1.02,0-1.41s-1.02-0.39-1.41,0l-2,2c-0.39,0.39-0.39,1.02,0,1.41   C26.49,11.9,26.74,12,27,12z"/><path d="M24.29,13.71C24.48,13.89,24.74,14,25,14s0.52-0.11,0.71-0.29C25.9,13.52,26,13.26,26,13s-0.11-0.52-0.29-0.71   c-0.38-0.37-1.05-0.37-1.42,0C24.11,12.48,24,12.73,24,13C24,13.26,24.11,13.52,24.29,13.71z"/></g></svg>
