<svg xmlns="http://www.w3.org/2000/svg" viewBox="0 0 100 125"><path d="M50 0C22.4 0 0 22.4 0 50s22.4 50 50 50 50-22.4 50-50S77.6 0 50 0zm14.1 40.4v16.9c0 7.4-6 13.5-13.5 13.5s-13.5-6-13.5-13.5V40.4h27zM52.5 96.2V74.3c8.5-.9 15.2-8.1 15.3-16.9V36.7h-7.9v-9c0-1-.8-1.9-1.9-1.9s-1.9.8-1.9 1.9v9h-11v-9c0-1-.8-1.9-1.9-1.9s-1.9.8-1.9 1.9v9h-7.9v20.8c.1 8.7 6.8 15.9 15.3 16.9v21.9c-24.9-.7-45-21.2-45-46.3C3.7 24.5 24.5 3.7 50 3.7S96.3 24.5 96.3 50c0 24.7-19.4 44.9-43.8 46.2z"/><path d="M46 50.8h9.3c1 0 1.9-.8 1.9-1.9 0-1-.8-1.9-1.9-1.9H46c-1 0-1.9.8-1.9 1.9 0 1.1.9 1.9 1.9 1.9zM46 58.2h9.3c1 0 1.9-.8 1.9-1.9s-.8-1.9-1.9-1.9H46c-1 0-1.9.8-1.9 1.9s.9 1.9 1.9 1.9z"/></svg>