<svg xmlns="http://www.w3.org/2000/svg" xmlns:xlink="http://www.w3.org/1999/xlink" version="1.1" x="0px" y="0px" viewBox="0 0 100 125" style="enable-background:new 0 0 100 100;" xml:space="preserve"><g><path d="M50,0C22.4,0,0,22.4,0,50c0,27.6,22.4,50,50,50c27.6,0,50-22.4,50-50C100,22.4,77.6,0,50,0z M64.1,40.4v16.9   c0,7.4-6,13.5-13.5,13.5s-13.5-6-13.5-13.5V40.4H64.1z M52.5,96.2V74.3c8.5-0.9,15.2-8.1,15.3-16.9h0V36.7h-7.9v-9   c0-1-0.8-1.9-1.9-1.9s-1.9,0.8-1.9,1.9v9H45.1v-9c0-1-0.8-1.9-1.9-1.9s-1.9,0.8-1.9,1.9v9h-7.9v20.8h0c0.1,8.7,6.8,15.9,15.3,16.9   v21.9C23.8,95.6,3.7,75.1,3.7,50C3.7,24.5,24.5,3.7,50,3.7S96.3,24.5,96.3,50C96.3,74.7,76.9,94.9,52.5,96.2z"/><path d="M46,50.8h9.3c1,0,1.9-0.8,1.9-1.9c0-1-0.8-1.9-1.9-1.9H46c-1,0-1.9,0.8-1.9,1.9C44.1,50,45,50.8,46,50.8z"/><path d="M46,58.2h9.3c1,0,1.9-0.8,1.9-1.9s-0.8-1.9-1.9-1.9H46c-1,0-1.9,0.8-1.9,1.9S45,58.2,46,58.2z"/></g></svg>
