<svg xmlns="http://www.w3.org/2000/svg" xmlns:xlink="http://www.w3.org/1999/xlink" version="1.1" x="0px" y="0px" viewBox="0 0 100 125" style="enable-background:new 0 0 100 100;" xml:space="preserve"><path d="M50,0C22.4,0,0,22.4,0,50c0,27.6,22.4,50,50,50c27.6,0,50-22.4,50-50C100,22.4,77.6,0,50,0z M50,96.3  C24.5,96.3,3.7,75.5,3.7,50S24.5,3.7,50,3.7S96.3,24.5,96.3,50S75.5,96.3,50,96.3z"/><path d="M66.9,40.9c0.1-0.8,0.2-1.7,0.2-2.5c0-9.4-7.7-17.1-17.1-17.1c-9.4,0-17.1,7.7-17.1,17.1c0,0.9,0.1,1.7,0.2,2.5  c-6.3,2.5-10.8,8.7-10.8,15.9c0,9.4,7.7,17.1,17.1,17.1c4,0,7.7-1.4,10.6-3.7c2.9,2.3,6.6,3.7,10.6,3.7c9.4,0,17.1-7.7,17.1-17.1  C77.7,49.6,73.2,43.4,66.9,40.9z M36.6,38.4C36.6,31,42.6,25,50,25s13.4,6,13.4,13.4c0,0.5,0,1-0.1,1.5c-0.9-0.1-1.8-0.2-2.7-0.2  c-4,0-7.7,1.4-10.6,3.7c-2.9-2.3-6.6-3.7-10.6-3.7c-0.9,0-1.8,0.1-2.7,0.2C36.7,39.4,36.6,38.9,36.6,38.4z M52.8,56.8  c0,3.1-1,5.9-2.8,8.1c-1.7-2.3-2.8-5.1-2.8-8.1c0-0.5,0-1,0.1-1.5c0.9,0.1,1.8,0.2,2.7,0.2c0.9,0,1.8-0.1,2.7-0.2  C52.7,55.8,52.8,56.3,52.8,56.8z M50,51.8c-0.6,0-1.2-0.1-1.8-0.1c0.5-1.1,1-2.1,1.8-3c0.7,0.9,1.3,1.9,1.8,3  C51.2,51.7,50.6,51.8,50,51.8z M44.7,50.7c-3.2-1.4-5.7-3.9-7-7.1c0.6-0.1,1.2-0.1,1.8-0.1c3,0,5.7,1,7.9,2.6  C46.2,47.4,45.3,49,44.7,50.7z M52.7,46.1c2.2-1.6,5-2.6,7.9-2.6c0.6,0,1.2,0.1,1.8,0.1c-1.3,3.2-3.9,5.7-7,7.1  C54.7,49,53.8,47.4,52.7,46.1z M26,56.8c0-5.5,3.3-10.2,8-12.3c1.7,4.4,5.2,8,9.6,9.7c-0.1,0.8-0.2,1.7-0.2,2.5  c0,4.1,1.4,7.8,3.8,10.8c-2.2,1.6-5,2.6-7.9,2.6C32,70.2,26,64.2,26,56.8z M60.6,70.2c-3,0-5.7-1-7.9-2.6c2.4-2.9,3.8-6.7,3.8-10.8  c0-0.9-0.1-1.7-0.2-2.5c4.4-1.8,7.9-5.3,9.6-9.7c4.7,2.1,8,6.8,8,12.3C74,64.2,68,70.2,60.6,70.2z"/></svg>