<svg xmlns="http://www.w3.org/2000/svg" viewBox="0 0 100 100"><path d="M79.6 48.5c0-5-7.3-8.9-16.6-8.9-3.3 0-6.3.5-8.8 1.3V21.3c0-5-7.3-8.9-16.6-8.9S21 16.3 21 21.3V62c0 5 7.3 8.9 16.6 8.9 3.2 0 6.2-.5 8.8-1.4v9.6c0 5 7.3 8.9 16.6 8.9s16.6-3.9 16.6-8.9V48.5zm-33.3.7v8.9c-2.6.9-5.7 1.5-8.8 1.5-8.4 0-15.4-3.5-15.4-7.7v-6.7c2.5 3.3 8.4 5.5 15.4 5.5 3.1-.1 6.2-.6 8.8-1.5zm32.1 19.7c0 4.2-7.1 7.7-15.4 7.7s-15.4-3.5-15.4-7.7v-6.8c2.5 3.3 8.4 5.5 15.4 5.5s13-2.2 15.4-5.5v6.8zm0-16.9v6.7c0 4.2-7.1 7.7-15.4 7.7s-15.4-3.5-15.4-7.7V52c0 .1.1.1.1.2.2.2.3.4.5.6l.2.2c.2.2.4.3.6.5l.2.2.9.6c.1 0 .1.1.2.1.3.2.5.3.8.5.1.1.2.1.3.2.3.1.5.3.8.4.1 0 .2.1.3.1.4.2.8.3 1.1.5.1 0 .1 0 .2.1.3.1.7.2 1.1.3.1 0 .3.1.4.1.3.1.6.2 1 .2.1 0 .3.1.4.1.5.1.9.2 1.4.3h.1c.4.1.9.1 1.3.2h.5c.4 0 .7.1 1.1.1h4.2c.4 0 .7-.1 1.1-.1h.5c.5-.1.9-.1 1.3-.2h.1c.5-.1.9-.2 1.4-.3.1 0 .3-.1.4-.1.3-.1.6-.2 1-.2.1 0 .3-.1.4-.1.4-.1.7-.2 1.1-.3.1 0 .1 0 .2-.1.4-.1.8-.3 1.1-.5.1 0 .2-.1.3-.1.3-.1.5-.2.8-.4.1-.1.2-.1.3-.2.3-.2.5-.3.8-.5.1 0 .1-.1.2-.1l.9-.6.2-.2c.2-.2.4-.3.6-.5l.2-.2c.2-.2.3-.4.5-.6-.4-.1-.4-.1-.3-.2zm0-3.5c0 4.2-7.1 7.7-15.4 7.7s-15.4-3.5-15.4-7.7v-.2c0-.2 0-.5.1-.7 0-.1.1-.2.1-.3 0-.1.1-.3.2-.4.1-.2.2-.3.2-.5 0-.1.1-.2.1-.2 2.1-3.1 7.9-5.3 14.6-5.3 8.4-.1 15.5 3.4 15.5 7.6zm-40.9-35c8.4 0 15.4 3.5 15.4 7.7s-7.1 7.7-15.4 7.7c-8.4 0-15.4-3.5-15.4-7.7 0-4.1 7-7.7 15.4-7.7zM22.2 24.9c.2.2.3.4.5.6l.2.2c.2.2.4.3.6.5l.2.2.9.6.1.1c.3.2.5.3.8.5.1.1.2.1.3.2.3.1.5.3.8.4.1 0 .2.1.3.1.4.2.8.3 1.2.5h.1c.4.1.7.2 1.1.4.1 0 .3.1.4.1.3.1.6.2 1 .3.1 0 .3.1.4.1.5.1.9.2 1.4.3h.1c.4.1.9.1 1.3.2h.4c.4 0 .7.1 1.1.1h4.2c.4 0 .7-.1 1.1-.1h.4c.5-.1.9-.1 1.3-.2h.1c.5-.1.9-.2 1.4-.3.1 0 .3-.1.4-.1.3-.1.7-.2 1-.3.1 0 .3-.1.4-.1.4-.1.7-.2 1.1-.4h.1c.4-.1.8-.3 1.2-.5.1 0 .2-.1.3-.1.3-.1.5-.3.8-.4.1-.1.2-.1.3-.2.3-.2.6-.3.8-.5l.1-.1.9-.6.2-.2c.2-.2.4-.3.6-.5l.2-.2c.2-.2.4-.4.5-.6l.1-.1v6.7c0 4.2-7.1 7.7-15.4 7.7-8.4 0-15.4-3.5-15.4-7.7v-6.7c.1 0 .1 0 .1.1zm.7 10.9c.8.7 1.7 1.4 2.8 2 3 1.6 7.1 2.6 11.8 2.6 4.7 0 8.8-1 11.8-2.6 1.1-.6 2-1.3 2.8-2l.1-.1c.3-.3.5-.5.7-.8v6.5c-.1 0-.2.1-.3.2l-.6.3c-.2.1-.5.2-.7.3-.2.1-.3.2-.5.3-.2.1-.4.3-.6.4-.1.1-.2.2-.4.3-.8.6-1.5 1.2-2 1.9 0 .1-.1.1-.1.2-.1.2-.2.3-.3.5-.1.1-.2.3-.2.4-.1.1-.1.3-.2.4-.1.2-.2.3-.2.5 0 .1-.1.2-.1.3-.1.2-.1.4-.1.6v.1c-2.6.9-5.7 1.4-8.9 1.4-8.4 0-15.4-3.5-15.4-7.7v-6.7c0 .1.2.3.6.7-.1-.1 0 0 0 0zM22.1 62v-6.7c.1.1.2.2.3.4l.3.3.4.4c.1.1.2.2.3.2.5.5 1.2.9 1.9 1.3.1 0 .1.1.2.1.2.1.5.3.7.4.1 0 .1.1.2.1 1.1.6 2.4 1 3.8 1.4h.1c1.4.4 3 .6 4.7.8h.1c.8.1 1.7.1 2.6.1 1.5 0 3-.1 4.4-.3h.2c.7-.1 1.3-.2 1.9-.4.1 0 .2 0 .3-.1.6-.2 1.2-.3 1.8-.5.1 0 .1 0 .2-.1v8.9c-2.6.9-5.7 1.4-8.8 1.4-8.6 0-15.6-3.5-15.6-7.7zm56.3 17.2c0 4.2-7.1 7.7-15.4 7.7s-15.4-3.5-15.4-7.7v-6.7C50.1 75.8 56 78 63 78s13-2.2 15.4-5.5v6.7z"/></svg>