<svg xmlns="http://www.w3.org/2000/svg" viewBox="0 0 100 125"><path d="M98.954 16.998V3.328a1.924 1.924 0 0 0-2.36-1.875L35.94 15.563a1.923 1.923 0 0 0-1.487 1.875v55.828c-2.942-2.775-7.323-4.444-12.292-4.444-2.174 0-4.374.313-6.54.932C5.6 72.62-.733 81.308 1.5 89.12c1.693 5.925 7.998 9.905 15.686 9.905 2.176 0 4.376-.313 6.54-.932 4.76-1.36 8.85-4.062 11.52-7.602 1.806-2.396 2.817-4.993 3.012-7.58.028-.13.044-.265.044-.404V32.684L95.107 19.47v39.685c-2.942-2.775-7.323-4.444-12.292-4.444-2.176 0-4.376.315-6.54.934C66.253 58.51 59.918 67.196 62.15 75.01c1.695 5.924 8 9.904 15.69 9.904 2.175 0 4.375-.313 6.54-.932 8.23-2.354 13.965-8.637 14.516-15.137.035-.145.06-.295.06-.45V16.997zM32.17 88.176c-2.167 2.877-5.542 5.085-9.502 6.217-1.82.52-3.664.784-5.482.784-5.953 0-10.77-2.858-11.987-7.114-1.65-5.772 3.5-12.325 11.48-14.607a19.92 19.92 0 0 1 5.48-.784c5.953 0 10.77 2.858 11.986 7.114.772 2.695.07 5.675-1.976 8.39zm6.132-59.442v-9.768L95.106 5.75v9.767L38.302 28.734zM83.32 80.28a19.92 19.92 0 0 1-5.48.785c-5.954 0-10.772-2.858-11.987-7.114-1.65-5.77 3.5-12.323 11.48-14.605a19.92 19.92 0 0 1 5.48-.784c5.954 0 10.772 2.86 11.987 7.115.203.71.3 1.432.306 2.156v.076c-.013 5.14-4.82 10.384-11.786 12.376z"/></svg>