<svg xmlns="http://www.w3.org/2000/svg" xmlns:xlink="http://www.w3.org/1999/xlink" version="1.1" x="0px" y="0px" viewBox="0 0 100 125" style="enable-background:new 0 0 100 100;" xml:space="preserve"><path d="M87.7104492,45.1445312c-1.2543945-3.2597656-4.3798828-5.4506836-7.9545898-5.4506836  c-1.0512695,0-2.0932617,0.1972656-3.0727539,0.5776367c-1.9067383-2.3427734-4.7392578-3.706543-7.8095703-3.706543  c-3.8466797,0-7.3422852,2.2084961-9.0336914,5.6005859c-2.3745117-0.0107422-4.6035156,1.09375-5.9838867,2.9863281  c-0.3183594-0.0458984-0.6391602-0.0693359-0.9609375-0.0693359c-2.8449097,0-5.3736572,1.8239136-6.3461304,4.4367676  c-1.4755859-0.7467651-2.8623657-1.7265015-4.093811-2.9577637c-6.2587891-6.2592773-6.2587891-16.4433594,0-22.7026367  l0.2597656-0.2456055c0.465332-0.4462891,0.59375-1.1396484,0.3188477-1.7226562  c-0.2753906-0.5830078-0.8867188-0.9262695-1.5322266-0.8500977c-5.3735352,0.6323242-10.2358398,2.9882812-14.0610352,6.8139648  c-8.2128296,8.2123413-9.324707,20.942627-2.7328491,30.4320068c-0.2284546,0.2404785-0.4551392,0.4832764-0.6636353,0.7457275  c-1.1166992-0.4511719-2.3110352-0.6865234-3.5166016-0.6865234c-3.9814453,0-7.4575195,2.4638672-8.8144531,6.1162109  c-3.6831055,0.4453125-6.5463867,3.5898438-6.5463867,7.390625c0,4.1044922,3.3393555,7.4443359,7.4443359,7.4443359h38.1401367  c4.1044922,0,7.4438477-3.3398438,7.4438477-7.4443359c0-2.4274902-1.1732788-4.5808716-2.9768677-5.9406738  c2.2055664-1.1732788,4.2867432-2.6774292,5.9446411-4.3356934c0.9227295-0.9227295,1.755249-1.9085693,2.503418-2.944458  c0.052063,0.0054932,0.1027222,0.0157471,0.15625,0.0157471h22.9692383c3.7402344,0,6.7827148-3.0429688,6.7827148-6.7822266  C93.5742188,48.4370117,91.0170898,45.5942383,87.7104492,45.1445312z M50.7509766,76.296875H12.6108398  c-2.4506836,0-4.4443359-1.9941406-4.4443359-4.4443359c0-2.4492188,1.9912109-4.4414062,4.4677734-4.4414062  c0.0195312,0,0.1254883,0.0068359,0.1420898,0.0078125c0.7290039,0.0439453,1.3515625-0.4541016,1.5175781-1.1503906  c0.6918945-2.8984375,3.2553711-4.9228516,6.2333984-4.9228516c1.1347656,0,2.2568359,0.3076172,3.2456055,0.8896484  c0.7041016,0.4140625,1.6108398,0.1884766,2.0380859-0.5068359c1.5048828-2.4443359,4.1074219-3.9042969,6.9609375-3.9042969  c3.4355469,0,6.5249023,2.1777344,7.6884766,5.4199219c0.2470703,0.6894531,0.9536133,1.1015625,1.6796875,0.96875  c0.3232422-0.0585938,0.6196289-0.0869141,0.9072266-0.0869141c1.9038086,0,3.6220703,1.0605469,4.484375,2.7675781  c0.3359375,0.6640625,1.1079102,0.984375,1.8134766,0.7460938c0.4604492-0.1533203,0.9335938-0.2314453,1.4057617-0.2314453  c2.4501953,0,4.4438477,1.9941406,4.4438477,4.4443359S53.2011719,76.296875,50.7509766,76.296875z M59.0415039,59.4550781  c-2.0371094,2.0371094-4.8046875,3.8222656-7.59375,4.8994141c-0.0568848,0.0219727-0.1069946,0.0530396-0.1595459,0.0809326  c-0.1781006-0.0128174-0.355896-0.0272217-0.5372314-0.0272217c-0.390625,0-0.7802734,0.03125-1.1665039,0.09375  c-1.5351562-2.1679688-4.0273438-3.4716797-6.7636719-3.3720703c-1.8505859-3.8154297-5.7519531-6.3056641-10.0488281-6.3056641  c-2.0596313,0-4.0170898,0.5651245-5.7140503,1.5796509c-5.6307373-8.2755127-4.6266479-19.2975464,2.5036011-26.4282837  c2.3427734-2.3427734,5.1303711-4.0546875,8.2045898-5.0600586c-1.9614258,3.0429688-3.0126953,6.5878906-3.0126953,10.2949219  c0,5.0888672,1.9819336,9.8735352,5.5805664,13.472168c6.4448242,6.4443359,16.3959961,7.296875,23.7700195,2.5605469  C63.0991211,54.3203125,61.3862305,57.1103516,59.0415039,59.4550781z M86.7915039,55.6474609H65.4866943  c1.2965698-2.5114746,2.1499634-5.2442627,2.4893799-8.1323242c0.0751953-0.6411133-0.2675781-1.2583008-0.8520508-1.5327148  c-0.5839844-0.2753906-1.2783203-0.1450195-1.7236328,0.3227539l-0.2426758,0.2563477  c-4.2770386,4.2756958-10.3851318,5.6253052-15.8223877,4.0582275c0.5239868-1.4899902,1.9498901-2.5372314,3.5596924-2.5372314  c0.4023438,0,0.8046875,0.0664062,1.1958008,0.1972656c0.7084961,0.2353516,1.4794922-0.0820312,1.8144531-0.746582  c0.737793-1.4609375,2.2075195-2.3681641,3.8364258-2.3681641c0.2460938,0,0.5,0.0244141,0.7758789,0.074707  c0.7265625,0.1289062,1.4321289-0.2788086,1.6796875-0.9692383c1.0107422-2.8144531,3.6933594-4.7055664,6.6762695-4.7055664  c2.4780273,0,4.7373047,1.2675781,6.0439453,3.390625c0.4277344,0.6962891,1.3334961,0.9208984,2.0380859,0.5063477  c0.8540039-0.5024414,1.8222656-0.7680664,2.800293-0.7680664c2.5693359,0,4.7802734,1.746582,5.3774414,4.2470703  c0.1669922,0.6992188,0.8061523,1.1894531,1.5244141,1.1503906c0.0126953-0.0004883,0.1210938-0.0078125,0.1337891-0.0087891  c2.0859375,0,3.7827148,1.6967773,3.7827148,3.7827148S88.8774414,55.6474609,86.7915039,55.6474609z"/></svg>
