<svg xmlns="http://www.w3.org/2000/svg" viewBox="0 0 100 125"><path d="M50 8.9c-14.1 0-25.5 11.4-25.5 25.6 0 3.7.8 7.1 2.1 10.3l22 42.7c.6 1.2 2.2 1.2 2.8 0l22-42.7c1.4-3.1 2.1-6.6 2.1-10.3C75.5 20.3 64.1 8.9 50 8.9zM50 55c-11.4 0-20.7-9.3-20.7-20.7 0-11.4 9.3-20.7 20.7-20.7 11.4 0 20.7 9.3 20.7 20.7C70.7 45.7 61.4 55 50 55z"/><path class="st0" d="M55.8 25.9h-11c-.2 0-.4.2-.4.4v8.4h11.3c.2 0 .4-.2.4-.4v-8c.1-.2-.1-.4-.3-.4z"/><path d="M55.8 21.5h-11c-2.6 0-4.8 2.1-4.8 4.8v21.2c0 .6.5 1.1 1.1 1.1h2.2c.6 0 1.1-.5 1.1-1.1V39h11.3c2.6 0 4.8-2.1 4.8-4.8v-8c.1-2.6-2.1-4.7-4.7-4.7zm.4 12.8c0 .2-.2.4-.4.4H44.5v-8.4c0-.2.2-.4.4-.4h11c.2 0 .4.2.4.4v8z"/></svg>
