<svg xmlns="http://www.w3.org/2000/svg" viewBox="0 0 80 100"><path d="M39 57c-9.374 0-17-7.626-17-17s7.626-17 17-17 17 7.626 17 17-7.626 17-17 17zm0-32c-8.27 0-15 6.73-15 15s6.73 15 15 15 15-6.73 15-15-6.73-15-15-15z"/><path d="M35 33h2v16h-2z"/><path d="M40.93 42H35V32h5.93c2.244 0 4.07 1.794 4.07 4v2.135C45 40.302 43.212 42 40.93 42zM37 40h3.93c1.16 0 2.07-.82 2.07-1.865V36c0-1.084-.948-2-2.07-2H37v6z"/><text y="95" font-size="5" font-weight="bold" font-family="'Helvetica Neue', Helvetica, Arial-Unicode, Arial, Sans-serif">Created by BraveBros.</text><text y="100" font-size="5" font-weight="bold" font-family="'Helvetica Neue', Helvetica, Arial-Unicode, Arial, Sans-serif">from the Noun Project</text></svg>