<svg xmlns="http://www.w3.org/2000/svg" xmlns:xlink="http://www.w3.org/1999/xlink" version="1.1" x="0px" y="0px" viewBox="0 0 100 125" style="enable-background:new 0 0 100 100;" xml:space="preserve"><style type="text/css">
	.st0{fill:none;}
	.st1{fill:#FFFFFF;}
</style><path d="M50,8.9c-14.1,0-25.5,11.4-25.5,25.6c0,3.7,0.8,7.1,2.1,10.3l22,42.7c0.6,1.2,2.2,1.2,2.8,0l22-42.7  c1.4-3.1,2.1-6.6,2.1-10.3C75.5,20.3,64.1,8.9,50,8.9z M50,55c-11.4,0-20.7-9.3-20.7-20.7c0-11.4,9.3-20.7,20.7-20.7  c11.4,0,20.7,9.3,20.7,20.7C70.7,45.7,61.4,55,50,55z"/><path class="st0" d="M55.8,25.9h-11c-0.2,0-0.4,0.2-0.4,0.4V27v7.7h11.3c0.2,0,0.4-0.2,0.4-0.4v-8C56.2,26.1,56,25.9,55.8,25.9z"/><path d="M55.8,21.5h-11c-2.6,0-4.8,2.1-4.8,4.8v21.2c0,0.6,0.5,1.1,1.1,1.1h2.2c0.6,0,1.1-0.5,1.1-1.1V39h11.3  c2.6,0,4.8-2.1,4.8-4.8v-8C60.6,23.6,58.4,21.5,55.8,21.5z M56.2,34.3c0,0.2-0.2,0.4-0.4,0.4H44.5V27v-0.7c0-0.2,0.2-0.4,0.4-0.4h11  c0.2,0,0.4,0.2,0.4,0.4V34.3z"/></svg>
