<svg xmlns="http://www.w3.org/2000/svg" xmlns:xlink="http://www.w3.org/1999/xlink" version="1.1" x="0px" y="0px" viewBox="0 0 100 125" style="enable-background:new 0 0 100 100;" xml:space="preserve"><g><path d="M50,0C22.4,0,0,22.4,0,50c0,27.6,22.4,50,50,50c27.6,0,50-22.4,50-50C100,22.4,77.6,0,50,0z M50,3.7   c25.5,0,46.3,20.8,46.3,46.3c0,10.4-3.5,20.1-9.3,27.8c-0.1-2.8-0.1-5.7-0.2-6.1c-0.1-3.8-4-6-7.4-7.5c-4-1.8-8.7-3.1-11.2-3.8   c-2.1-0.5-5-1.5-7-2.3c0-0.5,0-1,0-1.5c0.9-1,1.7-2.4,2.1-4.5c1.7-0.7,2.9-2.4,3.4-5c0-0.2,0.1-0.4,0.1-0.5   c0.6-1.4,2.3-5.3,0.3-8.4c-0.3-0.5-0.8-1-1.3-1.4c0.4-4.1,0.1-7.9,0.1-8.1C65.5,22.4,59.2,18,50.6,18c-9.1,0-15.8,4.8-16.1,11.7   c-0.1,1.8,0.1,5.5,0.3,7.9c-1,1-1.4,2.1-1.6,2.8c-0.3,1.5,0,2.9,0.2,4c0.1,0.4,0.2,0.8,0.2,1.1c-0.1,2.5,0.9,4,1.7,4.9   c0.4,0.5,0.9,0.8,1.5,1.1c0.4,1.8,1,3.3,2,4.6c0.2,0.3,0.4,0.5,0.7,0.7c0,0.4,0,0.8,0,1.1c-0.7,0.3-1.5,0.5-2.3,0.8   c-1.5,0.5-3,1.1-4.6,1.7c-5.1,2.2-11.5,4.6-12.6,5c-5.4,1.5-7.2,5.7-7.5,8.1l0,0.2V74v3.1C7,69.4,3.7,60.1,3.7,50   C3.7,24.5,24.5,3.7,50,3.7z M50,96.3c-13.3,0-25.4-5.7-33.8-14.7V74c0,0,0.4-3.7,4.9-4.9c0,0,7.3-2.7,13-5.1c2.9-1.3,6-2.1,8.9-3.4   c0,0,0.3-2,0.1-5.7c0,0-2.8-0.8-3-6.5c0,0-0.3,0.1-0.6,0.1c-0.9,0-2.3-0.4-2.2-3c-0.1-2.3-1.9-4.9,1.3-5.9c0,0-0.5-7.2-0.4-9.7   c0.3-5.5,6.4-8.2,12.4-8.2c5.7,0,11.3,2.5,11.7,7.4c0,0,0.5,5.7-0.5,10.2c0,0,0.1,0,0.3,0c0.9,0,3.9,0.4,1.4,5.8   c-0.5,1.1-0.4,3.6-2.1,3.6c-0.4,0-0.9-0.1-1.5-0.4c0,0,0.3,5.5-2.5,6.4c0,0,0.1,5.8,0.1,6c0,0,6,2.3,9.7,3.3   c7.2,1.9,15.8,5,15.8,7.8c0,0,0.2,5.4,0.3,10.2C75,90.8,63.1,96.3,50,96.3z"/><path d="M57.5,60.7c-0.1,0-0.1-0.1-0.1-0.1S57.5,60.7,57.5,60.7z"/></g></svg>
