<svg xmlns="http://www.w3.org/2000/svg" viewBox="0 0 100 125"><path d="M50 0C22.4 0 0 22.4 0 50s22.4 50 50 50 50-22.4 50-50S77.6 0 50 0zm0 3.7c25.5 0 46.3 20.8 46.3 46.3 0 10.4-3.5 20.1-9.3 27.8-.1-2.8-.1-5.7-.2-6.1-.1-3.8-4-6-7.4-7.5-4-1.8-8.7-3.1-11.2-3.8-2.1-.5-5-1.5-7-2.3v-1.5c.9-1 1.7-2.4 2.1-4.5 1.7-.7 2.9-2.4 3.4-5 0-.2.1-.4.1-.5.6-1.4 2.3-5.3.3-8.4-.3-.5-.8-1-1.3-1.4.4-4.1.1-7.9.1-8.1-.4-6.3-6.7-10.7-15.3-10.7-9.1 0-15.8 4.8-16.1 11.7-.1 1.8.1 5.5.3 7.9-1 1-1.4 2.1-1.6 2.8-.3 1.5 0 2.9.2 4 .1.4.2.8.2 1.1-.1 2.5.9 4 1.7 4.9.4.5.9.8 1.5 1.1.4 1.8 1 3.3 2 4.6.2.3.4.5.7.7v1.1c-.7.3-1.5.5-2.3.8-1.5.5-3 1.1-4.6 1.7-5.1 2.2-11.5 4.6-12.6 5-5.4 1.5-7.2 5.7-7.5 8.1v3.6C7 69.4 3.7 60.1 3.7 50 3.7 24.5 24.5 3.7 50 3.7zm0 92.6c-13.3 0-25.4-5.7-33.8-14.7V74s.4-3.7 4.9-4.9c0 0 7.3-2.7 13-5.1 2.9-1.3 6-2.1 8.9-3.4 0 0 .3-2 .1-5.7 0 0-2.8-.8-3-6.5 0 0-.3.1-.6.1-.9 0-2.3-.4-2.2-3-.1-2.3-1.9-4.9 1.3-5.9 0 0-.5-7.2-.4-9.7.3-5.5 6.4-8.2 12.4-8.2 5.7 0 11.3 2.5 11.7 7.4 0 0 .5 5.7-.5 10.2h.3c.9 0 3.9.4 1.4 5.8-.5 1.1-.4 3.6-2.1 3.6-.4 0-.9-.1-1.5-.4 0 0 .3 5.5-2.5 6.4 0 0 .1 5.8.1 6 0 0 6 2.3 9.7 3.3 7.2 1.9 15.8 5 15.8 7.8 0 0 .2 5.4.3 10.2C75 90.8 63.1 96.3 50 96.3z"/><path d="M57.5 60.7c-.1 0-.1-.1-.1-.1l.1.1z"/></svg>