<svg xmlns="http://www.w3.org/2000/svg" xmlns:xlink="http://www.w3.org/1999/xlink" version="1.1" x="0px" y="0px" viewBox="0 0 32 40" enable-background="new 0 0 32 32" xml:space="preserve"><g><path d="M26,25c0.5522919,0,1,0.4477196,1,1s-0.4477081,1-1,1s-1-0.4477196-1-1S25.4477081,25,26,25 M26,24   c-1.1027985,0-2,0.8971996-2,2s0.8972015,2,2,2s2-0.8971996,2-2S27.1027985,24,26,24L26,24z"/><path d="M28.8786621,23.4642944c-0.03479-0.03479-0.1044312-0.0908813-0.1044312-0.0908813l-7.8682251-5.9423218   l-0.925415-4.6272583c-0.0355835-0.1777954-0.1235352-0.3389893-0.2451172-0.4727783   c0.3535156-0.3925781,0.3495483-0.9935913-0.0283813-1.371521l-2.666626-2.666687C16.8451538,8.0975952,16.5892334,8,16.333313,8   c-0.2371216,0-0.4696045,0.0930176-0.6585083,0.2606201L9.7070923,2.2929077C9.5118408,2.0975952,9.2559204,2,9,2   S8.4881592,2.0975952,8.2929077,2.2929077l-6,6c-0.3905029,0.3905029-0.3905029,1.0236816,0,1.4141846l5.9677124,5.9677124   c-0.3485107,0.3927612-0.3438721,0.9894409,0.0322876,1.3656006l2.666687,2.666687   C11.1548462,19.9023438,11.4107666,20,11.666687,20c0.2394409,0,0.4746704-0.093689,0.6644287-0.2645874   c0.133728,0.121521,0.2948608,0.2095947,0.4727783,0.2451782l4.6271973,0.925415l5.9423828,7.8682251   c0.027832,0.0368652,0.0582275,0.0717773,0.0908813,0.1044312C24.187439,29.6017456,25.1488647,30,26.1715088,30   s1.9840698-0.3982544,2.7071533-1.1213379C30.3713989,27.3859253,30.3713989,24.9570312,28.8786621,23.4642944z    M3.6464844,8.3535156l3,3C6.7441406,11.4511719,6.8720703,11.5,7,11.5s0.2558594-0.0488281,0.3535156-0.1464844   c0.1953125-0.1953125,0.1953125-0.5117188,0-0.7070312l-3-3l0.2929688-0.2929688l2,2C6.7441406,9.4511719,6.8720703,9.5,7,9.5   s0.2558594-0.0488281,0.3535156-0.1464844c0.1953125-0.1953125,0.1953125-0.5117188,0-0.7070312l-2-2l0.2929688-0.2929688l4,4   C9.7441406,10.4511719,9.8720703,10.5,10,10.5s0.2558594-0.0488281,0.3535156-0.1464844   c0.1953125-0.1953125,0.1953125-0.5117188,0-0.7070312l-4-4l0.2929688-0.2929688l1,1C7.7441406,6.4511719,7.8720703,6.5,8,6.5   s0.2558594-0.0488281,0.3535156-0.1464844c0.1953125-0.1953125,0.1953125-0.5117188,0-0.7070312l-1-1L9,3l5.9595337,5.9595337l-6,6   L3,9L3.6464844,8.3535156z M9,16.333313L16.333313,9L19,11.666626L11.666687,19L9,16.333313z M28.1715698,28.1715698   C27.6192627,28.7238159,26.8953857,29,26.1715088,29s-1.4477539-0.2761841-2.000061-0.8284302L18,20l-4.9326172-0.9865112   l5.946106-5.946106L20,18l8.1715698,6.1714478C29.2761841,25.276001,29.2761841,27.0669556,28.1715698,28.1715698z"/><path d="M11,17.5c-0.1279297,0-0.2558594-0.0488281-0.3535156-0.1464844c-0.1953125-0.1953125-0.1953125-0.5117188,0-0.7070312l6-6   c0.1953125-0.1953125,0.5117188-0.1953125,0.7070312,0s0.1953125,0.5117188,0,0.7070312l-6,6   C11.2558594,17.4511719,11.1279297,17.5,11,17.5z"/></g><text x="0" y="47" fill="#000000" font-size="5px" font-weight="bold" font-family="'Helvetica Neue', Helvetica, Arial-Unicode, Arial, Sans-serif">Created by Musket</text><text x="0" y="52" fill="#000000" font-size="5px" font-weight="bold" font-family="'Helvetica Neue', Helvetica, Arial-Unicode, Arial, Sans-serif">from the Noun Project</text></svg>