<svg xmlns="http://www.w3.org/2000/svg" viewBox="0 0 100 125"><path d="M92.89 20.56h-5.94v-7.984a5.16 5.16 0 0 0-5.153-5.154H13.28a5.16 5.16 0 0 0-5.154 5.154v3.288H6.25a1.01 1.01 0 0 0-1.006 1.007v9.868a1.01 1.01 0 0 0 1.007 1.007h1.877v3.288a5.16 5.16 0 0 0 5.154 5.154H81.8a5.16 5.16 0 0 0 5.153-5.154V23.05h5.67v17.64l-44.46 7.165a2.212 2.212 0 0 0-1.867 2.193v7.456H41.82a3.313 3.313 0 0 0-3.31 3.31V91.69A3.312 3.312 0 0 0 41.82 95h11.444a3.313 3.313 0 0 0 3.31-3.31V60.814a3.312 3.312 0 0 0-3.31-3.31h-4.478v-7.227l44.46-7.167a2.212 2.212 0 0 0 1.867-2.194V22.782a2.225 2.225 0 0 0-2.22-2.222zm-8.43 10.473a2.668 2.668 0 0 1-2.665 2.665H13.28a2.668 2.668 0 0 1-2.665-2.665V12.577a2.67 2.67 0 0 1 2.665-2.665h68.518a2.668 2.668 0 0 1 2.665 2.665v18.456zM53.26 92.51H41.816a.82.82 0 0 1-.82-.82v-6.103H54.08v6.105a.83.83 0 0 1-.82.82zm.82-31.696V83.1H40.996V60.812a.82.82 0 0 1 .82-.82H53.26a.83.83 0 0 1 .82.82z"/></svg>