<svg xmlns="http://www.w3.org/2000/svg" viewBox="0 0 32 40"><path d="M26 25a1 1 0 1 1 0 2 1 1 0 0 1 0-2m0-1c-1.103 0-2 .897-2 2s.897 2 2 2 2-.897 2-2-.897-2-2-2z"/><path d="M28.88 23.464c-.036-.034-.106-.09-.106-.09l-7.868-5.943-.925-4.626a.997.997 0 0 0-.245-.473.995.995 0 0 0-.028-1.37L17.04 8.293A.997.997 0 0 0 16.333 8a.995.995 0 0 0-.658.26L9.707 2.294a.997.997 0 0 0-1.414 0l-6 6a1 1 0 0 0 0 1.414l5.968 5.968a.994.994 0 0 0 .033 1.365l2.667 2.667c.195.195.45.293.707.293.24 0 .474-.094.664-.265.135.122.296.21.474.246l4.627.926 5.943 7.868a1 1 0 0 0 .09.105c.724.722 1.686 1.12 2.71 1.12s1.983-.398 2.706-1.12a3.833 3.833 0 0 0 0-5.416zM3.645 8.354l3 3a.498.498 0 0 0 .708 0 .5.5 0 0 0 0-.708l-3-3 .292-.292 2 2a.498.498 0 0 0 .708 0 .5.5 0 0 0 0-.708l-2-2 .292-.292 4 4a.498.498 0 0 0 .708 0 .5.5 0 0 0 0-.708l-4-4 .292-.292 1 1a.498.498 0 0 0 .708 0 .5.5 0 0 0 0-.708l-1-1L9 3l5.96 5.96-6 6L3 9l.646-.646zM9 16.334L16.333 9 19 11.667 11.667 19 9 16.333zM28.172 28.17c-.553.552-1.277.828-2 .828s-1.448-.276-2-.828L18 20l-4.933-.987 5.946-5.946L20 18l8.172 6.17a2.828 2.828 0 0 1 0 4.002z"/><path d="M11 17.5a.498.498 0 0 1-.354-.854l6-6a.5.5 0 1 1 .708.708l-6 6A.498.498 0 0 1 11 17.5z"/><text y="47" font-size="5" font-weight="bold" font-family="'Helvetica Neue', Helvetica, Arial-Unicode, Arial, Sans-serif">Created by Musket</text><text y="52" font-size="5" font-weight="bold" font-family="'Helvetica Neue', Helvetica, Arial-Unicode, Arial, Sans-serif">from the Noun Project</text></svg>