<svg xmlns="http://www.w3.org/2000/svg" viewBox="0 0 100 125"><path d="M81.133 80.377a1.58 1.58 0 0 0-1.58 1.58v10.348a1.58 1.58 0 0 0 3.16 0v-10.35a1.58 1.58 0 0 0-1.58-1.578zm-6.467 0H12.83a1.58 1.58 0 0 0-1.58 1.58v10.348c0 .872.708 1.58 1.58 1.58h61.835a1.58 1.58 0 0 0 1.58-1.58v-10.35a1.58 1.58 0 0 0-1.58-1.578zm-38.713 10.35H14.41v-7.19h21.543v7.19zm37.133 0H39.11v-7.19h33.976v7.19zm14.084-10.35a1.58 1.58 0 0 0-1.58 1.58v10.348a1.58 1.58 0 0 0 3.16 0v-10.35a1.58 1.58 0 0 0-1.58-1.578zM66.38 50.902H45.69c-7.263 0-13.172-5.91-13.172-13.173 0-.248-.06-.478-.16-.685.003-.047.013-.093.013-.142a1.58 1.58 0 0 0-1.58-1.58c-7.182 0-13.025-5.842-13.025-13.025 0-7.183 5.843-13.026 13.026-13.026a1.58 1.58 0 0 0 0-3.158c-8.923 0-16.183 7.26-16.183 16.183 0 8.45 6.516 15.4 14.787 16.112.362 8.686 7.522 15.646 16.296 15.646h20.69c7.264 0 13.173 5.908 13.173 13.172v8.623a1.58 1.58 0 0 0 3.158 0V67.23c0-9.004-7.326-16.33-16.33-16.33zm.053-22.853c4.985-2.8 8.366-8.13 8.366-14.245a1.58 1.58 0 0 0-3.16 0c0 7.263-5.91 13.172-13.173 13.172a1.58 1.58 0 0 0 0 3.158c14.956 0 27.123 12.167 27.123 27.122v18.597a1.58 1.58 0 0 0 3.16 0V57.258c0-13.94-9.473-25.703-22.317-29.21z"/></svg>