<svg xmlns="http://www.w3.org/2000/svg" viewBox="0 0 100 125"><g color="#000" font-weight="400" font-family="sans-serif" white-space="normal" stroke-width="1.5"><path style="line-height:normal;text-indent:0;text-align:start;text-decoration-line:none;text-decoration-style:solid;text-decoration-color:#000;text-transform:none;block-progression:tb;isolation:auto;mix-blend-mode:normal" d="M17.068 60.254v5.682h26.46v-5.682h-26.46zm1.5 1.5h6.15v2.682h-6.15v-2.682zm7.65 0h15.81v2.682h-15.81v-2.682z" overflow="visible" fill-rule="evenodd"/><path d="M8 39.342v34.95h68.055V58.478c-.25.012-.497.037-.75.037s-.5-.025-.75-.037v14.316H9.5v-31.95h49.943a15.69 15.69 0 0 1 .233-1.5z" style="line-height:normal;text-indent:0;text-align:start;text-decoration-line:none;text-decoration-style:solid;text-decoration-color:#000;text-transform:none;block-progression:tb;isolation:auto;mix-blend-mode:normal" overflow="visible" fill-rule="evenodd"/><path d="M16.537 39.562L8.22 47.925l1.06 1.057 8.322-8.36-1.065-1.06zm4.16 0L8.22 52.107l1.06 1.057L21.763 40.62l-1.065-1.058zm37.97 29.048v1.5h12.478v-1.5h-12.48zm-41.6-20.904v1.5h43.777a15.908 15.908 0 0 1-.602-1.5H17.068zm0 4.178v1.5h33.435v-1.5H17.068zm0 4.182v1.5h20.88v-1.5h-20.88z" style="line-height:normal;text-indent:0;text-align:start;text-decoration-line:none;text-decoration-style:solid;text-decoration-color:#000;text-transform:none;block-progression:tb;isolation:auto;mix-blend-mode:normal" overflow="visible" fill-rule="evenodd"/><path d="M75.305 25.707c-9.158 0-16.696 7.58-16.696 16.78 0 9.297 7.542 16.778 16.694 16.778 9.25 0 16.695-7.487 16.695-16.78 0-9.193-7.44-16.778-16.696-16.778zm0 1.5c8.437 0 15.195 6.893 15.195 15.28 0 8.493-6.752 15.278-15.195 15.278-8.336 0-15.196-6.79-15.196-15.28 0-8.38 6.864-15.278 15.194-15.278z" style="line-height:normal;text-indent:0;text-align:start;text-decoration-line:none;text-decoration-style:solid;text-decoration-color:#000;text-transform:none;block-progression:tb;isolation:auto;mix-blend-mode:normal" overflow="visible" stroke-linecap="round" stroke-linejoin="round"/><path style="line-height:normal;text-indent:0;text-align:start;text-decoration-line:none;text-decoration-style:solid;text-decoration-color:#000;text-transform:none;block-progression:tb;isolation:auto;mix-blend-mode:normal" d="M83.51 37.66l-12.328 7.763-3.852-3.637-1.03 1.09 4.696 4.438L84.31 38.93l-.8-1.27z" overflow="visible"/></g><text y="115" font-size="5" font-weight="bold" font-family="'Helvetica Neue', Helvetica, Arial-Unicode, Arial, Sans-serif">Created by anbileru adaleru</text><text y="120" font-size="5" font-weight="bold" font-family="'Helvetica Neue', Helvetica, Arial-Unicode, Arial, Sans-serif">from the Noun Project</text></svg>