<svg xmlns="http://www.w3.org/2000/svg" viewBox="0 0 100 125"><path class="st0" d="M83.9 30c-.9-1.7-10.1-3.6-20.7-3.6-8 0-16.7 1.1-23.1 4.2C25 37.9 20.2 50 25.8 61.5c.2.3.4.7.6 1-1.2 1.1-3.5 2.9-5.7 4.7-1.5 1.2-3 2.4-4.2 3.4-.6.5-.7 1.5-.2 2.1.3.4.7.5 1.2.5.3 0 .7-.1 1-.3 1.1-.9 2.6-2.1 4.1-3.3 2.1-1.7 4.3-3.4 5.6-4.5.5.6.9 1.1 1.3 1.6 4 4.5 9.7 6.9 16.2 6.9 4.7 0 9.9-1.2 15.2-3.8 14.9-7.3 24.9-36.1 23-39.8zm-8.4 18.2c-2.7 5.5-8.5 15.2-16 18.9-4.8 2.3-9.5 3.5-13.9 3.5-5.7 0-10.5-2-14-5.9-1.1-1.3-2.4-2.9-3.2-4.5-5.1-10.5-.3-20.5 12.8-26.9 5.2-2.5 12.9-3.9 21.8-3.9 8.8 0 15.7 1.4 18 2.3 0 2.3-1.7 8.9-5.5 16.5zM57.1 35c0-.4-.4-.8-.8-.7-.4 0-.7.4-.7.8L56 44c-4.7 2.9-9.5 6-14.3 9.3l-.8-9.6c0-.4-.4-.7-.8-.7s-.7.4-.7.8l.8 10.5c-2.8 1.9-5.6 3.9-8.2 5.8-.3.2-.4.7-.2 1 .1.2.4.3.6.3.2 0 .3 0 .4-.1 2.6-1.9 5.4-3.8 8.2-5.8l7.5 4c.1.1.2.1.3.1.3 0 .5-.1.7-.4.2-.4.1-.8-.3-1l-6.8-3.6c4.8-3.2 9.7-6.4 14.4-9.3l7.3 3.1c.1 0 .2.1.3.1.3 0 .6-.2.7-.5.2-.4 0-.8-.4-1l-6.3-2.7c6.3-3.8 12.1-7.1 16.5-9.3.4-.2.5-.6.3-1s-.6-.5-1-.3c-4.6 2.3-10.5 5.6-16.8 9.5l-.3-8.2z"/></svg>
